<?xml version="1.0" encoding="utf-8"?>
<!-- Generator: Adobe Illustrator 21.0.1, SVG Export Plug-In . SVG Version: 6.00 Build 0)  -->
<svg version="1.1" xmlns="http://www.w3.org/2000/svg" xmlns:xlink="http://www.w3.org/1999/xlink" x="0px" y="0px"
	 viewBox="0 0 90.7 333.7" style="enable-background:new 0 0 90.7 333.7;" xml:space="preserve">
<style type="text/css">
	.st0{fill:#E8E7EB;}
</style>
<g id="圖層_1">
</g>
<g id="圖層_2_1_">
	<path class="st0" d="M0.6,17.7c-1.2-1.6-0.6-4,1.2-4.7C1.9,13,2,12.9,2,12.9c0.6-0.2,1.4-0.2,2,0c23.7,8.3,42.1,21.5,55,39.7
		c0.1,0.1,0.1,0.2,0.2,0.3c4.1,7.5,7.6,6.5,10.4-3l9.6-33.5C80.8,9.3,82.8,4.2,85,1.3C86.8-1,90.4,0,90.6,2.9
		c0.2,2.7,0,6.6-0.5,11.6c-6.7,50.6-12.9,101.8-18.6,153.3c0,0.1,0,0.2-0.1,0.3c-5.7,24.2-3.1,52.1,7.6,83.9c0,0.1,0.1,0.2,0.1,0.3
		c3.8,8.3,6.5,19.1,8.1,32.4c2.2,20.2-3.1,35.4-15.9,45.6c-0.3,0.2-0.6,0.4-0.9,0.5c-23.3,8.9-37.1-2.8-41.6-35c0-0.1,0-0.2,0-0.2
		c-0.6-8.3,0.8-22.1,4.3-41.4c0-0.1,0-0.2,0-0.3c1.6-15.6,1.4-28.4-0.5-38.6c-1.6-7.2-7.9-13.7-19.1-19.3c-0.4-0.2-0.7-0.3-1.1-0.3
		c-5.7-0.6-9.4-2.5-11-5.9c-0.9-1.9,0.5-4.2,2.6-4.4c2.9-0.2,7.4-0.2,13.4,0.2c0.3,0,0.5,0.1,0.7,0.1c4.2,1.3,8.4,0,12.9-3.9
		c0.4-0.4,0.7-0.9,0.9-1.4c6.6-20.5,12.6-40.9,17.9-61.4c1.9-7.7,0.3-11-4.8-10c-13.6,1.6-22.2-6.2-25.7-23.5
		c-0.1-0.3-0.1-0.6,0-0.9C21.8,59.6,15.5,37.2,0.6,17.7z"/>
</g>
</svg>
