<?xml version="1.0" encoding="utf-8"?>
<!-- Generator: Adobe Illustrator 21.0.1, SVG Export Plug-In . SVG Version: 6.00 Build 0)  -->
<svg version="1.1" xmlns="http://www.w3.org/2000/svg" xmlns:xlink="http://www.w3.org/1999/xlink" x="0px" y="0px"
	 viewBox="0 0 294.7 357.4" style="enable-background:new 0 0 294.7 357.4;" xml:space="preserve">
<style type="text/css">
	.st0{fill:#F4F4F5;}
</style>
<g id="圖層_1">
</g>
<g id="圖層_2_1_">
	<g>
		<path class="st0" d="M291.3,34.3C283.2,25.4,269.9,16,251.5,6c-0.1-0.1-0.3-0.2-0.4-0.3C237.4-4.5,227.6-1.1,221.8,16
			c-0.1,0.2-0.1,0.4-0.2,0.5c-5.3,10.4-12,13.7-20.2,9.9c-0.4-0.2-0.8-0.3-1.2-0.3c-9.1-1.1-17.6-1.6-25.6-1.7
			c-0.6,0-1.1,0.2-1.6,0.5c-2.1,1-7.3-1.3-15.7-6.8c-8.7-6.1-16.9-10.9-24.6-14.3c-0.3-0.1-0.5-0.3-0.7-0.5
			c-4.2-3.4-8.5-4.2-12.7-2.4c-0.5,0.2-1,0.6-1.4,1.1c-5.8,7.3-11.1,14.6-15.8,21.9c-0.3,0.5-0.8,0.9-1.3,1.2
			c-0.6,0.3-1.4,0.6-2.3,0.8c-8.4,2-14.6,9.1-15.1,17.7c0.3,0,0.6-0.1,0.8-0.2c20.4-7.5,20.8-1.3,13,13.8c-0.1,0.2-0.2,0.5-0.3,0.7
			c-8.5,31.2-22.2,59.2-41,84.2c-0.1,0.1-0.1,0.2-0.2,0.3c-5,5.6-8.6,10.1-10.6,13.4c-1.7,2.9,0.8,6.5,4.1,5.7
			c12.3-3.1,25.4-10.9,39.1-23.3c10.5-10.4,15.7-10.8,15.7-1.2c1.9,7.7-2.9,20.3-14.4,37.6c-0.1,0.1-0.1,0.2-0.2,0.3
			c-15.9,29.7-40.8,61.8-74.8,96.2c-6.7,6.4-11.3,11.1-13.7,14.1c-1.7,2-0.8,5.2,1.8,6c3.7,1,8.9-0.6,15.7-4.8
			c0.1-0.1,0.3-0.2,0.5-0.2c22.4-9.7,45.5-25.3,69.4-46.9c10.5-10.4,15.7-10.6,15.7-0.6c0.4,17.4,0,34.6-1.1,51.7
			c-0.1,0.7-0.3,1.4-0.7,2c-5.1,6.7-14.5,9.9-28.1,9.6c-0.2,0-0.3,0-0.5,0c-12.6-1.9-20.2-0.4-22.7,4.5c-0.9,1.8-0.2,4,1.6,5
			c3.1,1.7,9.1,3.8,17.9,6.2c10.4,2.3,18.6,9.9,24.8,22.9c0.1,0.2,0.2,0.4,0.2,0.7c3.1,11.7,10.5,17.1,22,15.9
			c22-3.1,35.8-15.3,41.2-36.5c2.3-8.1,3.1-21.5,2.3-40c0-9.3,4.6-16.8,13.8-22.6c0.1-0.1,0.1-0.1,0.2-0.1l25.3-19
			c0.1,0,0.1-0.1,0.2-0.1c11.6-10,17.3-10.4,17.3-1.1v37.9c0,0.3,0,0.5,0.1,0.8c3.6,16.3-3.1,24.5-20.2,24.5c-0.1,0-0.2,0-0.4,0
			c-8.8,0.9-14.9,2.1-18,3.7c-1.5,0.7-2.4,2.4-2.1,4c0,0.4,0.1,0.7,0.2,1c0.4,1,1.3,1.8,2.3,2.1c16.5,5.8,27.2,15.4,32.2,28.8
			c0.1,0.2,0.2,0.5,0.2,0.8c1.7,11.6,9.7,16.5,24,14.7c0.2,0,0.4-0.1,0.6-0.1c23.4-6.6,36-22.2,38-46.7c0-0.1,0-0.2,0-0.3V74.8
			c0-0.3,0-0.6-0.1-0.9c-2.5-10.6,0.4-17.4,8.8-20.5C295.1,48.4,297.8,42,291.3,34.3z M161.8,60.3c0-1,0.5-2,1.3-2.7
			c10.1-8.5,21.6-12.6,34.5-12.3c0.1,0,0.3,0,0.4,0c8.1-0.9,13.6-0.7,16.5,0.5c1.3,0.5,2.1,1.8,2.2,3.2c0.2,3.7-1.4,9.4-5,17.2
			c-11.2,24.7-22.9,44.7-35.3,60.2c-0.1,0.1-0.2,0.2-0.2,0.3c-10.4,10.7-15.5,11.4-15.5,2.2C160.3,105.4,160.7,82.6,161.8,60.3z
			 M200.2,187.5c-7.7,13.6-16.5,26.9-26.1,40c-8.9,12.4-13.3,13.6-13.3,3.5v-54.5c0-9.3,4.6-16.4,13.9-21.5c8.8-5,17.5-10.8,26-17.3
			c0.1-0.1,0.2-0.1,0.2-0.2c11.1-9.9,16.6-9.7,16.7,0.4c0,0.2,0,0.4,0.1,0.6C219.4,147.8,213.5,164.1,200.2,187.5z"/>
	</g>
</g>
</svg>
