<?xml version="1.0" encoding="utf-8"?>
<!-- Generator: Adobe Illustrator 21.0.1, SVG Export Plug-In . SVG Version: 6.00 Build 0)  -->
<svg version="1.1" xmlns="http://www.w3.org/2000/svg" xmlns:xlink="http://www.w3.org/1999/xlink" x="0px" y="0px"
	 viewBox="0 0 265.6 210.3" style="enable-background:new 0 0 265.6 210.3;" xml:space="preserve">
<style type="text/css">
	.st0{fill:#F4F4F5;}
</style>
<g id="圖層_1">
</g>
<g id="圖層_2_1_">
	<path class="st0" d="M0,195.2c-0.2-2.4,0.5-4.9,1.9-6.9C41.4,131.6,63.4,74.8,67.8,18.1c0-0.3,0-0.5,0-0.8
		c-2.2-16,5.7-20.9,23.8-14.8c0.2,0,0.5,0.1,0.7,0.2c11.1,1.6,22.7,4,35,7.1c0.2,0,0.4,0.1,0.6,0.2c11.9,5.1,18,8.7,18.4,10.7
		c1.6,4.7-1.5,7.9-9,9.5c-0.4,0.1-0.7,0.2-1.1,0.4c-11.9,6.4-12,15.9-0.3,28.4c0.1,0.1,0.3,0.4,0.4,0.5
		c28.5,42.5,66.7,74,114.5,94.5c5.7,2.6,10,4.8,12.9,6.6c2.8,1.7,2.4,5.9-0.7,7c-3.3,1.2-8,2.7-14.1,4.3c-0.3,0.1-0.7,0.2-1,0.4
		c-10.2,5.6-19.3,13.6-27.6,24.1c-0.2,0.3-0.4,0.6-0.5,0.9c-2.5,5.4-4.6,9.2-6.3,11.5c-1.1,1.4-3,1.9-4.6,1.2
		c-3.5-1.6-9.6-5.5-18.3-11.8c-0.1-0.1-0.3-0.2-0.4-0.3c-32-28.5-55.1-66.4-69.1-113.8c-3.2-11.2-7-12.3-11.5-3
		c-23.3,48.5-54,89-91.9,121.6C10.9,208.3,0.6,203.9,0,195.2z"/>
</g>
</svg>
