<?xml version="1.0" encoding="utf-8"?>
<!-- Generator: Adobe Illustrator 21.0.1, SVG Export Plug-In . SVG Version: 6.00 Build 0)  -->
<svg version="1.1" xmlns="http://www.w3.org/2000/svg" xmlns:xlink="http://www.w3.org/1999/xlink" x="0px" y="0px"
	 viewBox="0 0 228.7 542.2" style="enable-background:new 0 0 228.7 542.2;" xml:space="preserve">
<style type="text/css">
	.st0{fill:#F4F4F5;}
</style>
<g id="圖層_1">
</g>
<g id="圖層_2_1_">
	<g>
		<path class="st0" d="M182.4,144.4c-0.2-0.1-0.4-0.2-0.6-0.3c-7.3-5.5-14.7-9.7-22.1-12.7c-0.1,0-0.2-0.1-0.3-0.1
			c-12.2-4-21.6-3.3-28.3,2.1c-0.1,0.1-0.3,0.2-0.4,0.4c-3.4,3.6-6.2,6.2-8.3,7.7s-5,0.5-5.7-2s-1-6.1-1-10.9V99.4
			c0-6.8,2.6-11,7.9-12.7c3.5-1.1,6-4.4,5.9-8.1v-0.5c-0.1-3.5-2.5-6.5-5.8-7.6c-5.3-1.7-7.9-6.1-7.9-13.3v-14
			c0-6.5,0.3-11,0.9-13.6c0.3-1.2,1.1-2.2,2.3-2.6c3-1.1,6-2.6,9-4.6c0.5-0.3,0.9-0.8,1.2-1.3c4.5-8.8,0.1-14-13.3-15.5
			c-0.1,0-0.2,0-0.2,0C102.2,3,88.8,1.1,75.3,0C65.2-0.4,60.1,6,60.1,19.1v38.2c0,8.1-3.6,12.6-10.9,13.4c-1.6,0.2-2.9,1.3-3.2,2.9
			l-1.9,9.3c-0.4,2.1,1,4.2,3.2,4.4c8.5,0.7,12.8,5,12.8,12.8v30c0,0.3,0,0.5,0.1,0.8c3.2,14.2-5.5,16.2-25.9,5.8
			c-5.2-2.6-10.5-4.5-15.7-5.6c-11.6-3-17.4,1.7-17.4,14.1v173.5c0,0.3-0.1,0.5-0.1,0.8c-3.6,16.3,1.7,25.1,15.8,26.6
			C42,348,54.6,338,54.6,316.3c0-4.2,0.7-7.1,2.2-8.7c1.5-1.7,4.3-1.6,5.6,0.2c1.6,2.1,2.3,6.2,2.3,12.4v45c0,6.8-2.6,11-7.9,12.6
			c-3.7,1.2-6,4.8-5.9,8.6v0.2c0.1,3.7,2.7,6.9,6.2,8.1c5.1,1.7,7.6,6.1,7.6,13.2v99.8c0,0.2,0,0.4,0,0.6
			c-2.9,16.6,2.5,27.3,16.1,32.2c0.1,0.1,0.3,0.1,0.4,0.1c18.7,4.7,31.7-1.3,38.8-17.9c0.2-0.4,0.3-1,0.3-1.5V407.3
			c0-9,4.7-13.5,14-13.5h31.8c0.2,0,0.4,0,0.6,0c11.8,2,19.2,0.2,22.2-5.6c0.4-0.8,0.5-1.8,0.3-2.7c-0.7-2.4-2.7-6.6-5.9-12.5
			c-1.8-3.7-4.2-7.4-7.1-11c-0.1-0.1-0.2-0.2-0.3-0.4c-7.2-7.2-12.3-11.7-15.3-13.5c-1.3-0.8-2.9-0.8-4.1,0.1
			c-2.9,2.1-8,7.6-15.3,16.3c0,0.1-0.1,0.1-0.2,0.2c-6.2,6.5-10.9,10.8-14.1,12.9c-2.1,1.4-5,0.4-5.7-2.1s-1-6.1-1-10.9v-44.4
			c0-4.3,0.3-7.6,1-9.9c1-3.5,6-3.6,7-0.1c0.6,2.1,1,5.1,1,8.9c-0.8,20.2,8.4,28.5,27.5,24.7c21.3-3,29.9-14.7,25.9-35.1
			c-0.1-0.2-0.1-0.4-0.1-0.7V185.2c-2.2-8.8,0.6-14.8,8.6-17.8c0.3-0.1,0.5-0.2,0.8-0.4C202.4,160,199.2,152.5,182.4,144.4z
			 M129.3,206c0,6.5-2.5,10.7-7.4,12.5c-3.8,1.4-6.2,5.2-5.8,9.2c0.4,3.3,2.6,6.1,5.7,7.2c5,1.7,7.4,6.6,7.4,14.4V278
			c0,9-4.7,13.5-14.1,13.5H67.9c-9,0-13.5-4.7-13.5-14v-29.8c0-6.8,2.6-11,7.9-12.7c3.5-1.1,6-4.4,5.9-8.1v-0.5
			c-0.1-3.5-2.5-6.5-5.8-7.6c-5.3-1.7-7.9-6.1-7.9-13.3v-32.1c0-8.9,5.5-14.1,16.6-15.7c0.2,0,0.4,0,0.5,0h39.6
			c12-0.8,18,3.9,18,14.1L129.3,206L129.3,206z"/>
	</g>
	<path class="st0" d="M166.8,76c4.9-2.6,9.7-6.7,14.6-12.1c10.4-11.9,22.2-11.8,35.3,0.4c0.1,0.1,0.2,0.2,0.3,0.3
		c10,11.5,13.6,20.3,10.7,26.6c-0.4,1-1.3,1.7-2.4,2c-2.8,0.7-8.6,1-17.5,1c0,0-23.8,3.8-30.3,0C172.9,91.6,165.3,81.1,166.8,76z"/>
</g>
</svg>
