<?xml version="1.0" encoding="utf-8"?>
<!-- Generator: Adobe Illustrator 21.0.1, SVG Export Plug-In . SVG Version: 6.00 Build 0)  -->
<svg version="1.1" id="圖層_1" xmlns="http://www.w3.org/2000/svg" xmlns:xlink="http://www.w3.org/1999/xlink" x="0px" y="0px"
	 viewBox="0 0 1366.5 643.5" style="enable-background:new 0 0 1366.5 643.5;" xml:space="preserve">
<style type="text/css">
	.st0{fill:#F4F4F5;}
	.st1{fill:#E8E7EB;}
	.st2{display:none;}
	.st3{display:inline;}
	.st4{display:inline;fill:#E8E7EB;}
	.st5{display:inline;fill:#F4F4F5;}
	.st6{display:inline;fill:#494949;}
	.st7{font-family:'HanWangMingBold';}
	.st8{font-size:51.8489px;}
	.st9{letter-spacing:24;}
	.st10{display:inline;fill:#6B6A6B;}
	.st11{font-size:26.5891px;}
	.st12{letter-spacing:1;}
</style>
<g id="圖層_1_1_">
	<polygon class="st0" points="0,0 0,643.5 424.5,643 730.5,0 	"/>
</g>
<g id="圖層_2">
	<polygon class="st1" points="730.5,0 425,643.5 1366.5,643.5 1366.5,0 	"/>
</g>
<g id="圖層_3" class="st2">
	<g class="st3">
		<path class="st0" d="M683.3,297.7c-0.2-0.1-0.4-0.2-0.6-0.3c-7.3-5.5-14.7-9.7-22.1-12.7c-0.1,0-0.2-0.1-0.3-0.1
			c-12.2-4-21.6-3.3-28.3,2.1c-0.1,0.1-0.3,0.2-0.4,0.4c-3.4,3.6-6.2,6.2-8.3,7.7s-5,0.5-5.7-2s-1-6.1-1-10.9v-29.2
			c0-6.8,2.6-11,7.9-12.7c3.5-1.1,6-4.4,5.9-8.1v-0.5c-0.1-3.5-2.5-6.5-5.8-7.6c-5.3-1.7-7.9-6.1-7.9-13.3v-14
			c0-6.5,0.3-11,0.9-13.6c0.3-1.2,1.1-2.2,2.3-2.6c3-1.1,6-2.6,9-4.6c0.5-0.3,0.9-0.8,1.2-1.3c4.5-8.8,0.1-14-13.3-15.5
			c-0.1,0-0.2,0-0.2,0c-13.5-2.6-26.9-4.5-40.4-5.6c-10.1-0.4-15.2,6-15.2,19.1v38.2c0,8.1-3.6,12.6-10.9,13.4
			c-1.6,0.2-2.9,1.3-3.2,2.9l-1.9,9.3c-0.4,2.1,1,4.2,3.2,4.4c8.5,0.7,12.8,5,12.8,12.8v30c0,0.3,0,0.5,0.1,0.8
			c3.2,14.2-5.5,16.2-25.9,5.8c-5.2-2.6-10.5-4.5-15.7-5.6c-11.6-3-17.4,1.7-17.4,14.1V472c0,0.3-0.1,0.5-0.1,0.8
			c-3.6,16.3,1.7,25.1,15.8,26.6c25.1,1.9,37.7-8.1,37.7-29.8c0-4.2,0.7-7.1,2.2-8.7c1.5-1.7,4.3-1.6,5.6,0.2
			c1.6,2.1,2.3,6.2,2.3,12.4v45c0,6.8-2.6,11-7.9,12.6c-3.7,1.2-6,4.8-5.9,8.6v0.2c0.1,3.7,2.7,6.9,6.2,8.1
			c5.1,1.7,7.6,6.1,7.6,13.2V661c0,0.2,0,0.4,0,0.6c-2.9,16.6,2.5,27.3,16.1,32.2c0.1,0.1,0.3,0.1,0.4,0.1
			c18.7,4.7,31.7-1.3,38.8-17.9c0.2-0.4,0.3-1,0.3-1.5V560.6c0-9,4.7-13.5,14-13.5H667c0.2,0,0.4,0,0.6,0c11.8,2,19.2,0.2,22.2-5.6
			c0.4-0.8,0.5-1.8,0.3-2.7c-0.7-2.4-2.7-6.6-5.9-12.5c-1.8-3.7-4.2-7.4-7.1-11c-0.1-0.1-0.2-0.2-0.3-0.4
			c-7.2-7.2-12.3-11.7-15.3-13.5c-1.3-0.8-2.9-0.8-4.1,0.1c-2.9,2.1-8,7.6-15.3,16.3c0,0.1-0.1,0.1-0.2,0.2
			c-6.2,6.5-10.9,10.8-14.1,12.9c-2.1,1.4-5,0.4-5.7-2.1s-1-6.1-1-10.9v-44.4c0-4.3,0.3-7.6,1-9.9c1-3.5,6-3.6,7-0.1
			c0.6,2.1,1,5.1,1,8.9c-0.8,20.2,8.4,28.5,27.5,24.7c21.3-3,29.9-14.7,25.9-35.1c-0.1-0.2-0.1-0.4-0.1-0.7V338.5
			c-2.2-8.8,0.6-14.8,8.6-17.8c0.3-0.1,0.5-0.2,0.8-0.4C703.3,313.3,700.1,305.8,683.3,297.7z M630.2,359.3c0,6.5-2.5,10.7-7.4,12.5
			c-3.8,1.4-6.2,5.2-5.8,9.2c0.4,3.3,2.6,6.1,5.7,7.2c5,1.7,7.4,6.6,7.4,14.4v28.7c0,9-4.7,13.5-14.1,13.5h-47.2
			c-9,0-13.5-4.7-13.5-14V401c0-6.8,2.6-11,7.9-12.7c3.5-1.1,6-4.4,5.9-8.1v-0.5c-0.1-3.5-2.5-6.5-5.8-7.6
			c-5.3-1.7-7.9-6.1-7.9-13.3v-32.1c0-8.9,5.5-14.1,16.6-15.7c0.2,0,0.4,0,0.5,0h39.6c12-0.8,18,3.9,18,14.1L630.2,359.3
			L630.2,359.3z"/>
	</g>
	<path class="st4" d="M141.2,94c-3.2-4.2,0-10.2,5.3-10c6.9,0.3,17.5,2.3,31.7,5.9c26.8,7.6,52.2,21.6,76.4,42
		c0.1,0.1,0.3,0.2,0.4,0.4c33.5,32.4,45.7,63.8,36.4,94.2c-0.1,0.3-0.2,0.6-0.3,0.9c-10.7,23.6-23.5,35.3-38.4,35
		c-0.5,0-0.9,0-1.4,0.1c-20.5,4.7-37-4.9-49.5-28.8c-0.4-0.7-0.6-1.5-0.7-2.3c-3.9-41.4-16.6-79.1-37.8-113.2
		c-0.3-0.4-0.6-0.8-0.9-1.1C152.3,107.1,145.3,99.4,141.2,94z"/>
	<path class="st5" d="M667.7,229.3c4.9-2.6,9.7-6.7,14.6-12.1c10.4-11.9,22.2-11.8,35.3,0.4c0.1,0.1,0.2,0.2,0.3,0.3
		c10,11.5,13.6,20.3,10.7,26.6c-0.4,1-1.3,1.7-2.4,2c-2.8,0.7-8.6,1-17.5,1c0,0-23.8,3.8-30.3,0
		C673.8,244.9,666.2,234.4,667.7,229.3z"/>
	<g class="st3">
		<path class="st0" d="M1273.8,392.4c-8.1-8.9-21.4-18.3-39.8-28.3c-0.1-0.1-0.3-0.2-0.4-0.3c-13.7-10.2-23.5-6.8-29.3,10.3
			c-0.1,0.2-0.1,0.4-0.2,0.5c-5.3,10.4-12,13.7-20.2,9.9c-0.4-0.2-0.8-0.3-1.2-0.3c-9.1-1.1-17.6-1.6-25.6-1.7
			c-0.6,0-1.1,0.2-1.6,0.5c-2.1,1-7.3-1.3-15.7-6.8c-8.7-6.1-16.9-10.9-24.6-14.3c-0.3-0.1-0.5-0.3-0.7-0.5
			c-4.2-3.4-8.5-4.2-12.7-2.4c-0.5,0.2-1,0.6-1.4,1.1c-5.8,7.3-11.1,14.6-15.8,21.9c-0.3,0.5-0.8,0.9-1.3,1.2
			c-0.6,0.3-1.4,0.6-2.3,0.8c-8.4,2-14.6,9.1-15.1,17.7c0.3,0,0.6-0.1,0.8-0.2c20.4-7.5,20.8-1.3,13,13.8c-0.1,0.2-0.2,0.5-0.3,0.7
			c-8.5,31.2-22.2,59.2-41,84.2c-0.1,0.1-0.1,0.2-0.2,0.3c-5,5.6-8.6,10.1-10.6,13.4c-1.7,2.9,0.8,6.5,4.1,5.7
			c12.3-3.1,25.4-10.9,39.1-23.3c10.5-10.4,15.7-10.8,15.7-1.2c1.9,7.7-2.9,20.3-14.4,37.6c-0.1,0.1-0.1,0.2-0.2,0.3
			c-15.9,29.7-40.8,61.8-74.8,96.2c-6.7,6.4-11.3,11.1-13.7,14.1c-1.7,2-0.8,5.2,1.8,6c3.7,1,8.9-0.6,15.7-4.8
			c0.1-0.1,0.3-0.2,0.5-0.2c22.4-9.7,45.5-25.3,69.4-46.9c10.5-10.4,15.7-10.6,15.7-0.6c0.4,17.4,0,34.6-1.1,51.7
			c-0.1,0.7-0.3,1.4-0.7,2c-5.1,6.7-14.5,9.9-28.1,9.6c-0.2,0-0.3,0-0.5,0c-12.6-1.9-20.2-0.4-22.7,4.5c-0.9,1.8-0.2,4,1.6,5
			c3.1,1.7,9.1,3.8,17.9,6.2c10.4,2.3,18.6,9.9,24.8,22.9c0.1,0.2,0.2,0.4,0.2,0.7c3.1,11.7,10.5,17.1,22,15.9
			c22-3.1,35.8-15.3,41.2-36.5c2.3-8.1,3.1-21.5,2.3-40c0-9.3,4.6-16.8,13.8-22.6c0.1-0.1,0.1-0.1,0.2-0.1l25.3-19
			c0.1,0,0.1-0.1,0.2-0.1c11.6-10,17.3-10.4,17.3-1.1v37.9c0,0.3,0,0.5,0.1,0.8c3.6,16.3-3.1,24.5-20.2,24.5c-0.1,0-0.2,0-0.4,0
			c-8.8,0.9-14.9,2.1-18,3.7c-1.5,0.7-2.4,2.4-2.1,4c0,0.4,0.1,0.7,0.2,1c0.4,1,1.3,1.8,2.3,2.1c16.5,5.8,27.2,15.4,32.2,28.8
			c0.1,0.2,0.2,0.5,0.2,0.8c1.7,11.6,9.7,16.5,24,14.7c0.2,0,0.4-0.1,0.6-0.1c23.4-6.6,36-22.2,38-46.7c0-0.1,0-0.2,0-0.3V432.9
			c0-0.3,0-0.6-0.1-0.9c-2.5-10.6,0.4-17.4,8.8-20.5C1277.6,406.5,1280.3,400.1,1273.8,392.4z M1144.3,418.4c0-1,0.5-2,1.3-2.7
			c10.1-8.5,21.6-12.6,34.5-12.3c0.1,0,0.3,0,0.4,0c8.1-0.9,13.6-0.7,16.5,0.5c1.3,0.5,2.1,1.8,2.2,3.2c0.2,3.7-1.4,9.4-5,17.2
			c-11.2,24.7-22.9,44.7-35.3,60.2c-0.1,0.1-0.2,0.2-0.2,0.3c-10.4,10.7-15.5,11.4-15.5,2.2C1142.8,463.5,1143.2,440.7,1144.3,418.4
			z M1182.7,545.6c-7.7,13.6-16.5,26.9-26.1,40c-8.9,12.4-13.3,13.6-13.3,3.5v-54.5c0-9.3,4.6-16.4,13.9-21.5
			c8.8-5,17.5-10.8,26-17.3c0.1-0.1,0.2-0.1,0.2-0.2c11.1-9.9,16.6-9.7,16.7,0.4c0,0.2,0,0.4,0.1,0.6
			C1201.9,505.9,1196,522.2,1182.7,545.6z"/>
	</g>
	<path class="st4" d="M42.4,438.6c-1.2-1.6-0.6-4,1.2-4.7c0.1,0,0.2-0.1,0.2-0.1c0.6-0.2,1.4-0.2,2,0c23.7,8.3,42.1,21.5,55,39.7
		c0.1,0.1,0.1,0.2,0.2,0.3c4.1,7.5,7.6,6.5,10.4-3l9.6-33.5c1.6-7.1,3.6-12.2,5.8-15.1c1.8-2.3,5.4-1.3,5.6,1.6
		c0.2,2.7,0,6.6-0.5,11.6c-6.7,50.6-12.9,101.8-18.6,153.3c0,0.1,0,0.2-0.1,0.3c-5.7,24.2-3.1,52.1,7.6,83.9c0,0.1,0.1,0.2,0.1,0.3
		c3.8,8.3,6.5,19.1,8.1,32.4c2.2,20.2-3.1,35.4-15.9,45.6c-0.3,0.2-0.6,0.4-0.9,0.5c-23.3,8.9-37.1-2.8-41.6-35c0-0.1,0-0.2,0-0.2
		c-0.6-8.3,0.8-22.1,4.3-41.4c0-0.1,0-0.2,0-0.3c1.6-15.6,1.4-28.4-0.5-38.6c-1.6-7.2-7.9-13.7-19.1-19.3c-0.4-0.2-0.7-0.3-1.1-0.3
		c-5.7-0.6-9.4-2.5-11-5.9c-0.9-1.9,0.5-4.2,2.6-4.4c2.9-0.2,7.4-0.2,13.4,0.2c0.3,0,0.5,0.1,0.7,0.1c4.2,1.3,8.4,0,12.9-3.9
		c0.4-0.4,0.7-0.9,0.9-1.4c6.6-20.5,12.6-40.9,17.9-61.4c1.9-7.7,0.3-11-4.8-10c-13.6,1.6-22.2-6.2-25.7-23.5
		c-0.1-0.3-0.1-0.6,0-0.9C63.6,480.5,57.3,458.1,42.4,438.6z"/>
	<path class="st5" d="M938.9,148.3c-0.2-2.4,0.5-4.9,1.9-6.9c39.5-56.7,61.5-113.5,65.9-170.2c0-0.3,0-0.5,0-0.8
		c-2.2-16,5.7-20.9,23.8-14.8c0.2,0,0.5,0.1,0.7,0.2c11.1,1.6,22.7,4,35,7.1c0.2,0,0.4,0.1,0.6,0.2c11.9,5.1,18,8.7,18.4,10.7
		c1.6,4.7-1.5,7.9-9,9.5c-0.4,0.1-0.7,0.2-1.1,0.4c-11.9,6.4-12,15.9-0.3,28.4c0.1,0.1,0.3,0.4,0.4,0.5
		c28.5,42.5,66.7,74,114.5,94.5c5.7,2.6,10,4.8,12.9,6.6c2.8,1.7,2.4,5.9-0.7,7c-3.3,1.2-8,2.7-14.1,4.3c-0.3,0.1-0.7,0.2-1,0.4
		c-10.2,5.6-19.3,13.6-27.6,24.1c-0.2,0.3-0.4,0.6-0.5,0.9c-2.5,5.4-4.6,9.2-6.3,11.5c-1.1,1.4-3,1.9-4.6,1.2
		c-3.5-1.6-9.6-5.5-18.3-11.8c-0.1-0.1-0.3-0.2-0.4-0.3c-32-28.5-55.1-66.4-69.1-113.8c-3.2-11.2-7-12.3-11.5-3
		c-23.3,48.5-54,89-91.9,121.6C949.8,161.4,939.5,157,938.9,148.3z"/>
</g>
<g id="圖層_5">
</g>
<g id="圖層_8">
</g>
<g id="圖層_6">
</g>
<g id="圖層_7">
</g>
<g id="圖層_4" class="st2">
	<text transform="matrix(1 0 0 1 885.8701 527.1514)" class="st6 st7 st8 st9">Portfolio</text>
	<text transform="matrix(1 0 0 1 989.8701 578.9238)" class="st10 st7 st11 st12">Design By Han Wang</text>
</g>
</svg>
