<?xml version="1.0" encoding="utf-8"?>
<!-- Generator: Adobe Illustrator 21.0.1, SVG Export Plug-In . SVG Version: 6.00 Build 0)  -->
<svg version="1.1" id="圖層_1" xmlns="http://www.w3.org/2000/svg" xmlns:xlink="http://www.w3.org/1999/xlink" x="0px" y="0px"
	 viewBox="0 0 445.5 427.4" style="enable-background:new 0 0 445.5 427.4;" xml:space="preserve">
<style type="text/css">
	.st0{fill:#5E5E8E;}
	
		.st1{fill:none;stroke:#5E5E8E;stroke-width:10;stroke-linecap:round;stroke-linejoin:round;stroke-miterlimit:10;enable-background:new    ;}
	.st2{fill:#403D72;}
	.st3{fill:#8686AD;}
</style>
<path class="st0" d="M336.6,185.2v158.6c0,37.9-30.9,68.7-68.7,68.7H83.6c-37.9,0-68.7-30.9-68.7-68.7V136.1l109.9-110h143.1
	c28.5,0,52.9,17.4,63.4,42.2c2.4,5.5,3.9,11.3,4.8,17.4l11.5-16.5c-1.6-5.2-3.9-10.3-6.6-14.9c-14.3-25.6-41.7-43.1-73-43.1H121.6
	c-1.9,0-3.9,0.7-5.2,2.2L2.2,127.8C0.7,129.1,0,131.1,0,133v210.8c0,46.1,37.6,83.6,83.6,83.6h184.2c46.1,0,83.6-37.6,83.6-83.6
	V163.6L336.6,185.2z"/>
<path class="st1" d="M123,48.5v41c0,24.6-20.1,44.7-44.7,44.7H38.5"/>
<path class="st2" d="M307.8,240l-35.9-24.9c-1.5-0.9-3.4,0-3.6,1.8l-0.6,6.3c0,0.7,0.3,1.5,1,2.1l19.1,13.1c1.5,1,1.3,3.3-0.3,4
	l-21,10.1c-0.7,0.3-1.2,1-1.3,1.8l-0.4,6.3c-0.1,1.8,1.6,3,3.3,2.2l39.5-18.8C309.2,243.3,309.3,241.1,307.8,240z M436.3,27.6
	L401.9,3.8c-9.7-6.7-23.1-4.2-29.8,5.5l-31.2,45l-9.7,14L250,185.9c-0.3,0.3-0.4,0.6-0.6,0.9c-0.6,1-0.9,2.2-1,3.4l-5.8,70.8
	c-0.1,2.5,0.9,4.9,2.7,6.3c1.9,1.3,4.5,1.3,6.9,0.3l4-1.9l5.8-70.8c0.1-1.3,0.6-2.8,1.3-4c0.1-0.1,0.1-0.1,0.3-0.3L336,85.7
	l11.5-16.5l17.6-25.5c0.7-1,2.1-1.3,3.1-0.6l43.2,29.8c1,0.7,1.3,2.2,0.6,3.3l-60.5,87.4l-14.9,21.6l-29.2,42.2
	c-0.7,1-0.4,2.5,0.6,3.3l7.6,5.2c1,0.6,1.9,0.4,2.7-0.6l18.3-26.4l14.9-21.5l90.2-130C448.4,47.7,446,34.3,436.3,27.6z M429.2,51.5
	l-6.7,9.5c-0.7,1.2-2.2,1.3-3.3,0.6l-43.1-29.8c-1-0.7-1.3-2.1-0.6-3.1l6.7-9.7c3-4.5,9.2-5.7,13.7-2.5l30.7,21.2
	C431.1,40.7,432.1,47,429.2,51.5z M318.9,235h0.1l0.6-0.9C319.3,234.4,319.1,234.7,318.9,235z"/>
<rect x="56.5" y="239" class="st0" width="156.4" height="14.4"/>
<rect x="56.5" y="264.3" class="st3" width="100.1" height="14.4"/>
<rect x="56.5" y="289.6" class="st0" width="134.5" height="14.4"/>
<rect x="56.5" y="315" class="st3" width="120.9" height="14.4"/>
<rect x="56.5" y="340.3" class="st0" width="152" height="14.4"/>
</svg>
