<?xml version="1.0" encoding="utf-8"?>
<!-- Generator: Adobe Illustrator 21.0.1, SVG Export Plug-In . SVG Version: 6.00 Build 0)  -->
<svg version="1.1" id="圖層_1" xmlns="http://www.w3.org/2000/svg" xmlns:xlink="http://www.w3.org/1999/xlink" x="0px" y="0px"
	 viewBox="0 0 541.8 519.8" style="enable-background:new 0 0 541.8 519.8;" xml:space="preserve">
<style type="text/css">
	.st0{fill:#5E5E8E;}
	
		.st1{fill:none;stroke:#5E5E8E;stroke-width:10;stroke-linecap:round;stroke-linejoin:round;stroke-miterlimit:10;enable-background:new    ;}
	.st2{fill:#5E5E8E;enable-background:new    ;}
	.st3{fill:#403D72;}
</style>
<path class="st0" d="M409.4,225.2v192.9c0,46-37.5,83.6-83.6,83.6H101.7c-46,0-83.6-37.5-83.6-83.6V165.6L151.7,31.8h174
	c34.6,0,64.4,21.2,77,51.3c2.9,6.7,4.7,13.8,5.8,21.2l14-20.1c-2-6.3-4.7-12.5-8-18.1c-17.4-31.2-50.8-52.4-88.8-52.4H147.9
	c-2.4,0-4.7,0.9-6.3,2.7L2.7,155.4c-1.8,1.6-2.7,4-2.7,6.3v256.3c0,56,45.7,101.7,101.7,101.7h224.1c56,0,101.7-45.7,101.7-101.7
	V198.9L409.4,225.2z"/>
<path class="st1" d="M149.6,59v49.9c0,29.9-24.5,54.4-54.4,54.4H46.8"/>
<g>
	<path class="st2" d="M141.5,390.9c-37.6,0-68.3-30.6-68.3-68.3c0-37.6,30.6-68.3,68.3-68.3s68.3,30.6,68.3,68.3
		C209.8,360.2,179.2,390.9,141.5,390.9z M141.5,262.6c-33.1,0-60,26.9-60,60s26.9,60,60,60s60-26.9,60-60S174.6,262.6,141.5,262.6z"
		/>
	<polygon class="st2" points="277.2,298.2 150,344.9 254.1,431.7 	"/>
	<path class="st2" d="M256.1,345.7H142.7c-2.3,0-4.1-1.8-4.1-4.1V228.2c0-2.3,1.8-4.1,4.1-4.1h113.4c2.3,0,4.1,1.8,4.1,4.1v113.4
		C260.2,343.8,258.4,345.7,256.1,345.7z M146.9,337.4H252V232.3H146.9V337.4z"/>
</g>
<path class="st3" d="M374.4,291.9l-43.7-30.3c-1.8-1.1-4.2,0-4.4,2.2l-0.7,7.6c0,0.9,0.4,1.8,1.3,2.5l23.2,16c1.8,1.3,1.6,4-0.4,4.9
	l-25.6,12.3c-0.9,0.4-1.5,1.3-1.6,2.2l-0.5,7.6c-0.2,2.2,2,3.6,4,2.7l48-22.8C376,295.9,376.2,293.2,374.4,291.9z M530.6,33.6
	l-41.9-29c-11.8-8.2-28.1-5.1-36.3,6.7L414.6,66l-11.8,17l-98.8,143c-0.4,0.4-0.5,0.7-0.7,1.1c-0.7,1.3-1.1,2.7-1.3,4.2l-7.1,86.1
	c-0.2,3.1,1.1,6,3.3,7.6c2.4,1.6,5.4,1.6,8.3,0.4l4.9-2.4l7.1-86.1c0.2-1.6,0.7-3.4,1.6-4.9c0.2-0.2,0.2-0.2,0.4-0.4l88.1-127.4
	l14-20.1l21.4-31c0.9-1.3,2.5-1.6,3.8-0.7l52.6,36.3c1.3,0.9,1.6,2.7,0.7,4l-73.6,106.2l-18.1,26.3l-35.5,51.3
	c-0.9,1.3-0.5,3.1,0.7,4l9.2,6.3c1.3,0.7,2.4,0.5,3.3-0.7l22.3-32.1l18.1-26.1L537.2,69.8C545.3,58.1,542.4,41.7,530.6,33.6z
	 M521.9,62.6l-8.2,11.6c-0.9,1.5-2.7,1.6-4,0.7l-52.4-36.3c-1.3-0.9-1.6-2.5-0.7-3.8l8.2-11.8c3.6-5.4,11.2-6.9,16.7-3.1l37.3,25.7
	C524.3,49.5,525.6,57.1,521.9,62.6z M387.8,285.8h0.2l0.7-1.1C388.3,285,388.1,285.4,387.8,285.8z"/>
</svg>
