<?xml version="1.0" encoding="utf-8"?>
<!-- Generator: Adobe Illustrator 21.0.1, SVG Export Plug-In . SVG Version: 6.00 Build 0)  -->
<svg version="1.1" id="圖層_1" xmlns="http://www.w3.org/2000/svg" xmlns:xlink="http://www.w3.org/1999/xlink" x="0px" y="0px"
	 viewBox="0 0 48 27" style="enable-background:new 0 0 48 27;" xml:space="preserve">
<style type="text/css">
	.st0{fill:#FFFFFF;}
	.st1{fill:#494949;}
</style>
<path class="st0" d="M41.4,27H6.6C3,27,0,24,0,20.4V6.6C0,3,3,0,6.6,0h34.7C45,0,48,3,48,6.6v13.7C48,24,45,27,41.4,27z"/>
<g>
	<g>
		<path class="st1" d="M23,19.8l-8.8-6.4c-0.6-0.4-0.7-1.2-0.3-1.8l0.8-1.1c0.4-0.6,1.2-0.7,1.8-0.3l6.5,4.7c0.5,0.3,1.1,0.3,1.5,0
			l6.5-4.7c0.6-0.4,1.4-0.3,1.8,0.3l0.8,1.1c0.4,0.6,0.3,1.4-0.3,1.8l-8.8,6.4C24.1,20.1,23.4,20.1,23,19.8z"/>
	</g>
</g>
</svg>
