<?xml version="1.0" encoding="utf-8"?>
<!-- Generator: Adobe Illustrator 21.0.1, SVG Export Plug-In . SVG Version: 6.00 Build 0)  -->
<svg version="1.1" id="圖層_1" xmlns="http://www.w3.org/2000/svg" xmlns:xlink="http://www.w3.org/1999/xlink" x="0px" y="0px"
	 viewBox="0 0 504 504" style="enable-background:new 0 0 504 504;" xml:space="preserve">
<style type="text/css">
	.st0{fill:#FFFFFF;}
</style>
<g>
	<path class="st0" d="M503,158c-0.1-22.6-2.5-44.8-10.1-66.3c-5.7-16.2-14-30.7-25.4-43.8c-20.2-23.3-46.1-36-75.4-42.6
		c-8.7-2-17.9-2.4-26.8-3.2C357.9,1.4,350.5,1.4,343,1c-0.7,0-1.4-0.6-2-1H163c-2,0.3-4,1-6,1c-23.3,0.2-46.1,2.8-68.1,11
		c-14.7,5.5-27.9,13.2-40,23.4C26.6,54.2,13.6,78.4,6.6,106.1c-2.4,9.6-3.4,19.7-4.5,29.6c-0.8,7-0.7,14.2-1.1,21.3
		c0,0.7-0.6,1.3-1,2v186c0.3,1.5,1,3,1,4.5c-0.1,23.8,3.5,47,12.1,69.2c4.9,12.5,11.8,23.9,20.3,34.4c11.2,13.8,24.7,24.6,40.3,32.6
		c13.9,7.2,28.8,12.1,44.4,14.2C131,501.5,144,502,157,503c0.7,0,1.3,0.6,2,1h186c2-0.3,4-0.9,6-1c29.4-0.5,57.6-5.4,83.6-20
		c12.7-7.1,23.6-16.3,33.3-27.2c13.1-14.8,21.7-31.8,27.3-50.5c3.9-12.9,6.4-26,6.8-39.5c0.2-7.6,0.6-15.2,1-22.8c0-0.7,0.6-1.3,1-2
		V164C503.7,162,503,160,503,158z M457.9,317.5c-0.1,15.7-0.5,31.5-2.1,47.1c-2,19.5-6.3,38.6-18.5,54.9
		c-11.8,15.8-27.1,26.2-46,31.5c-17.4,4.9-35.2,6-53.2,6.1c-53.4,0.2-106.9,1.1-160.3,0.7c-20.6-0.2-41.5-0.5-61.8-5.7
		c-35.2-9.1-57.9-33.6-65-69.1c-3.1-15.4-4-31-4-46.7c-0.2-52.8-1.1-105.5-0.7-158.3c0.1-19.5,2.1-39.2,5.1-58.4
		c2.3-14.7,9-28,19-39.7c15.4-17.8,35-27.1,57.8-29.8c15.2-1.8,30.6-2.8,45.9-3c48.8-0.7,97.5-1,146.3-1c14.5,0,29.1,0.8,43.6,2
		c15.2,1.3,30.1,4.5,43.8,11.3c13.9,7,25.1,17.5,33.3,30.8c8.5,13.9,12.8,29.2,14.1,45.4c0.8,9.7,1.7,19.4,2.5,29.1
		c0.1,0,0.3,0,0.4,0C458,215.6,458.2,266.5,457.9,317.5z"/>
	<path class="st0" d="M254.8,122.1c-76-1.4-130.7,58.4-132.8,125.1C119.7,324.4,180.8,382.2,252,382c72.7-0.1,128.5-58,129.9-126.5
		C383.4,179.1,323.6,123.4,254.8,122.1z M335.1,257.9c-3,42.9-38.5,78.2-83.7,77.6c-46.9-0.6-82.2-35.6-83-82.9
		c-0.8-44.5,35.7-84.3,83.6-83.6C295.2,167.4,338.7,206.4,335.1,257.9z"/>
	<path class="st0" d="M417.2,118.4c-0.4,14.8-13.6,31.1-30.8,29.6c-15.8,1.5-31.3-14-30.6-31.8c0.6-15.3,14.7-29.6,31.3-29.4
		C402.4,87,417.7,100.8,417.2,118.4z"/>
</g>
</svg>
