<?xml version="1.0" encoding="utf-8"?>
<!-- Generator: Adobe Illustrator 21.0.1, SVG Export Plug-In . SVG Version: 6.00 Build 0)  -->
<svg version="1.1" id="圖層_1" xmlns="http://www.w3.org/2000/svg" xmlns:xlink="http://www.w3.org/1999/xlink" x="0px" y="0px"
	 viewBox="0 0 143.3 143.3" style="enable-background:new 0 0 143.3 143.3;" xml:space="preserve">
<style type="text/css">
	.st0{fill:#FFFFFF;}
</style>
<g id="TYPE_A">
	<g>
		<path class="st0" d="M53,74.1v3.7c0,0.6-0.5,1-1,1H37.4c-0.3,0-0.5-0.1-0.7-0.3l0,0c0,0,0,0,0,0c-0.2-0.2-0.3-0.4-0.3-0.7V55.1
			c0-0.6,0.4-1,1-1H41c0.6,0,1,0.5,1,1v18H52C52.5,73.1,53,73.6,53,74.1z"/>
		<path class="st0" d="M61.8,55.1v22.7c0,0.6-0.5,1-1,1h-3.7c-0.6,0-1-0.5-1-1V55.1c0-0.6,0.5-1,1-1h3.7
			C61.4,54.1,61.8,54.5,61.8,55.1z"/>
		<path class="st0" d="M87,55.1v22.7c0,0.6-0.5,1-1,1h-3.7c-0.1,0-0.2,0-0.3,0c0,0,0,0,0,0c0,0,0,0-0.1,0c0,0,0,0,0,0c0,0,0,0,0,0
			c0,0,0,0,0,0c0,0,0,0,0,0c0,0,0,0-0.1,0c0,0,0,0,0,0c-0.1-0.1-0.2-0.1-0.2-0.2L71.1,64.3v13.5c0,0.6-0.5,1-1,1h-3.7
			c-0.6,0-1-0.5-1-1V55.1c0-0.6,0.5-1,1-1h3.8c0,0,0,0,0,0h0c0,0,0,0,0.1,0c0,0,0,0,0,0c0,0,0,0,0.1,0c0,0,0,0,0,0c0,0,0,0,0.1,0
			c0,0,0,0,0,0c0,0,0,0,0.1,0c0,0,0,0,0,0s0,0,0,0c0,0,0,0,0,0c0,0,0,0,0.1,0.1c0,0,0,0,0,0l0.1,0.1c0,0,0,0,0,0c0,0,0,0.1,0.1,0.1
			l10.4,14.1V55.1c0-0.6,0.5-1,1-1H86C86.6,54.1,87,54.5,87,55.1z"/>
		<path class="st0" d="M107.2,55.1v3.7c0,0.6-0.5,1-1,1h-9.9v3.8h9.9c0.6,0,1,0.5,1,1v3.7c0,0.6-0.5,1-1,1h-9.9v3.8h9.9
			c0.6,0,1,0.5,1,1v3.7c0,0.6-0.5,1-1,1H91.6c-0.3,0-0.5-0.1-0.7-0.3l0,0c0,0,0,0,0,0c-0.2-0.2-0.3-0.4-0.3-0.7V55.1
			c0-0.3,0.1-0.5,0.3-0.7c0,0,0,0,0,0c0,0,0,0,0,0c0.2-0.2,0.4-0.3,0.7-0.3h14.6C106.8,54.1,107.2,54.5,107.2,55.1z"/>
		<path class="st0" d="M117.4,0H26.1C11.8,0,0,11.6,0,25.9v91.2c0,14.3,11.6,26.1,25.9,26.1h91.2c14.3,0,26.1-11.6,26.1-25.9V26.1
			C143.3,11.8,131.7,0,117.4,0z M112.4,91.4L112.4,91.4c-10.9,12.6-35.4,27.9-41,30.3c-5.6,2.3-4.8-1.5-4.5-2.8
			c0.1-0.8,0.8-4.5,0.8-4.5c0.2-1.3,0.4-3.4-0.2-4.7c-0.6-1.5-2.9-2.2-4.6-2.6c-25.1-3.3-43.6-20.8-43.6-41.8
			C19.2,42,42.6,23,71.4,23s52.2,19,52.2,42.3C123.6,74.7,119.9,83.1,112.4,91.4z"/>
		<path class="st0" d="M53,74.1v3.7c0,0.6-0.5,1-1,1H37.4c-0.3,0-0.5-0.1-0.7-0.3l0,0c0,0,0,0,0,0c-0.2-0.2-0.3-0.4-0.3-0.7V55.1
			c0-0.6,0.4-1,1-1H41c0.6,0,1,0.5,1,1v18H52C52.5,73.1,53,73.6,53,74.1z"/>
		<path class="st0" d="M61.8,55.1v22.7c0,0.6-0.5,1-1,1h-3.7c-0.6,0-1-0.5-1-1V55.1c0-0.6,0.5-1,1-1h3.7
			C61.4,54.1,61.8,54.5,61.8,55.1z"/>
		<path class="st0" d="M87,55.1v22.7c0,0.6-0.5,1-1,1h-3.7c-0.1,0-0.2,0-0.3,0c0,0,0,0,0,0c0,0,0,0-0.1,0c0,0,0,0,0,0c0,0,0,0,0,0
			c0,0,0,0,0,0c0,0,0,0,0,0c0,0,0,0-0.1,0c0,0,0,0,0,0c-0.1-0.1-0.2-0.1-0.2-0.2L71.1,64.3v13.5c0,0.6-0.5,1-1,1h-3.7
			c-0.6,0-1-0.5-1-1V55.1c0-0.6,0.5-1,1-1h3.8c0,0,0,0,0,0h0c0,0,0,0,0.1,0c0,0,0,0,0,0c0,0,0,0,0.1,0c0,0,0,0,0,0c0,0,0,0,0.1,0
			c0,0,0,0,0,0c0,0,0,0,0.1,0c0,0,0,0,0,0s0,0,0,0c0,0,0,0,0,0c0,0,0,0,0.1,0.1c0,0,0,0,0,0l0.1,0.1c0,0,0,0,0,0c0,0,0,0.1,0.1,0.1
			l10.4,14.1V55.1c0-0.6,0.5-1,1-1H86C86.6,54.1,87,54.5,87,55.1z"/>
		<path class="st0" d="M96.3,59.8v3.8h9.9c0.6,0,1,0.5,1,1v3.7c0,0.6-0.5,1-1,1h-9.9v3.8h9.9c0.6,0,1,0.5,1,1v3.7c0,0.6-0.5,1-1,1
			H91.6c-0.3,0-0.5-0.1-0.7-0.3l0,0c0,0,0,0,0,0c-0.2-0.2-0.3-0.4-0.3-0.7V55.1c0-0.3,0.1-0.5,0.3-0.7c0,0,0,0,0,0c0,0,0,0,0,0
			c0.2-0.2,0.4-0.3,0.7-0.3h14.6c0.6,0,1,0.5,1,1v3.7c0,0.6-0.5,1-1,1H96.3z"/>
		<g>
			<path class="st0" d="M61.8,55.1v22.7c0,0.6-0.5,1-1,1h-3.7c-0.6,0-1-0.5-1-1V55.1c0-0.6,0.5-1,1-1h3.7
				C61.4,54.1,61.8,54.5,61.8,55.1z"/>
			<path class="st0" d="M87,55.1v22.7c0,0.6-0.5,1-1,1h-3.7c-0.1,0-0.2,0-0.3,0c0,0,0,0,0,0c0,0,0,0-0.1,0c0,0,0,0,0,0c0,0,0,0,0,0
				c0,0,0,0,0,0c0,0,0,0,0,0c0,0,0,0-0.1,0c0,0,0,0,0,0c-0.1-0.1-0.2-0.1-0.2-0.2L71.1,64.3v13.5c0,0.6-0.5,1-1,1h-3.7
				c-0.6,0-1-0.5-1-1V55.1c0-0.6,0.5-1,1-1h3.8c0,0,0,0,0,0h0c0,0,0,0,0.1,0c0,0,0,0,0,0c0,0,0,0,0.1,0c0,0,0,0,0,0c0,0,0,0,0.1,0
				c0,0,0,0,0,0c0,0,0,0,0.1,0c0,0,0,0,0,0s0,0,0,0c0,0,0,0,0,0c0,0,0,0,0.1,0.1c0,0,0,0,0,0l0.1,0.1c0,0,0,0,0,0c0,0,0,0.1,0.1,0.1
				l10.4,14.1V55.1c0-0.6,0.5-1,1-1H86C86.6,54.1,87,54.5,87,55.1z"/>
			<path class="st0" d="M53,74.1v3.7c0,0.6-0.5,1-1,1H37.4c-0.3,0-0.5-0.1-0.7-0.3l0,0c0,0,0,0,0,0c-0.2-0.2-0.3-0.4-0.3-0.7V55.1
				c0-0.6,0.4-1,1-1H41c0.6,0,1,0.5,1,1v18H52C52.5,73.1,53,73.6,53,74.1z"/>
			<path class="st0" d="M96.3,59.8v3.8h9.9c0.6,0,1,0.5,1,1v3.7c0,0.6-0.5,1-1,1h-9.9v3.8h9.9c0.6,0,1,0.5,1,1v3.7c0,0.6-0.5,1-1,1
				H91.6c-0.3,0-0.5-0.1-0.7-0.3l0,0c0,0,0,0,0,0c-0.2-0.2-0.3-0.4-0.3-0.7V55.1c0-0.3,0.1-0.5,0.3-0.7c0,0,0,0,0,0c0,0,0,0,0,0
				c0.2-0.2,0.4-0.3,0.7-0.3h14.6c0.6,0,1,0.5,1,1v3.7c0,0.6-0.5,1-1,1H96.3z"/>
		</g>
	</g>
</g>
</svg>
