<?xml version="1.0" encoding="utf-8"?>
<!-- Generator: Adobe Illustrator 21.0.1, SVG Export Plug-In . SVG Version: 6.00 Build 0)  -->
<svg version="1.1" id="圖層_1" xmlns="http://www.w3.org/2000/svg" xmlns:xlink="http://www.w3.org/1999/xlink" x="0px" y="0px"
	 viewBox="0 0 93.9 91.5" style="enable-background:new 0 0 93.9 91.5;" xml:space="preserve">
<style type="text/css">
	.st0{fill:#D1C5D3;}
</style>
<path class="st0" d="M25.8,55.5c3.5,0.3,5.3-1.1,5.3-4.2c0-0.6,0.1-1,0.3-1.2c0.2-0.2,0.6-0.2,0.8,0c0.2,0.3,0.3,0.9,0.3,1.8v6.4
	c0,1-0.4,1.5-1.1,1.8c-0.5,0.2-0.8,0.7-0.8,1.2l0,0c0,0.5,0.4,1,0.9,1.1c0.7,0.2,1.1,0.9,1.1,1.9v14.1c0,0,0,0.1,0,0.1
	c-0.4,2.3,0.4,3.9,2.3,4.6c0,0,0,0,0.1,0c2.6,0.7,4.5-0.2,5.5-2.5c0-0.1,0-0.1,0-0.2V64.2c0-1.3,0.7-1.9,2-1.9h4.5c0,0,0.1,0,0.1,0
	c1.7,0.3,2.7,0,3.1-0.8c0.1-0.1,0.1-0.3,0-0.4c-0.1-0.3-0.4-0.9-0.8-1.8c-0.3-0.5-0.6-1-1-1.6c0,0,0,0,0-0.1c-1-1-1.7-1.7-2.2-1.9
	c-0.2-0.1-0.4-0.1-0.6,0c-0.4,0.3-1.1,1.1-2.2,2.3c0,0,0,0,0,0c-0.9,0.9-1.5,1.5-2,1.8c-0.3,0.2-0.7,0.1-0.8-0.3
	c-0.1-0.3-0.1-0.9-0.1-1.5v-6.3c0-0.6,0-1.1,0.1-1.4c0.1-0.5,0.8-0.5,1,0c0.1,0.3,0.1,0.7,0.1,1.3c-0.1,2.9,1.2,4,3.9,3.5
	c3-0.4,4.2-2.1,3.7-5c0,0,0-0.1,0-0.1V32.8c-0.3-1.3,0.1-2.1,1.2-2.5c0,0,0.1,0,0.1-0.1c1.5-1,1-2.1-1.4-3.2c0,0-0.1,0-0.1,0
	c-1-0.8-2.1-1.4-3.1-1.8c0,0,0,0,0,0c-1.7-0.6-3.1-0.5-4,0.3c0,0,0,0-0.1,0.1c-0.5,0.5-0.9,0.9-1.2,1.1c-0.3,0.2-0.7,0.1-0.8-0.3
	c-0.1-0.3-0.1-0.9-0.1-1.5v-4.1c0-1,0.4-1.5,1.1-1.8c0.5-0.2,0.8-0.6,0.8-1.1l0-0.1c0-0.5-0.4-0.9-0.8-1.1c-0.7-0.2-1.1-0.9-1.1-1.9
	v-2c0-0.9,0-1.6,0.1-1.9c0-0.2,0.2-0.3,0.3-0.4c0.4-0.1,0.8-0.4,1.3-0.7c0.1,0,0.1-0.1,0.2-0.2c0.6-1.3,0-2-1.9-2.2c0,0,0,0,0,0
	C37.9,7,36,6.7,34.1,6.5c-1.4-0.1-2.1,0.8-2.1,2.7v5.4c0,1.1-0.5,1.8-1.5,1.9c-0.2,0-0.4,0.2-0.4,0.4l-0.3,1.3
	c-0.1,0.3,0.1,0.6,0.5,0.6c1.2,0.1,1.8,0.7,1.8,1.8v4.2c0,0,0,0.1,0,0.1c0.4,2-0.8,2.3-3.7,0.8c-0.7-0.4-1.5-0.6-2.2-0.8
	c-1.6-0.4-2.5,0.2-2.5,2v24.6c0,0,0,0.1,0,0.1C23.1,54,23.8,55.3,25.8,55.5z M31.1,41.6c0-1,0.4-1.5,1.1-1.8
	c0.5-0.2,0.8-0.6,0.8-1.1l0-0.1c0-0.5-0.4-0.9-0.8-1.1c-0.7-0.2-1.1-0.9-1.1-1.9v-4.5c0-1.3,0.8-2,2.3-2.2c0,0,0.1,0,0.1,0h5.6
	c1.7-0.1,2.5,0.6,2.5,2v4.8c0,0.9-0.3,1.5-1,1.8c-0.5,0.2-0.9,0.7-0.8,1.3c0.1,0.5,0.4,0.9,0.8,1c0.7,0.2,1.1,0.9,1.1,2v4.1
	c0,1.3-0.7,1.9-2,1.9h-6.7c-1.3,0-1.9-0.7-1.9-2V41.6z M0.6,7.4C0.3,7.1,0.6,6.6,1,6.6c0.6,0,1.5,0.2,2.6,0.5C5.9,7.7,8,8.9,10,10.6
	c0,0,0,0,0,0c2.8,2.7,3.8,5.3,3,7.8c0,0,0,0,0,0.1c-0.9,2-1.9,2.9-3.2,2.9c0,0-0.1,0-0.1,0C8,21.8,6.7,21,5.6,19
	c0-0.1-0.1-0.1-0.1-0.2c-0.3-3.4-1.4-6.6-3.1-9.4c0,0,0-0.1-0.1-0.1C1.5,8.5,0.9,7.9,0.6,7.4z M43.6,14.2c0.7-0.4,1.4-0.9,2.1-1.7
	c1.5-1.7,3.1-1.7,5,0.1c0,0,0,0,0,0c1.4,1.6,1.9,2.9,1.5,3.8c-0.1,0.1-0.2,0.2-0.3,0.3c-0.4,0.1-1.2,0.1-2.5,0.1c0,0-3.4,0.5-4.3,0
	C44.5,16.4,43.4,14.9,43.6,14.2z M52.9,80.6c0.5,0.1,1.2-0.1,2.2-0.7c0,0,0,0,0.1,0c3.1-1.3,6.2-3.5,9.5-6.4
	c1.4-1.4,2.1-1.5,2.1-0.1c0.1,2.4,0,4.7-0.1,7.1c0,0.1,0,0.2-0.1,0.3c-0.7,0.9-2,1.4-3.8,1.3c0,0,0,0-0.1,0
	c-1.7-0.3-2.8-0.1-3.1,0.6c-0.1,0.2,0,0.5,0.2,0.7c0.4,0.2,1.2,0.5,2.4,0.9c1.4,0.3,2.5,1.4,3.4,3.1c0,0,0,0.1,0,0.1
	c0.4,1.6,1.4,2.3,3,2.2c3-0.4,4.9-2.1,5.6-5c0.3-1.1,0.4-2.9,0.3-5.5c0-1.3,0.6-2.3,1.9-3.1c0,0,0,0,0,0l3.5-2.6c0,0,0,0,0,0
	c1.6-1.4,2.4-1.4,2.4-0.1v5.2c0,0,0,0.1,0,0.1c0.5,2.2-0.4,3.4-2.8,3.4c0,0,0,0,0,0c-1.2,0.1-2,0.3-2.5,0.5
	c-0.2,0.1-0.3,0.3-0.3,0.6c0,0,0,0.1,0,0.1c0.1,0.1,0.2,0.2,0.3,0.3c2.3,0.8,3.7,2.1,4.4,3.9c0,0,0,0.1,0,0.1c0.2,1.6,1.3,2.3,3.3,2
	c0,0,0.1,0,0.1,0c3.2-0.9,4.9-3,5.2-6.4c0,0,0,0,0,0V51c0,0,0-0.1,0-0.1c-0.3-1.4,0.1-2.4,1.2-2.8c1.6-0.7,2-1.6,1.1-2.6
	c-1.1-1.2-2.9-2.5-5.5-3.9c0,0,0,0-0.1,0c-1.9-1.4-3.2-0.9-4,1.4c0,0,0,0,0,0.1c-0.7,1.4-1.6,1.9-2.8,1.4c-0.1,0-0.1,0-0.2,0
	c-1.2-0.1-2.4-0.2-3.5-0.2c-0.1,0-0.1,0-0.2,0.1c-0.3,0.1-1-0.2-2.1-0.9c-1.2-0.8-2.3-1.5-3.4-2c0,0-0.1,0-0.1-0.1
	c-0.6-0.5-1.2-0.6-1.7-0.3c-0.1,0-0.1,0.1-0.2,0.2c-0.8,1-1.5,2-2.2,3c0,0.1-0.1,0.1-0.2,0.2c-0.1,0-0.2,0.1-0.3,0.1
	c-1.1,0.3-2,1.2-2.1,2.4c0,0,0.1,0,0.1,0c2.8-1,2.8-0.2,1.8,1.9c0,0,0,0.1,0,0.1c-1.2,4.3-3,8.1-5.6,11.5c0,0,0,0,0,0
	c-0.7,0.8-1.2,1.4-1.5,1.8c-0.2,0.4,0.1,0.9,0.6,0.8c1.7-0.4,3.5-1.5,5.4-3.2c1.4-1.4,2.1-1.5,2.1-0.2c0.3,1.1-0.4,2.8-2,5.1
	c0,0,0,0,0,0c-2.2,4.1-5.6,8.5-10.2,13.2c-0.9,0.9-1.5,1.5-1.9,1.9C52.4,80.1,52.5,80.5,52.9,80.6z M82.3,59.7
	c0.2,1.3-0.6,3.5-2.4,6.7c-1.1,1.9-2.3,3.7-3.6,5.5c-1.2,1.7-1.8,1.9-1.8,0.5v-7.5c0-1.3,0.6-2.2,1.9-2.9c1.2-0.7,2.4-1.5,3.6-2.4
	c0,0,0,0,0,0C81.5,58.3,82.3,58.3,82.3,59.7C82.3,59.7,82.3,59.7,82.3,59.7z M74.7,49c0-0.1,0.1-0.3,0.2-0.4c1.4-1.2,3-1.7,4.7-1.7
	c0,0,0,0,0.1,0c1.1-0.1,1.9-0.1,2.3,0.1c0.2,0.1,0.3,0.2,0.3,0.4c0,0.5-0.2,1.3-0.7,2.4c-1.5,3.4-3.1,6.1-4.8,8.2c0,0,0,0,0,0
	c-1.4,1.5-2.1,1.6-2.1,0.3C74.5,55.2,74.5,52.1,74.7,49z M0.1,39c-0.2-0.3-0.1-0.7,0.2-0.8c0,0,0,0,0,0c0.1,0,0.2,0,0.3,0
	c3.9,1.4,7,3.6,9.1,6.6c0,0,0,0,0,0.1c0.7,1.2,1.3,1.1,1.7-0.5l1.6-5.6c0.3-1.2,0.6-2,1-2.5c0.3-0.4,0.9-0.2,0.9,0.3
	c0,0.5,0,1.1-0.1,1.9c-1.1,8.4-2.1,16.9-3.1,25.5c0,0,0,0,0,0.1c-0.9,4-0.5,8.7,1.3,13.9c0,0,0,0,0,0c0.6,1.4,1.1,3.2,1.3,5.4
	c0.4,3.4-0.5,5.9-2.6,7.6c0,0-0.1,0.1-0.1,0.1c-3.9,1.5-6.2-0.5-6.9-5.8c0,0,0,0,0,0c-0.1-1.4,0.1-3.7,0.7-6.9c0,0,0,0,0,0
	c0.3-2.6,0.2-4.7-0.1-6.4c-0.3-1.2-1.3-2.3-3.2-3.2c-0.1,0-0.1,0-0.2-0.1c-1-0.1-1.6-0.4-1.8-1c-0.2-0.3,0.1-0.7,0.4-0.7
	c0.5,0,1.2,0,2.2,0c0,0,0.1,0,0.1,0c0.7,0.2,1.4,0,2.1-0.6c0.1-0.1,0.1-0.1,0.1-0.2c1.1-3.4,2.1-6.8,3-10.2c0.3-1.3,0.1-1.8-0.8-1.7
	c-2.3,0.3-3.7-1-4.3-3.9c0,0,0-0.1,0-0.2C3.6,45.9,2.6,42.2,0.1,39z M58.9,25.7c0-0.3,0.1-0.6,0.3-0.9c5.2-7.5,8.1-14.9,8.7-22.4
	c0,0,0-0.1,0-0.1c-0.3-2.1,0.8-2.8,3.1-1.9c0,0,0.1,0,0.1,0c1.5,0.2,3,0.5,4.6,0.9c0,0,0.1,0,0.1,0c1.6,0.7,2.4,1.1,2.4,1.4
	C78.4,3.4,78,3.8,77,4c0,0-0.1,0-0.1,0.1c-1.6,0.8-1.6,2.1,0,3.7c0,0,0,0,0.1,0.1c3.8,5.6,8.8,9.7,15.1,12.4
	c0.7,0.3,1.3,0.6,1.7,0.9c0.4,0.2,0.3,0.8-0.1,0.9c-0.4,0.2-1.1,0.4-1.9,0.6c0,0-0.1,0-0.1,0.1c-1.3,0.7-2.5,1.8-3.6,3.2
	c0,0-0.1,0.1-0.1,0.1c-0.3,0.7-0.6,1.2-0.8,1.5c-0.1,0.2-0.4,0.2-0.6,0.2c-0.5-0.2-1.3-0.7-2.4-1.5c0,0,0,0-0.1,0
	c-4.2-3.8-7.3-8.8-9.1-15c-0.4-1.5-0.9-1.6-1.5-0.4c-3.1,6.4-7.1,11.7-12.1,16C60.4,27.4,59,26.9,58.9,25.7z"/>
</svg>
