<?xml version="1.0" encoding="utf-8"?>
<!-- Generator: Adobe Illustrator 21.0.1, SVG Export Plug-In . SVG Version: 6.00 Build 0)  -->
<svg version="1.1" id="圖層_1" xmlns="http://www.w3.org/2000/svg" xmlns:xlink="http://www.w3.org/1999/xlink" x="0px" y="0px"
	 viewBox="0 0 460.9 442.2" style="enable-background:new 0 0 460.9 442.2;" xml:space="preserve">
<style type="text/css">
	.st0{fill:#5E5E8E;}
	
		.st1{fill:none;stroke:#5E5E8E;stroke-width:10;stroke-linecap:round;stroke-linejoin:round;stroke-miterlimit:10;enable-background:new    ;}
	.st2{fill:#403D72;}
</style>
<path class="st0" d="M348.3,191.6v164.1c0,39.2-31.9,71.1-71.1,71.1H86.5c-39.2,0-71.1-31.9-71.1-71.1V140.9L129.1,27h148.1
	c29.5,0,54.8,18,65.6,43.6c2.5,5.7,4,11.7,4.9,18l11.9-17.1c-1.7-5.4-4-10.6-6.8-15.4c-14.8-26.5-43.2-44.6-75.6-44.6H125.9
	c-2,0-4,0.8-5.4,2.3L2.3,132.2c-1.5,1.4-2.3,3.4-2.3,5.4v218.1c0,47.7,38.9,86.5,86.5,86.5h190.6c47.7,0,86.5-38.9,86.5-86.5V169.2
	L348.3,191.6z"/>
<path class="st1" d="M127.2,50.2v42.4c0,25.4-20.8,46.3-46.3,46.3H39.8"/>
<path class="st2" d="M318.5,248.4l-37.2-25.8c-1.5-0.9-3.5,0-3.7,1.9l-0.6,6.5c0,0.8,0.3,1.5,1.1,2.2l19.7,13.6
	c1.5,1.1,1.4,3.4-0.3,4.2l-21.7,10.5c-0.8,0.3-1.2,1.1-1.4,1.9l-0.5,6.5c-0.2,1.9,1.7,3.1,3.4,2.3l40.9-19.4
	C319.9,251.7,320,249.4,318.5,248.4z M451.5,28.6L415.8,3.9c-10-6.9-23.9-4.3-30.8,5.7l-32.2,46.6l-10,14.5l-84.1,121.7
	c-0.3,0.3-0.5,0.6-0.6,0.9c-0.6,1.1-0.9,2.3-1.1,3.5l-6,73.3c-0.2,2.6,0.9,5.1,2.8,6.5c2,1.4,4.6,1.4,7.1,0.3l4.2-2l6-73.3
	c0.2-1.4,0.6-2.9,1.4-4.2c0.2-0.2,0.2-0.2,0.3-0.3l75-108.4l11.9-17.1l18.2-26.4c0.8-1.1,2.2-1.4,3.2-0.6l44.7,30.8
	c1.1,0.8,1.4,2.3,0.6,3.4l-62.6,90.4l-15.4,22.4L318,235.2c-0.8,1.1-0.5,2.6,0.6,3.4l7.9,5.4c1.1,0.6,2,0.5,2.8-0.6l19-27.3
	l15.4-22.2L457,59.4C463.9,49.4,461.5,35.5,451.5,28.6z M444,53.2l-6.9,9.9c-0.8,1.2-2.3,1.4-3.4,0.6l-44.6-30.8
	c-1.1-0.8-1.4-2.2-0.6-3.2l6.9-10c3.1-4.6,9.6-5.9,14.2-2.6l31.8,21.9C446.1,42.1,447.1,48.6,444,53.2z M329.9,243.1h0.2l0.6-0.9
	C330.4,242.5,330.2,242.8,329.9,243.1z"/>
<path class="st0" d="M48.2,254.4v120h175.5v-120H48.2z M213.7,368.1H58.2V260.8h155.5V368.1z M62,264.6v99.6h47.5l0.2-16.5
	c0-12,8.2-22.1,19.1-25c2.3-0.6,4.6-0.9,6.9-0.9h0.5c2.3,0,4.5,0.3,6.6,0.9c11.1,2.9,19.4,13.1,19.3,25.1v16.3h47.7v-99.6H62z
	 M147.9,320c-3.5-1.5-7.6-2.5-11.7-2.5h-0.5c-4.2,0-8.3,0.9-11.9,2.5c-4.9-3.7-8.2-9.6-8.2-16.2c0.2-11.1,9.1-20.1,20.2-20.1
	c11.1,0.2,20.1,9.1,20.1,20.2C156,310.4,152.7,316.3,147.9,320z"/>
</svg>
