<?xml version="1.0" encoding="utf-8"?>
<!-- Generator: Adobe Illustrator 21.0.1, SVG Export Plug-In . SVG Version: 6.00 Build 0)  -->
<svg version="1.1" id="圖層_1" xmlns="http://www.w3.org/2000/svg" xmlns:xlink="http://www.w3.org/1999/xlink" x="0px" y="0px"
	 viewBox="0 0 453.4 435" style="enable-background:new 0 0 453.4 435;" xml:space="preserve">
<style type="text/css">
	.st0{fill:#5E5E8E;}
	
		.st1{fill:none;stroke:#5E5E8E;stroke-width:10;stroke-linecap:round;stroke-linejoin:round;stroke-miterlimit:10;enable-background:new    ;}
	.st2{fill:#403D72;}
</style>
<path class="st0" d="M342.6,188.5v161.4c0,38.5-31.4,69.9-69.9,69.9H85.1c-38.5,0-69.9-31.4-69.9-69.9V138.6L127,26.6h145.7
	c29,0,53.9,17.8,64.5,42.9c2.4,5.6,3.9,11.5,4.9,17.8l11.7-16.8c-1.7-5.3-3.9-10.5-6.7-15.2c-14.6-26.1-42.5-43.8-74.3-43.8H123.8
	c-2,0-3.9,0.8-5.3,2.3L2.3,130.1c-1.5,1.4-2.3,3.3-2.3,5.3v214.5C0,396.8,38.2,435,85.1,435h187.5c46.9,0,85.1-38.2,85.1-85.1V166.5
	L342.6,188.5z"/>
<path class="st1" d="M125.2,49.3v41.7c0,25-20.5,45.5-45.5,45.5H39.1"/>
<path class="st2" d="M313.3,244.3L276.7,219c-1.5-0.9-3.5,0-3.6,1.8l-0.6,6.4c0,0.8,0.3,1.5,1.1,2.1l19.4,13.4
	c1.5,1.1,1.4,3.3-0.3,4.1l-21.4,10.3c-0.8,0.3-1.2,1.1-1.4,1.8l-0.5,6.4c-0.2,1.8,1.7,3,3.3,2.3l40.2-19.1
	C314.7,247.6,314.8,245.4,313.3,244.3z M444.1,28.1L409,3.8c-9.9-6.8-23.5-4.2-30.3,5.6L347,55.3l-9.9,14.3l-82.7,119.7
	c-0.3,0.3-0.5,0.6-0.6,0.9c-0.6,1.1-0.9,2.3-1.1,3.5l-5.9,72.1c-0.2,2.6,0.9,5,2.7,6.4c2,1.4,4.6,1.4,7,0.3l4.1-2l5.9-72.1
	c0.2-1.4,0.6-2.9,1.4-4.1c0.2-0.2,0.2-0.2,0.3-0.3L342,87.3l11.7-16.8l17.9-25.9c0.8-1.1,2.1-1.4,3.2-0.6l44,30.3
	c1.1,0.8,1.4,2.3,0.6,3.3l-61.6,88.9l-15.2,22l-29.7,42.9c-0.8,1.1-0.5,2.6,0.6,3.3l7.7,5.3c1.1,0.6,2,0.5,2.7-0.6l18.7-26.9
	l15.2-21.8l91.8-132.3C456.4,48.6,454,34.9,444.1,28.1z M436.8,52.4l-6.8,9.7c-0.8,1.2-2.3,1.4-3.3,0.6l-43.8-30.3
	c-1.1-0.8-1.4-2.1-0.6-3.2l6.8-9.9c3-4.6,9.4-5.8,14-2.6l31.3,21.5C438.8,41.5,439.8,47.8,436.8,52.4z M324.5,239.1h0.2l0.6-0.9
	C325,238.5,324.8,238.8,324.5,239.1z"/>
<g>
	<path class="st0" d="M189.3,273.2h-11v18.1h11.2v0.7h-11.2v46.3h10.1v0.7h-10.1v27h-0.7v-27h-18.1v27h-1.1v-27h-53.2v27H104v-27
		H85.9v27h-0.7v-27H73.2v-0.7h11.9v-46.3H73.2v-0.7h11.9v-18.1H71.2v-1.1h13.9v-46H71.2v-1.1h13.9v-24.8h0.7v24.8H104v-24.8h1.1
		v24.8h53.2v-24.8h1.1v24.8h18.1v-24.8h0.7v24.8h10v1.1h-10v46h11V273.2z M85.9,237.2l18.1-10.5v-0.5h-0.9l-17.2,9.8V237.2z
		 M85.9,235l15.6-8.9h-2.3l-13.2,7.6V235z M85.9,232.7l11.6-6.5h-2.2l-9.4,5.2V232.7z M85.9,230.5l7.8-4.3h-2.3l-5.4,3.1V230.5z
		 M85.9,228.2l3.8-2h-2.4l-1.4,0.7V228.2z M85.9,239.6l18.1-10.5v-1.3l-18.1,10.5V239.6z M85.9,241.7l18.1-10.5V230l-18.1,10.5
		V241.7z M85.9,244.1l18.1-10.5v-1.3l-18.1,10.5V244.1z M85.9,246.3l18.1-10.5v-1.3L85.9,245V246.3z M85.9,248.6l18.1-10.5v-1.3
		l-18.1,10.5V248.6z M85.9,250.8l18.1-10.5V239l-18.1,10.5V250.8z M85.9,253.1l18.1-10.5v-1.3l-18.1,10.5V253.1z M85.9,255.3
		l18.1-10.5v-1.3L85.9,254V255.3z M85.9,257.7l18.1-10.5v-1.3l-18.1,10.5V257.7z M85.9,259.8l18.1-10.5v-1.3l-18.1,10.5V259.8z
		 M85.9,262.2l18.1-10.5v-1.3l-18.1,10.5V262.2z M85.9,264.4l18.1-10.5v-1.3l-18.1,10.5V264.4z M85.9,266.7l18.1-10.5V255
		l-18.1,10.5V266.7z M85.9,268.9l18.1-10.5v-1.3l-18.1,10.5V268.9z M85.9,271.2l18.1-10.5v-1.3L85.9,270V271.2z M88.1,272.1
		l15.9-9.2v-1.3l-18.1,10.5H88.1z M85.9,284.8l18.1-10.5v-1.1h-0.2l-17.9,10.3V284.8z M85.9,282.5l16.3-9.2h-2.4l-13.9,8V282.5z
		 M85.9,280.3l12.5-7.1H96L85.9,279V280.3z M85.9,277.9l8.5-4.7H92l-6.1,3.4V277.9z M85.9,275.8l4.5-2.5h-2.2l-2.3,1.3V275.8z
		 M86.6,273.2h-0.7v0.2L86.6,273.2z M85.9,287l18.1-10.5v-1.3l-18.1,10.5V287z M85.9,289.3l18.1-10.5v-1.3l-18.1,10.5V289.3z
		 M85.9,291.3h0.7L104,281v-1.3l-18.1,10.5V291.3z M85.9,301.7v1.3l18.1-10.5v-0.4h-1.8L85.9,301.7z M85.9,299.3v1.3l14.7-8.5h-2.2
		L85.9,299.3z M85.9,297.1v1.3l10.9-6.3h-2.4L85.9,297.1z M85.9,294.8v1.3l6.9-4h-2.2L85.9,294.8z M85.9,292.6v1.3l3.1-1.8h-2.4
		L85.9,292.6z M104,294.6v-1.3l-18.1,10.5v1.3L104,294.6z M104,296.9v-1.3l-18.1,10.5v1.3L104,296.9z M104,299.1v-1.3l-18.1,10.5
		v1.3L104,299.1z M104,301.5v-1.3l-18.1,10.5v1.3L104,301.5z M104,303.7v-1.3l-18.1,10.5v1.3L104,303.7z M104,306v-1.3l-18.1,10.5
		v1.3L104,306z M104,308.2v-1.3l-18.1,10.5v1.3L104,308.2z M104,310.5v-1.3l-18.1,10.5v1.3L104,310.5z M104,312.7v-1.3l-18.1,10.5
		v1.3L104,312.7z M104,315.1v-1.3l-18.1,10.5v1.3L104,315.1z M104,317.2V316l-18.1,10.5v1.3L104,317.2z M104,319.6v-1.3l-18.1,10.5
		v1.3L104,319.6z M104,321.7v-1.3L85.9,331v1.3L104,321.7z M104,324.1v-1.3l-18.1,10.5v1.3L104,324.1z M104,326.3V325l-18.1,10.5
		v1.3L104,326.3z M104,328.6v-1.3l-18.1,10.5v0.5h1.4L104,328.6z M90.4,291.3l13.6-8v-1.3l-15.8,9.2H90.4z M104,330.8v-1.3l-15,8.9
		h2.4L104,330.8z M92,272.1l11.9-6.9V264l-14.3,8.1H92z M94.4,291.3l9.6-5.8v-1.3L92,291.3H94.4z M104,333.2v-1.3l-11,6.5h2.2
		L104,333.2z M96,272.1l8-4.7v-1.3l-10.3,6H96z M98.4,291.3l5.6-3.4v-1.3l-8,4.7H98.4z M104,335.3v-1.3l-7.2,4.4h2.4L104,335.3z
		 M99.8,272.1l4.2-2.3v-1.3l-6.3,3.6H99.8z M102.2,291.3l1.8-1.3v-1.3l-4.2,2.5H102.2z M104,337.7v-1.3l-3.3,2h2.2L104,337.7z
		 M103.8,272.1l0.2-0.2v-1.3l-2.5,1.4H103.8z M104,291.3v-0.2l-0.2,0.2H104z M105.1,272.1h53.2v-46h-53.2V272.1z M105.1,291.3h1.1
		l31.1-18.1h-2.2l-30.1,17.4V291.3z M105.1,289.7l28.4-16.5h-2.4l-26.1,15V289.7z M105.1,287.4l24.4-14.1h-2.2l-22.3,12.8V287.4z
		 M105.1,285.2l20.6-11.9h-2.4l-18.3,10.5V285.2z M105.1,282.8l16.7-9.6h-2.3l-14.3,8.3V282.8z M105.1,280.7l12.7-7.4h-2.2l-10.5,6
		V280.7z M105.1,278.3l8.9-5.1h-2.3l-6.5,3.8V278.3z M105.1,276.1l4.9-2.9h-2.2l-2.7,1.5V276.1z M106.2,273.2h-1.1v0.5L106.2,273.2z
		 M105.1,338.4h53.2v-46.3h-53.2V338.4z M110,291.3l31.3-18.1h-2.4l-31.1,18.1H110z M113.9,291.3l31.3-18.1h-2.4l-31.3,18.1H113.9z
		 M117.7,291.3l31.3-18.1h-2.3l-31.1,18.1H117.7z M121.7,291.3l31.3-18.1h-2.4l-31.3,18.1H121.7z M125.7,291.3l31.1-18.1h-2.2
		l-31.3,18.1H125.7z M158.3,274.5v-1.3l-31,18.1h2.2L158.3,274.5z M158.3,276.9v-1.5l-27.2,15.9h2.4L158.3,276.9z M158.3,279v-1.3
		l-23.2,13.6h2.2L158.3,279z M158.3,281.4v-1.5l-19.4,11.4h2.4L158.3,281.4z M158.3,283.5v-1.3l-15.4,9.1h2.4L158.3,283.5z
		 M158.3,285.9v-1.5l-11.6,6.9h2.3L158.3,285.9z M158.3,288.1v-1.3l-7.6,4.5h2.4L158.3,288.1z M158.3,290.4V289l-3.6,2.4h2.2
		L158.3,290.4z M177.5,227.2v-1.1h-0.2l-17.9,10.3v1.3L177.5,227.2z M173.3,226.2l-13.9,8.1v1.3l16.3-9.4H173.3z M159.4,232v1.3
		l12.3-7.1h-2.2L159.4,232z M159.4,229.8v1.3l8.5-4.9h-2.4L159.4,229.8z M159.4,227.4v1.3l4.5-2.5h-2.2
		C161,226.7,160.1,226.9,159.4,227.4z M159.4,226.2v0.4l0.7-0.4H159.4z M177.5,229.6v-1.3l-18.1,10.5v1.3L177.5,229.6z M177.5,231.8
		v-1.3L159.4,241v1.3L177.5,231.8z M177.5,234.1v-1.3l-18.1,10.5v1.3L177.5,234.1z M177.5,236.3V235l-18.1,10.5v1.3L177.5,236.3z
		 M177.5,238.7v-1.3l-18.1,10.5v1.3L177.5,238.7z M177.5,240.8v-1.3l-18.1,10.5v1.3L177.5,240.8z M177.5,243.2v-1.3l-18.1,10.5v1.3
		L177.5,243.2z M177.5,245.4v-1.3l-18.1,10.5v1.3L177.5,245.4z M177.5,247.7v-1.3l-18.1,10.5v1.3L177.5,247.7z M177.5,249.9v-1.3
		l-18.1,10.5v1.3L177.5,249.9z M177.5,252.2V251l-18.1,10.5v1.3L177.5,252.2z M177.5,254.4v-1.3l-18.1,10.5v1.3L177.5,254.4z
		 M177.5,256.8v-1.3L159.4,266v1.3L177.5,256.8z M177.5,258.9v-1.3l-18.1,10.5v1.3L177.5,258.9z M177.5,261.3V260l-18.1,10.5v1.3
		L177.5,261.3z M174.2,273.2l-14.8,8.5v1.3l17-9.8H174.2z M170.3,273.2l-10.9,6.3v1.3l13.2-7.6H170.3z M166.3,273.2l-6.9,4v1.3
		l9.2-5.2H166.3z M162.5,273.2l-3.1,1.8v1.3l5.3-3.1H162.5z M159.4,273.2v0.7l1.5-0.7H159.4z M177.5,273.6l-18.1,10.5v1.3l18.1-10.5
		V273.6z M177.5,275.8l-18.1,10.5v1.3l18.1-10.5V275.8z M177.5,278.1l-18.1,10.5v1.3l18.1-10.5V278.1z M177.5,280.3l-18.1,10.5v0.5
		h1.5l16.7-9.8V280.3z M177.5,292.1h-0.9l-17.2,10.1v1.3l18.1-10.5V292.1z M172.6,292.1l-13.2,7.8v1.3l15.6-9.1H172.6z M168.6,292.1
		l-9.2,5.6v1.3l11.6-6.9H168.6z M164.8,292.1l-5.4,3.2v1.3l7.6-4.5H164.8z M160.8,292.1l-1.5,1.1v1.3l3.8-2.3H160.8z M177.5,293.9
		l-18.1,10.5v1.3l18.1-10.5V293.9z M177.5,296.2l-18.1,10.5v1.3l18.1-10.5V296.2z M177.5,298.4l-18.1,10.5v1.3l18.1-10.5V298.4z
		 M177.5,300.8l-18.1,10.5v1.3l18.1-10.5V300.8z M177.5,302.9l-18.1,10.5v1.3l18.1-10.5V302.9z M177.5,305.3l-18.1,10.5v1.3
		l18.1-10.5V305.3z M177.5,307.4L159.4,318v1.3l18.1-10.5V307.4z M177.5,309.8l-18.1,10.5v1.3l18.1-10.5V309.8z M177.5,312
		l-18.1,10.5v1.3l18.1-10.5V312z M177.5,314.3l-18.1,10.5v1.3l18.1-10.5V314.3z M177.5,316.5L159.4,327v1.3l18.1-10.5V316.5z
		 M177.5,318.9l-18.1,10.5v1.3l18.1-10.5V318.9z M177.5,321l-18.1,10.5v1.3l18.1-10.5V321z M177.5,323.4l-18.1,10.5v1.3l18.1-10.5
		V323.4z M177.5,325.6l-18.1,10.5v1.3l18.1-10.5V325.6z M177.5,327.9l-18.1,10.5h2.2l15.9-9.2V327.9z M177.5,263.5v-1.3l-17.4,10
		h2.2L177.5,263.5z M177.5,282.6l-15,8.7h2.2l12.9-7.4V282.6z M177.5,330.1l-14.3,8.3h2.4l11.9-7.1V330.1z M177.5,265.8v-1.3
		l-13.6,7.6h2.4L177.5,265.8z M177.5,284.8l-11.2,6.5h2.4l8.9-5.3V284.8z M177.5,332.4l-10.3,6h2.2l8.1-4.7V332.4z M177.5,268v-1.3
		l-9.6,5.4h2.4L177.5,268z M177.5,287.2l-7.2,4.2h2.3l4.9-2.9V287.2z M177.5,334.6l-6.5,3.8h2.4l4.2-2.5V334.6z M177.5,270.3v-1.3
		l-5.6,3.1h2.2L177.5,270.3z M177.5,289.3l-3.3,2h2.2l1.1-0.7V289.3z M177.5,337l-2.5,1.5h2.4l0.2-0.2V337z M177.5,272.1v-0.9
		l-1.8,0.9H177.5z"/>
</g>
</svg>
