<?xml version="1.0" encoding="utf-8"?>
<!-- Generator: Adobe Illustrator 21.0.1, SVG Export Plug-In . SVG Version: 6.00 Build 0)  -->
<svg version="1.1" id="圖層_1" xmlns="http://www.w3.org/2000/svg" xmlns:xlink="http://www.w3.org/1999/xlink" x="0px" y="0px"
	 viewBox="0 0 145.9 136.7" style="enable-background:new 0 0 145.9 136.7;" xml:space="preserve">
<style type="text/css">
	.st0{fill:#FFFFFF;}
</style>
<path id="GBMRpa.tif" class="st0" d="M145.9,66.5c-7.2-0.9-14-2.9-20.5-2.2c-14,1.4-22.3,15.7-17.2,28.9c2.6,6.8,6.5,13.1,9.8,19.7
	c1.5,3,3.8,6.8,0.2,8.9c-2.5,1.4-7.4,1.7-9.5,0.1c-5.7-4.2-10.4-9.6-15.5-14.5c-0.6-0.6-1-1.2-2-2.3c-2.4,3.8-4.9,7.1-6.8,10.7
	c-0.4,0.9,0.5,3.1,1.5,3.9c6.8,5.6,13.7,11,20.7,16.5c-1,0.1-2.3,0.4-3.7,0.4c-26,0-52,0-77.9,0C9.3,136.6,0,127.4,0,111.9
	c0-29.5,0-59,0-88.4C0,11.2,8.3,1.9,20.4,0.3c1.2-0.1,2.3-0.3,3.5-0.3c32.6,0,65.3-0.2,97.9,0c14.9,0.1,24,9.8,24,24.8
	C145.9,39,145.9,53.2,145.9,66.5z M145.8,107.7c0-7.8,0.2-15.6-0.2-23.4c-0.1-1.6-2.4-4-4.2-4.5c-2.1-0.6-5.2-0.2-6.7,1.1
	c-1.2,1-1.5,4.4-0.8,6.1c3.4,7.1,7.3,14,11,21C145.3,107.9,145.6,107.8,145.8,107.7z"/>
</svg>
