<?xml version="1.0"?><svg width="640" height="480" xmlns="http://www.w3.org/2000/svg">
 <title>tears</title>
 <metadata id="metadata6064">image/svg+xmltear dropMohamed Ibrahimtear drop</metadata>
 <g>
  <title>Layer 1</title>
  <g id="layer1">
   <path d="m381.583313,77.189911c0,0 -31.325684,22.700119 -48.243561,41.055496c-16.917877,18.35524 -46.540649,58.549393 -60.897491,83.935379c-14.356873,25.386627 -34.378311,58.998932 -35.589615,83.023315c-1.211304,24.025055 3.120163,46.972717 19.771744,63.864105c16.652161,16.892059 66.706573,32.9245 86.996521,21.896454c20.289948,-11.028046 25.735291,-37.821594 27.680695,-62.03952c1.945923,-24.217255 -17.027496,-67.315308 -22.93512,-88.497101c-5.908173,-21.181824 -16.863647,-35.503326 -15.817871,-52.915894c1.045807,-17.412537 16.179932,-40.322891 23.726257,-53.828491c7.546844,-13.505524 25.308441,-36.493744 25.308441,-36.493744z" stroke-width="0" stroke-miterlimit="4" stroke-linejoin="round" stroke="#000000" fill-rule="evenodd" fill="#007cc2" id="path6075"/>
  </g>
 </g>
</svg>