<?xml version="1.0" encoding="utf-8"?>
<!-- Generator: Adobe Illustrator 21.0.1, SVG Export Plug-In . SVG Version: 6.00 Build 0)  -->
<svg version="1.1" id="圖層_1" xmlns="http://www.w3.org/2000/svg" xmlns:xlink="http://www.w3.org/1999/xlink" x="0px" y="0px"
	 viewBox="0 0 303.5 353" style="enable-background:new 0 0 303.5 353;" xml:space="preserve">
<style type="text/css">
	.st0{fill:#E8E7EB;}
</style>
<path class="st0" d="M2.5,19.6C-3.8,11.3,2.6-0.5,12.9,0c13.6,0.6,34.4,4.5,62.3,11.7c52.5,15,102.6,42.5,150.1,82.5
	c0.3,0.2,0.5,0.5,0.8,0.7c65.9,63.5,89.7,125.2,71.4,185.1c-0.2,0.6-0.4,1.2-0.7,1.7C276,328,250.8,351,221.5,350.5
	c-0.9,0-1.8,0.1-2.7,0.3c-40.2,9.2-72.6-9.7-97.3-56.5c-0.7-1.4-1.2-3-1.3-4.5c-7.7-81.4-32.5-155.4-74.3-222.2
	c-0.5-0.8-1.1-1.6-1.8-2.2C24.3,45.4,10.5,30.2,2.5,19.6z"/>
</svg>
