<?xml version="1.0" encoding="utf-8"?>
<!-- Generator: Adobe Illustrator 21.0.1, SVG Export Plug-In . SVG Version: 6.00 Build 0)  -->
<svg version="1.1" id="圖層_1" xmlns="http://www.w3.org/2000/svg" xmlns:xlink="http://www.w3.org/1999/xlink" x="0px" y="0px"
	 viewBox="0 0 236.9 870.6" style="enable-background:new 0 0 236.9 870.6;" xml:space="preserve">
<style type="text/css">
	.st0{fill:#F4F4F5;}
</style>
<path class="st0" d="M1.7,46C-1.5,41.8,0,35.5,4.9,33.7c0.2-0.1,0.4-0.1,0.6-0.2c1.7-0.6,3.5-0.5,5.2,0.1
	c61.9,21.6,109.7,56.2,143.4,103.6c0.2,0.3,0.4,0.5,0.5,0.8c10.7,19.5,19.8,16.9,27.2-7.9l25-87.4c4.2-18.6,9.3-31.7,15.3-39.5
	c4.6-6,14.1-3.3,14.6,4.2c0.5,7.1,0.1,17.2-1.2,30.2c-17.5,132.1-33.7,265.5-48.6,400.2c0,0.3-0.1,0.6-0.1,0.9
	c-14.8,63-8.2,136,19.9,218.8c0.1,0.3,0.2,0.5,0.3,0.7c9.9,21.6,16.9,49.8,21.1,84.5c5.8,52.7-8,92.4-41.4,119
	c-0.7,0.5-1.5,1-2.3,1.3c-60.8,23.2-96.9-7.2-108.5-91.3c0-0.2-0.1-0.4-0.1-0.6c-1.6-21.6,2.1-57.6,11.2-107.9
	c0-0.2,0.1-0.4,0.1-0.7c4.1-40.6,3.7-74.2-1.3-100.8C81.6,543,65.1,526.2,36,511.4c-0.9-0.5-1.9-0.7-3-0.8
	c-15-1.5-24.5-6.6-28.6-15.3c-2.4-5.1,1.2-10.9,6.8-11.4c7.6-0.6,19.3-0.5,34.9,0.6c0.7,0,1.3,0.2,1.9,0.4
	c10.8,3.5,22,0.1,33.6-10.1c1.1-1,1.9-2.2,2.3-3.6c17.2-53.4,32.8-106.7,46.7-160.1c5-20,0.8-28.7-12.5-26.2
	c-35.5,4.1-57.9-16.3-67.1-61.2c-0.2-0.8-0.2-1.6-0.1-2.4C57,155.2,40.6,96.7,1.7,46z"/>
</svg>
