<?xml version="1.0" encoding="utf-8"?>
<!-- Generator: Adobe Illustrator 21.0.1, SVG Export Plug-In . SVG Version: 6.00 Build 0)  -->
<svg version="1.1" id="圖層_1" xmlns="http://www.w3.org/2000/svg" xmlns:xlink="http://www.w3.org/1999/xlink" x="0px" y="0px"
	 viewBox="0 0 1586.6 2266.1" style="enable-background:new 0 0 1586.6 2266.1;" xml:space="preserve">
<style type="text/css">
	.st0{fill:#F4F4F5;}
	.st1{fill:#E8E7EB;}
</style>
<g>
	<path class="st0" d="M901.7,869.9c-0.4-0.2-0.8-0.5-1.2-0.7c-15.5-11.6-31.1-20.6-46.7-26.9c-0.2,0-0.4-0.1-0.6-0.2
		c-25.7-8.5-45.6-7-59.9,4.5c-0.3,0.2-0.6,0.5-0.9,0.8c-7.2,7.6-13,13.1-17.5,16.3c-4.5,3.2-10.7,1-12.1-4.3c-1.4-5.2-2-12.9-2-23.1
		v-61.8c0-14.3,5.5-23.2,16.7-26.8c7.5-2.4,12.7-9.2,12.4-17.1l0-1.2c-0.3-7.4-5.3-13.8-12.3-16c-11.2-3.5-16.7-12.9-16.7-28.1
		v-29.7c0-13.7,0.6-23.3,1.8-28.8c0.6-2.5,2.4-4.6,4.8-5.5c6.3-2.2,12.7-5.5,19-9.8c1.1-0.7,2-1.7,2.5-2.8
		c9.6-18.7,0.3-29.6-28-32.7c-0.1,0-0.3,0-0.5,0c-28.5-5.6-56.9-9.5-85.4-11.9c-21.3-0.8-32,12.7-32,40.5v80.8
		c0,17.1-7.7,26.6-23,28.3c-3.3,0.4-6.1,2.8-6.7,6.1l-4,19.6c-0.9,4.5,2.2,8.9,6.8,9.3c18,1.6,27,10.5,27,27.1V839
		c0,0.5,0.1,1.1,0.1,1.7c6.7,30.1-11.6,34.2-54.8,12.3c-11.1-5.5-22.2-9.5-33.2-11.9c-24.6-6.3-36.9,3.6-36.9,29.8v367.7
		c0,0.5-0.1,1.1-0.2,1.6c-7.5,34.4,3.6,53.1,33.5,56.3c53.1,4,79.7-17.1,79.7-63c0-8.8,1.5-14.9,4.6-18.3c3.2-3.6,9-3.4,11.8,0.5
		c3.3,4.5,5,13.2,5,26.2v95.1c0,14.3-5.6,23.2-16.7,26.7c-7.8,2.5-12.7,10.1-12.4,18.3l0,0.4c0.3,7.9,5.6,14.5,13,17.1
		c10.7,3.7,16.1,13,16.1,27.8v211c0,0.4,0,0.8-0.1,1.2c-6.1,35.1,5.3,57.8,34.1,68.1c0.3,0.1,0.7,0.3,0.9,0.3
		c39.6,10,67-2.6,82.1-37.8c0.4-0.9,0.7-2,0.7-3.1v-240.9c0-19,9.9-28.5,29.7-28.5h67.2c0.4,0,0.8,0,1.3,0.1
		c24.9,4.3,40.6,0.4,46.9-11.9c0.9-1.7,1.1-3.8,0.6-5.7c-1.5-5.1-5.6-13.9-12.5-26.5c-3.8-7.8-8.9-15.6-15.1-23.3
		c-0.2-0.3-0.4-0.5-0.7-0.8c-15.3-15.3-26-24.8-32.3-28.6c-2.7-1.7-6.1-1.6-8.6,0.3c-6.1,4.5-16.9,16-32.3,34.4
		c-0.1,0.1-0.2,0.3-0.4,0.4c-13.2,13.7-23.1,22.8-29.8,27.4c-4.5,3-10.6,0.8-12-4.4c-1.4-5.2-2.1-12.9-2.1-23.1v-93.9
		c0-9.1,0.7-16.1,2.2-21c2.1-7.4,12.6-7.6,14.8-0.2c1.3,4.5,2,10.8,2,18.8c-1.6,42.8,17.8,60.2,58.2,52.3
		c44.9-6.3,63.2-31,54.8-74.2c-0.1-0.5-0.1-0.9-0.1-1.4V956.3c-4.7-18.7,1.3-31.3,18.2-37.7c0.5-0.2,1.1-0.5,1.6-0.8
		C944,903,937.2,887,901.7,869.9z M789.4,1000.3c0,13.8-5.2,22.5-15.6,26.4c-8.1,3-13.2,10.9-12.2,19.5c0.8,7,5.5,12.8,12,15.2
		c10.5,3.7,15.7,13.9,15.7,30.4v60.6c0,19-9.9,28.5-29.8,28.5h-99.8c-19,0-28.6-9.9-28.6-29.7v-63c0-14.3,5.6-23.2,16.7-26.8
		c7.5-2.4,12.7-9.2,12.4-17.1l0-1.2c-0.3-7.4-5.3-13.7-12.3-16c-11.2-3.6-16.8-12.9-16.8-28.1v-67.8c0-18.8,11.7-29.9,35.1-33.2
		c0.4,0,0.8,0,1.1,0h83.8c25.4-1.6,38.1,8.3,38.1,29.7V1000.3z"/>
</g>
<path class="st1" d="M141.7,230.6c-6.2-8.3,0.1-20,10.4-19.6c13.6,0.6,34.4,4.5,62.3,11.7c52.5,15,102.6,42.5,150.1,82.5
	c0.3,0.2,0.5,0.5,0.8,0.7c65.9,63.5,89.7,125.2,71.4,185.1c-0.2,0.6-0.4,1.2-0.7,1.7c-20.9,46.4-46.1,69.3-75.4,68.8
	c-0.9,0-1.8,0.1-2.7,0.3c-40.2,9.2-72.6-9.7-97.3-56.5c-0.7-1.4-1.2-3-1.3-4.5c-7.7-81.4-32.5-155.4-74.3-222.2
	c-0.5-0.8-1.1-1.6-1.8-2.2C163.5,256.4,149.7,241.2,141.7,230.6z"/>
<path class="st0" d="M868.7,725.3c10.3-5.5,20.6-14.1,30.8-25.6c22.1-25.2,46.9-25,74.5,0.9c0.2,0.2,0.4,0.4,0.6,0.7
	c21.2,24.2,28.7,43,22.6,56.3c-1,2.1-2.8,3.6-5,4.2c-6,1.5-18.3,2.2-36.9,2.2c0,0-50.2,8-64.1,0C881.5,758.3,865.6,736,868.7,725.3z
	"/>
<g>
	<path class="st0" d="M1471.8,1665c-15.1-16.5-39.8-34.1-74.2-52.7c-0.3-0.2-0.5-0.3-0.8-0.5c-25.6-19-43.8-12.6-54.6,19.2
		c-0.1,0.3-0.3,0.7-0.4,1c-9.9,19.4-22.4,25.5-37.6,18.4c-0.7-0.3-1.4-0.5-2.2-0.6c-16.9-2-32.8-3-47.7-3.1c-1.1,0-2,0.4-3,0.9
		c-3.9,1.9-13.6-2.4-29.2-12.8c-16.3-11.3-31.6-20.2-45.7-26.7c-0.5-0.2-1-0.5-1.4-0.9c-7.9-6.3-15.9-7.8-23.7-4.5
		c-1,0.4-1.9,1.2-2.6,2.1c-10.8,13.6-20.6,27.2-29.5,40.7c-0.6,0.9-1.4,1.7-2.4,2.2c-1.2,0.6-2.6,1.2-4.3,1.6
		c-15.7,3.8-27.3,16.9-28.1,33c0.5,0,1.1-0.2,1.5-0.4c38-13.9,38.7-2.4,24.2,25.6c-0.2,0.5-0.4,0.9-0.5,1.3
		c-15.9,58-41.3,110.3-76.3,156.9c-0.1,0.2-0.3,0.3-0.5,0.5c-9.4,10.4-16,18.8-19.8,25c-3.2,5.3,1.5,12.1,7.6,10.5
		c22.9-5.8,47.3-20.2,72.9-43.4c19.5-19.4,29.2-20.1,29.2-2.2c3.6,14.4-5.3,37.7-26.8,70c-0.1,0.2-0.2,0.4-0.3,0.6
		c-29.6,55.4-76,115.1-139.3,179.1c-12.5,12-21,20.7-25.5,26.3c-3.1,3.8-1.4,9.7,3.3,11.1c6.9,1.9,16.6-1.1,29.3-9
		c0.3-0.2,0.6-0.4,0.9-0.5c41.7-18,84.7-47.2,129.2-87.4c19.5-19.4,29.2-19.8,29.2-1.1c0.7,32.4,0.1,64.5-2,96.3
		c-0.1,1.4-0.5,2.7-1.4,3.7c-9.6,12.5-27.1,18.4-52.3,17.8c-0.3,0-0.6,0-0.9-0.1c-23.5-3.6-37.6-0.7-42.2,8.4
		c-1.7,3.3-0.4,7.4,2.9,9.2c5.8,3.1,16.9,7,33.3,11.6c19.3,4.3,34.7,18.5,46.2,42.6c0.2,0.4,0.3,0.8,0.5,1.2
		c5.8,21.9,19.5,31.8,40.9,29.6c41.1-5.8,66.7-28.4,76.7-68c4.3-15.2,5.7-40,4.3-74.6c0-17.2,8.6-31.2,25.7-42
		c0.1-0.1,0.3-0.2,0.4-0.3l47.2-35.4c0.1-0.1,0.2-0.2,0.3-0.3c21.5-18.6,32.3-19.3,32.3-2v70.6c0,0.5,0.1,1,0.2,1.5
		c6.8,30.3-5.8,45.6-37.7,45.7c-0.2,0-0.4,0-0.7,0.1c-16.5,1.7-27.7,3.9-33.6,6.9c-2.8,1.4-4.5,4.4-3.9,7.5c0.1,0.7,0.3,1.3,0.5,1.9
		c0.7,1.9,2.4,3.3,4.3,4c30.7,10.8,50.7,28.7,59.9,53.5c0.2,0.5,0.3,1,0.4,1.5c3.1,21.6,18,30.7,44.7,27.4c0.4,0,0.8-0.1,1.2-0.3
		c43.5-12.3,67-41.4,70.7-87.1c0-0.2,0-0.4,0-0.6v-435.5c0-0.5-0.1-1.1-0.2-1.6c-4.7-19.7,0.7-32.4,16.4-38.1
		C1478.9,1691.3,1484,1679.4,1471.8,1665z M1230.6,1713.4c0.1-1.9,1-3.8,2.5-5c18.8-15.8,40.2-23.4,64.3-22.8c0.3,0,0.5,0,0.8,0
		c15.1-1.6,25.3-1.4,30.7,1c2.4,1,3.9,3.3,4.1,5.9c0.4,6.9-2.7,17.6-9.3,32.1c-20.8,46-42.7,83.3-65.7,112.1
		c-0.1,0.2-0.3,0.4-0.5,0.6c-19.3,19.9-28.9,21.2-28.9,4C1227.9,1797.5,1228.6,1755,1230.6,1713.4z M1302.1,1950.3
		c-14.4,25.2-30.6,50.1-48.7,74.6c-16.5,23.1-24.8,25.2-24.8,6.5v-101.6c0-17.3,8.6-30.6,26-40c16.5-9.3,32.6-20,48.4-32.3
		c0.1-0.1,0.3-0.2,0.4-0.3c20.6-18.4,31-18.2,31.2,0.7c0,0.4,0.1,0.7,0.1,1.1C1337.9,1876.4,1327,1906.8,1302.1,1950.3z"/>
</g>
<path class="st0" d="M1.7,1211c-3.2-4.1-1.7-10.4,3.2-12.3c0.2-0.1,0.4-0.1,0.6-0.2c1.7-0.6,3.5-0.5,5.2,0.1
	c61.9,21.6,109.7,56.2,143.4,103.6c0.2,0.3,0.4,0.5,0.5,0.8c10.7,19.5,19.8,16.9,27.2-7.9l25-87.4c4.2-18.6,9.3-31.7,15.3-39.5
	c4.6-6,14.1-3.3,14.6,4.2c0.5,7.1,0.1,17.2-1.2,30.2c-17.5,132.1-33.7,265.5-48.6,400.2c0,0.3-0.1,0.6-0.1,0.9
	c-14.8,63-8.2,136,19.9,218.8c0.1,0.3,0.2,0.5,0.3,0.7c9.9,21.6,16.9,49.8,21.1,84.5c5.8,52.7-8,92.4-41.4,119
	c-0.7,0.5-1.5,1-2.3,1.3c-60.8,23.2-96.9-7.2-108.5-91.3c0-0.2-0.1-0.4-0.1-0.6c-1.6-21.6,2.1-57.6,11.2-107.9
	c0-0.2,0.1-0.4,0.1-0.7c4.1-40.6,3.7-74.2-1.3-100.8c-4.1-18.8-20.7-35.7-49.8-50.5c-0.9-0.5-1.9-0.7-3-0.8
	c-15-1.5-24.5-6.6-28.6-15.3c-2.4-5.1,1.2-10.9,6.8-11.4c7.6-0.6,19.3-0.5,34.9,0.6c0.7,0,1.3,0.2,1.9,0.4
	c10.8,3.5,22,0.1,33.6-10.1c1.1-1,1.9-2.2,2.3-3.6c17.2-53.4,32.8-106.7,46.7-160.1c5-20,0.8-28.7-12.5-26.2
	c-35.5,4.1-57.9-16.3-67.1-61.2c-0.2-0.8-0.2-1.6-0.1-2.4C57,1320.2,40.6,1261.7,1.7,1211z"/>
<path class="st1" d="M925.3,486.5c-0.4-6.1,1.3-12.2,4.7-17.2c98.5-141.4,153.2-282.7,164.3-424c0.1-0.7,0-1.4-0.1-2.1
	c-5.5-39.9,14.3-52.1,59.3-36.8c0.5,0.1,1.3,0.3,1.8,0.4c27.6,4,56.6,9.9,87.2,17.8c0.5,0.1,1,0.3,1.5,0.5
	c29.6,12.8,44.8,21.7,45.7,26.7c3.9,11.7-3.6,19.6-22.5,23.7c-0.9,0.3-1.8,0.6-2.7,1c-29.6,15.9-29.9,39.5-0.9,70.8
	c0.2,0.3,0.7,0.9,1,1.2c71,105.9,166.1,184.3,285.1,235.4c14.2,6.6,24.9,12.1,32.1,16.4c7,4.2,6,14.7-1.7,17.5
	c-8.1,3.1-19.9,6.6-35.2,10.8c-0.8,0.3-1.7,0.6-2.5,1c-25.3,13.9-48.1,33.8-68.6,60c-0.6,0.7-1,1.4-1.3,2.2
	c-6.2,13.5-11.4,23-15.6,28.6c-2.6,3.4-7.4,4.7-11.5,2.9c-8.7-3.9-23.9-13.6-45.6-29.3c-0.2-0.2-0.7-0.6-1-0.9
	c-79.8-71-137.2-165.5-172.2-283.5c-8-28-17.5-30.5-28.6-7.5c-58.1,120.7-134.5,221.6-229,302.8C952.6,519,927,508.2,925.3,486.5z"
	/>
</svg>
