<?xml version="1.0" encoding="utf-8"?>
<!-- Generator: Adobe Illustrator 22.0.1, SVG Export Plug-In . SVG Version: 6.00 Build 0)  -->
<svg version="1.1" id="圖層_1" xmlns="http://www.w3.org/2000/svg" xmlns:xlink="http://www.w3.org/1999/xlink" x="0px" y="0px"
	 viewBox="0 0 154.5 179.7" style="enable-background:new 0 0 154.5 179.7;" xml:space="preserve">
<style type="text/css">
	.st0{fill:#E8E8E8;}
</style>
<g id="圖層_1_1_">
</g>
<g id="圖層_2_1_">
	<path class="st0" d="M1.3,10c-3.2-4.2,0-10.2,5.3-10c6.9,0.3,17.5,2.3,31.7,5.9c26.8,7.6,52.2,21.6,76.4,42
		c0.1,0.1,0.3,0.2,0.4,0.4c33.5,32.4,45.7,63.8,36.4,94.2c-0.1,0.3-0.2,0.6-0.3,0.9c-10.7,23.6-23.5,35.3-38.4,35
		c-0.5,0-0.9,0-1.4,0.1c-20.5,4.7-37-4.9-49.5-28.8c-0.4-0.7-0.6-1.5-0.7-2.3C57.3,106,44.6,68.3,23.4,34.2
		c-0.3-0.4-0.6-0.8-0.9-1.1C12.4,23.1,5.4,15.4,1.3,10z"/>
</g>
</svg>
