<svg id="圖層_1" data-name="圖層 1" xmlns="http://www.w3.org/2000/svg" viewBox="0 0 1121 1500"><defs><style>.cls-1,.cls-3{fill:#f4f4f5;}.cls-1,.cls-2{fill-rule:evenodd;}.cls-2,.cls-4{fill:#e8e7eb;}</style></defs><title>background-mobile</title><polygon class="cls-1" points="1121 0 1121 811.11 0 364.57 0 0 1121 0"/><polygon class="cls-2" points="0 363.46 1121 809.99 1121 811.11 1121 1500 0 1500 0 364.57 0 363.46"/><path class="cls-3" d="M674.5,609c-.26-.11-.5-.3-.74-.43a126.36,126.36,0,0,0-28.24-16.26c-.11,0-.26-.09-.37-.11-15.58-5.16-27.62-4.24-36.24,2.72a4.69,4.69,0,0,0-.53.48,78,78,0,0,1-10.62,9.85,4.7,4.7,0,0,1-7.3-2.59c-.84-3.16-1.23-7.81-1.23-14V551.24q0-13,10.09-16.21a10.53,10.53,0,0,0,7.52-10.36l0-.7a10.65,10.65,0,0,0-7.46-9.7c-6.78-2.12-10.13-7.81-10.13-17v-18c0-8.31.35-14.08,1.12-17.42a4.57,4.57,0,0,1,2.91-3.33,51.75,51.75,0,0,0,11.52-5.93,4.24,4.24,0,0,0,1.54-1.71q8.71-17-17-19.81l-.29,0a474.28,474.28,0,0,0-51.69-7.2Q518,423.14,518,448.35v48.9c0,10.35-4.65,16.08-13.93,17.11a4.71,4.71,0,0,0-4.08,3.69l-2.44,11.87a4.64,4.64,0,0,0,4.11,5.61c10.9,1,16.34,6.39,16.34,16.41v38.35a6.89,6.89,0,0,0,.09,1q6.06,27.35-33.19,7.42a85.49,85.49,0,0,0-20.12-7.22q-22.35-5.76-22.31,18V832a4.63,4.63,0,0,1-.14,1c-4.56,20.8,2.15,32.17,20.25,34.05q48.21,3.63,48.22-38.13c0-5.35.93-9,2.79-11.1a4.63,4.63,0,0,1,7.15.29c2,2.72,3,8,3,15.86v57.55c0,8.64-3.38,14-10.11,16.16a11.13,11.13,0,0,0-7.51,11.06l0,.26A11.48,11.48,0,0,0,514,929.36q9.74,3.36,9.72,16.85v127.7c0,.24,0,.51,0,.75q-5.54,31.86,20.62,41.22a1.72,1.72,0,0,0,.57.18q36,9,49.69-22.91a4.55,4.55,0,0,0,.39-1.88V945.48c0-11.49,6-17.24,18-17.24H653.6c.24,0,.5,0,.76,0q22.62,3.91,28.41-7.19a4.64,4.64,0,0,0,.36-3.45c-.88-3.09-3.41-8.42-7.6-16.06a79.82,79.82,0,0,0-9.14-14.13A3.57,3.57,0,0,0,666,887q-13.86-13.85-19.53-17.33a4.54,4.54,0,0,0-5.2.18q-5.52,4.11-19.54,20.84a1.32,1.32,0,0,1-.22.26c-8,8.3-14,13.8-18,16.57a4.72,4.72,0,0,1-7.24-2.68c-.86-3.14-1.26-7.81-1.26-14V834q0-8.26,1.32-12.73a4.68,4.68,0,0,1,9-.13,41.48,41.48,0,0,1,1.23,11.41q-1.44,38.84,35.24,31.64,40.8-5.7,33.19-44.89a3.54,3.54,0,0,1-.09-.86V661.31q-4.25-17,11-22.84a5.55,5.55,0,0,0,1-.5Q706.73,624.5,674.5,609Zm-68,78.94c0,8.34-3.16,13.65-9.43,16a11.16,11.16,0,0,0-.09,21c6.34,2.24,9.52,8.4,9.52,18.43V780q0,17.28-18,17.27h-60.4q-17.28,0-17.29-18V741.17q0-13,10.12-16.2a10.56,10.56,0,0,0,7.52-10.37l0-.7a10.62,10.62,0,0,0-7.46-9.68q-10.17-3.22-10.16-17v-41q0-17.12,21.24-20.12c.24,0,.46,0,.68,0h50.72q23-1.44,23.06,18Z"/><path class="cls-4" d="M214.49,222a7.42,7.42,0,0,1,6.32-11.84q12.38.57,37.71,7.06,47.7,13.63,90.87,49.91c.17.14.33.29.49.44q59.79,57.67,43.21,112a8.38,8.38,0,0,1-.4,1.05q-19,42.12-45.63,41.65a7.06,7.06,0,0,0-1.65.17q-36.46,8.32-58.88-34.21a7.3,7.3,0,0,1-.81-2.74q-7-73.87-45-134.5a7.93,7.93,0,0,0-1.09-1.36Q221.76,231.71,214.49,222Z"/><path class="cls-3" d="M654.49,521.44q9.33-5,18.67-15.48,20.05-22.92,45.12.53a3.68,3.68,0,0,1,.39.4q19.25,22,13.7,34.07a4.58,4.58,0,0,1-3,2.52q-5.42,1.34-22.36,1.33s-30.4,4.83-38.82,0C662.28,541.44,652.66,528,654.49,521.44Z"/><path class="cls-3" d="M1019.53,1090.23q-13.72-15-44.9-31.91a4.66,4.66,0,0,0-.47-.3q-23.25-17.3-33,11.61c-.08.2-.16.4-.24.58-6,11.74-13.56,15.43-22.78,11.15a5.18,5.18,0,0,0-1.33-.38,258.68,258.68,0,0,0-28.88-1.88,4,4,0,0,0-1.8.52c-2.37,1.16-8.26-1.46-17.67-7.72a179.35,179.35,0,0,0-27.68-16.13,3.75,3.75,0,0,1-.84-.54c-4.79-3.81-9.6-4.75-14.36-2.73a4,4,0,0,0-1.6,1.25q-9.81,12.36-17.85,24.63a4.19,4.19,0,0,1-1.45,1.36,11.28,11.28,0,0,1-2.62,1,21.82,21.82,0,0,0-17,20,3.07,3.07,0,0,0,.94-.22c23-8.43,23.41-1.47,14.62,15.52a8.33,8.33,0,0,0-.32.8,278,278,0,0,1-46.19,94.93,3.54,3.54,0,0,1-.28.32c-5.69,6.33-9.68,11.35-12,15.14a4.27,4.27,0,0,0,4.63,6.38q20.82-5.23,44.11-26.26,17.68-17.65,17.66-1.32,3.25,13.08-16.24,42.36a1.4,1.4,0,0,0-.18.34q-26.84,50.26-84.29,108.42Q696.21,1368,692.12,1373a4.23,4.23,0,0,0,2,6.72c4.19,1.18,10.07-.64,17.71-5.47a2.21,2.21,0,0,1,.52-.28q37.82-16.34,78.22-52.87,17.68-17.62,17.66-.64.64,29.44-1.2,58.26a4,4,0,0,1-.84,2.26c-5.8,7.55-16.39,11.14-31.67,10.77a5.27,5.27,0,0,1-.56,0q-21.36-3.24-25.57,5.1a4.22,4.22,0,0,0,1.78,5.59q5.3,2.83,20.14,7,17.53,3.88,27.94,25.8a4.7,4.7,0,0,1,.28.74q5.3,19.88,24.75,17.91,37.29-5.23,46.46-41.18,3.88-13.77,2.59-45.14,0-15.64,15.58-25.43a1.19,1.19,0,0,1,.23-.16l28.57-21.42a1.35,1.35,0,0,0,.19-.16q19.55-16.87,19.53-1.23v42.72a3.63,3.63,0,0,0,.12.92c4.09,18.34-3.49,27.6-22.82,27.64a1.43,1.43,0,0,0-.4,0c-10,1-16.75,2.37-20.34,4.17a4.19,4.19,0,0,0-2.37,4.52,5.46,5.46,0,0,0,.28,1.16,4.17,4.17,0,0,0,2.57,2.41q27.88,9.83,36.26,32.41a2.7,2.7,0,0,1,.22.9q2.81,19.63,27,16.6a3.11,3.11,0,0,0,.72-.16q39.49-11.19,42.8-52.7c0-.12,0-.24,0-.36V1135.84a4.22,4.22,0,0,0-.12-1c-2.85-11.93.44-19.61,9.94-23.08Q1030.61,1103.33,1019.53,1090.23Zm-146,29.28a4.17,4.17,0,0,1,1.5-3q17.09-14.34,38.91-13.82a3.85,3.85,0,0,0,.48,0c9.12-1,15.3-.82,18.61.57a4.19,4.19,0,0,1,2.49,3.57q.39,6.23-5.64,19.43Q911,1167.92,890.13,1194a4.39,4.39,0,0,1-.28.36q-17.51,18-17.51,2.44Q871.71,1157.23,873.55,1119.51Zm43.28,143.38A466.5,466.5,0,0,1,887.38,1308q-15,20.94-15,3.91v-61.47c0-10.49,5.22-18.53,15.71-24.22a238.8,238.8,0,0,0,29.28-19.52,1.27,1.27,0,0,0,.24-.2q18.7-16.66,18.87.44c0,.22,0,.42.06.64Q939.46,1223.41,916.83,1262.89Z"/><path class="cls-3" d="M129.75,815.41a4.84,4.84,0,0,1,1.94-7.44l.36-.13a4.89,4.89,0,0,1,3.16,0q56.22,19.65,86.81,62.73c.11.15.21.32.31.49q9.71,17.71,16.47-4.79l15.11-52.87q3.84-16.85,9.23-23.88a4.93,4.93,0,0,1,8.86,2.57,114.13,114.13,0,0,1-.72,18.29q-15.84,120-29.43,242.19a4.34,4.34,0,0,1-.09.52q-13.45,57.24,12.07,132.45a4.22,4.22,0,0,0,.18.45q9,19.59,12.74,51.14,5.22,47.83-25.05,72a5.11,5.11,0,0,1-1.38.78q-55.15,21.07-65.69-55.23c0-.13,0-.25,0-.38q-1.47-19.65,6.77-65.33c0-.13,0-.27.06-.4q3.74-36.86-.78-61-3.72-17.09-30.12-30.54a5,5,0,0,0-1.79-.51q-13.59-1.33-17.32-9.25a4.9,4.9,0,0,1,4.09-6.9,156.31,156.31,0,0,1,21.12.33,4.76,4.76,0,0,1,1.18.24q9.84,3.15,20.34-6.09a5,5,0,0,0,1.4-2.18q15.61-48.45,28.29-96.92,4.54-18.12-7.55-15.86-32.21,3.75-40.64-37.05a5,5,0,0,1-.08-1.44Q165.1,861.52,129.75,815.41Z"/><path class="cls-4" d="M688.79,376.93a16.32,16.32,0,0,1,2.86-10.39Q781.1,238.2,791.07,109.9a7.65,7.65,0,0,0,0-1.26q-5-36.23,35.88-22.29l1.08.26a498.09,498.09,0,0,1,52.77,10.77c.3.08.59.19.89.3,17.89,7.75,27.09,13.16,27.69,16.17,2.35,7.08-2.2,11.89-13.64,14.35-.56.19-1.12.37-1.64.6q-26.88,14.41-.52,42.85l.6.75q64.5,96.14,172.56,142.45,12.86,6,19.45,9.95a5.91,5.91,0,0,1-1,10.59q-7.38,2.79-21.32,6.52c-.48.18-1,.37-1.49.59q-23,12.58-41.55,36.3a5.68,5.68,0,0,0-.78,1.3c-3.72,8.2-6.89,13.94-9.46,17.29a5.81,5.81,0,0,1-6.93,1.75q-7.95-3.51-27.62-17.73c-.15-.15-.44-.38-.63-.53q-72.43-64.5-104.23-171.56-7.26-25.42-17.29-4.54Q801.15,314.39,715.28,388C705.29,396.61,689.79,390.05,688.79,376.93Z"/></svg>