<?xml version="1.0" encoding="utf-8"?>
<!-- Generator: Adobe Illustrator 22.0.1, SVG Export Plug-In . SVG Version: 6.00 Build 0)  -->
<svg version="1.1" xmlns="http://www.w3.org/2000/svg" xmlns:xlink="http://www.w3.org/1999/xlink" x="0px" y="0px"
	 viewBox="0 0 350.7 258.3" style="enable-background:new 0 0 350.7 258.3;" xml:space="preserve">
<style type="text/css">
	.st0{fill:#C09A57;}
</style>
<g id="圖層_1">
	<g id="圖層_1_1_">
	</g>
</g>
<g id="圖層_2">
	<path class="st0" d="M338.2,25H12.5C5.6,25,0,19.4,0,12.5S5.6,0,12.5,0h325.7c6.9,0,12.5,5.6,12.5,12.5S345.1,25,338.2,25z"/>
	<path class="st0" d="M338.2,140.7H12.5c-6.9,0-12.5-5.6-12.5-12.5c0-6.9,5.6-12.5,12.5-12.5h325.7c6.9,0,12.5,5.6,12.5,12.5
		C350.7,135.1,345.1,140.7,338.2,140.7z"/>
	<path class="st0" d="M338.2,258.3H12.5c-6.9,0-12.5-5.6-12.5-12.5s5.6-12.5,12.5-12.5h325.7c6.9,0,12.5,5.6,12.5,12.5
		S345.1,258.3,338.2,258.3z"/>
</g>
</svg>
