<?xml version="1.0" encoding="utf-8"?>
<!-- Generator: Adobe Illustrator 22.0.1, SVG Export Plug-In . SVG Version: 6.00 Build 0)  -->
<svg version="1.1" xmlns="http://www.w3.org/2000/svg" xmlns:xlink="http://www.w3.org/1999/xlink" x="0px" y="0px"
	 viewBox="0 0 1000 1000" style="enable-background:new 0 0 1000 1000;" xml:space="preserve">
<style type="text/css">
	.st0{fill:#D7B466;}
	.st1{fill:#C29067;}
	.st2{fill:#B78662;}
	.st3{opacity:0.47;fill:#CBA77D;}
	.st4{fill:#352621;}
	.st5{display:none;}
	.st6{display:inline;fill:#352621;}
	.st7{fill:#A07252;}
	.st8{fill:#C09A57;}
	.st9{fill:none;}
	.st10{fill:#CBA77D;}
	.st11{fill:#AE5B42;}
	.st12{fill:#94412E;}
	.st13{fill:#AF6847;}
	.st14{fill:#AF644F;}
	.st15{fill:#CB8264;}
	.st16{fill:#2B0803;}
	.st17{fill:#DBC8C3;}
	.st18{fill:url(#SVGID_1_);}
	.st19{opacity:0.39;fill:#CBA77D;}
	.st20{fill:#BA855D;}
	.st21{fill:#AD714F;}
	.st22{opacity:0.68;fill:#754637;}
	.st23{fill:#A46546;}
	.st24{fill:#C5A17E;}
	.st25{fill:#B89E8D;}
	.st26{fill:url(#SVGID_2_);}
	.st27{fill:#1C140E;}
	.st28{fill:#392821;}
	.st29{fill:#3F3633;}
	.st30{fill:#7B442D;}
	.st31{fill:url(#SVGID_3_);}
	.st32{fill:#261414;}
	.st33{display:none;fill:#3F2015;}
	.st34{fill:url(#SVGID_4_);}
	.st35{fill:#0C0404;}
	.st36{fill:url(#SVGID_5_);}
</style>
<g id="圖層_9">
	<path id="圖層_10" class="st0" d="M195.4,549.6c-2.7,3.5-5,9.7-7.1,18.3l-11.6,40.3c-3.4,11.4-7.6,12.7-12.5,3.7
		c-0.1-0.1-0.1-0.3-0.3-0.4c-15.5-21.9-37.7-37.9-66.3-48c-0.8-0.3-1.6-0.3-2.5,0c-0.1,0-0.1,0-0.3,0.1c-2.3,0.8-3,3.8-1.5,5.7
		c18,23.4,25.6,50.5,22.8,81.1c0,0.4,0,0.7,0,1.1c4.4,20.7,14.6,30.2,31.1,28.3c6.1-1.1,8,2.9,5.7,12.1c-6.4,24.7-13.6,49.3-21.7,74
		c-0.3,0.7-0.5,1.2-1.1,1.6c-5.3,4.8-10.5,6.3-15.5,4.6c-0.3-0.1-0.5-0.1-1-0.1c-7.2-0.4-12.5-0.5-16.1-0.3c-2.6,0.3-4.2,3-3.1,5.3
		c1.9,4.1,6.3,6.4,13.2,7.1c0.4,0,1,0.1,1.4,0.4c13.5,6.8,21.1,14.6,23,23.3c2.3,12.3,2.5,27.8,0.5,46.6c0,0.1,0,0.1,0,0.3
		c-4.2,23.3-5.9,39.9-5.2,49.9c0,0.1,0,0.1,0,0.3c5.3,38.8,22.1,52.9,50.1,42.2c0.4-0.1,0.7-0.4,1.1-0.5
		c15.4-12.3,21.8-30.7,19.1-55c-1.9-16.1-5.2-29.2-9.7-39.1c0-0.1-0.1-0.3-0.1-0.3c-12.9-38.3-16.1-72.1-9.3-101.1
		c0-0.1,0-0.3,0.1-0.4c6.9-62.3,14.4-123.8,22.5-185c0.5-6,0.8-10.6,0.5-14C201.9,548.1,197.6,546.9,195.4,549.6z M109.8,354.1
		c0.3,0.3,0.4,0.4,0.5,0.7c12.8,20.4,20.4,43.2,22.8,68.1c0,0.5,0.1,1,0.4,1.4c7.6,14.3,17.4,20.2,29.8,17.3c0.3,0,0.5-0.1,0.8-0.1
		c9,0.1,16.8-6.8,23.2-21.1c0.1-0.1,0.1-0.4,0.1-0.5c5.6-18.4-1.6-37.2-21.9-56.7c-0.1-0.1-0.1-0.1-0.3-0.3
		c-14.6-12.3-30-20.7-46-25.3c-8.6-2.2-15-3.4-19.1-3.5c-3.1-0.1-5.2,3.4-3.3,6C99.5,343.5,103.7,348.1,109.8,354.1z M763.6,616.5
		c-8-8.9-21.3-18.3-39.6-28.2c-0.1-0.1-0.3-0.1-0.4-0.3c-13.6-10.2-23.4-6.7-29.2,10.2c-0.1,0.1-0.1,0.4-0.3,0.5
		c-5.3,10.4-12,13.6-20,9.8c-0.4-0.1-0.8-0.3-1.2-0.3c-9-1.1-17.6-1.6-25.5-1.6c-0.5,0-1.1,0.3-1.6,0.4c-2,1-7.2-1.2-15.5-6.8
		c-8.7-6-16.9-10.8-24.4-14.2c-0.3-0.1-0.5-0.3-0.7-0.4c-4.2-3.4-8.4-4.2-12.7-2.5c-0.5,0.3-1.1,0.7-1.4,1.1
		c-5.7,7.2-11,14.4-15.8,21.7c-0.3,0.5-0.8,1-1.2,1.2c-0.7,0.3-1.4,0.7-2.3,0.8c-8.3,2-14.6,9-15,17.6c0.3,0,0.5-0.1,0.8-0.1
		c20.3-7.5,20.7-1.4,12.9,13.6c-0.1,0.3-0.3,0.4-0.3,0.7c-8.4,30.9-22.1,58.9-40.7,83.6c-0.1,0.1-0.1,0.1-0.3,0.3
		c-5,5.6-8.6,10.1-10.6,13.4c-1.8,2.9,0.8,6.4,4.1,5.6c12.3-3.1,25.2-10.8,39-23.2c10.4-10.4,15.5-10.8,15.5-1.2
		c1.9,7.6-2.9,20.2-14.3,37.3c-0.1,0.1-0.1,0.1-0.1,0.3c-15.8,29.6-40.6,61.4-74.4,95.6c-6.7,6.4-11.2,11-13.6,14
		c-1.6,2-0.8,5.2,1.8,6c3.7,1.1,8.9-0.5,15.7-4.8c0.1-0.1,0.3-0.1,0.4-0.3c22.2-9.7,45.2-25.2,68.9-46.6
		c10.4-10.4,15.5-10.6,15.5-0.5c0.4,17.3,0,34.5-1.1,51.4c0,0.7-0.3,1.4-0.7,2c-5.2,6.7-14.4,9.8-27.9,9.5c-0.1,0-0.3,0-0.5,0
		c-12.5-1.9-20-0.4-22.6,4.5c-1,1.8-0.1,4,1.5,4.9c3.1,1.6,9,3.7,17.7,6.1c10.4,2.3,18.5,9.8,24.7,22.8c0.1,0.3,0.1,0.4,0.3,0.7
		c3.1,11.7,10.4,16.9,21.8,15.8c21.9-3.1,35.6-15.1,41-36.4c2.3-8,3-21.4,2.3-39.8c0-9.1,4.6-16.6,13.8-22.5c0.1,0,0.1-0.1,0.3-0.1
		l25.2-18.9l0.1-0.1c11.4-9.9,17.2-10.4,17.2-1.1v37.7c0,0.3,0,0.5,0.1,0.8c3.7,16.2-3.1,24.4-20.2,24.4c-0.1,0-0.3,0-0.4,0
		c-8.9,1-14.7,2-18,3.7c-1.5,0.7-2.5,2.3-2,4c0,0.4,0.1,0.7,0.3,1c0.4,1,1.2,1.8,2.3,2.2c16.3,5.7,27,15.3,32,28.6
		c0.1,0.3,0.1,0.5,0.1,0.8c1.6,11.6,9.7,16.3,23.8,14.6c0.3,0,0.4-0.1,0.7-0.1c23.2-6.5,35.8-22.1,37.7-46.5c0-0.1,0-0.3,0-0.3
		V656.7c0-0.3,0-0.5-0.1-0.8c-2.5-10.5,0.4-17.3,8.7-20.3C767.4,630.5,770.1,624.1,763.6,616.5z M634.9,642.2c0-1.1,0.5-2,1.4-2.7
		c10.1-8.4,21.5-12.5,34.3-12.3c0.1,0,0.3,0,0.4,0c8-0.8,13.5-0.7,16.3,0.5c1.2,0.5,2,1.8,2.2,3.1c0.3,3.7-1.4,9.4-4.9,17.2
		c-11.2,24.5-22.8,44.5-35,59.8c-0.1,0.1-0.1,0.3-0.3,0.3c-10.2,10.6-15.4,11.3-15.4,2.2C633.4,687.2,633.8,664.4,634.9,642.2z
		 M673,768.8c-7.8,13.5-16.3,26.7-26,39.8c-8.9,12.3-13.2,13.5-13.2,3.4v-54.2c0-9.3,4.6-16.3,13.9-21.4
		c8.9-4.9,17.4-10.8,25.9-17.2c0.1,0,0.1-0.1,0.3-0.1c11-9.8,16.5-9.7,16.6,0.4c0,0.1,0,0.4,0,0.5
		C692.1,729.3,686.4,745.5,673,768.8z"/>
</g>
<g id="圖層_7">
	<path class="st1" d="M387.9,737.2c0,0-20.1,25.3-11.6,35.3c8.5,10-36.8,21.5-3.3,27.9c33.4,6.3,172.3,14.4,194.1-3.5
		C588.9,779,387.9,737.2,387.9,737.2z"/>
	<polygon class="st1" points="398.7,546.7 398.3,582.1 397,614.7 390.1,653.1 386.3,693.2 387.9,737.2 418.8,754.6 437,767.4 
		512.4,804.6 555.6,802.3 573.5,784.3 591,758.5 585.8,636.6 489.3,516.2 426.8,537.2 	"/>
	<g id="圖層_8">
		<path class="st2" d="M425.3,560.9c0,0,8.9,10.7,1.2,33.4s13.8,15.4,0.3,38.9c-13.5,23.5-5.9,30.5-11.9,37.8
			c-6,7.3,7.6,19.6,18.4,10.7c10.7-8.9,5.8-14.6,10.3-24.6c4.5-10,10.1-30.8,9.8-41.3c-0.3-10.4-2-50-6.3-59.6
			C442.6,546.6,425.3,560.9,425.3,560.9z"/>
		<path class="st2" d="M583.2,756.3c0,0-4.1,8.2-11.8,4s-41.8-7.6-49.2-18.8c-7.4-11.2-15.8-33.7-24.9-35.4s-5.8-14.8-20.4-13.9
			c-14.6,0.9-18.5-10.5-2.7-13.7c15.8-3.2,21.5-2.4,29.4-5.4C511.6,670.1,590.5,744.9,583.2,756.3z"/>
		<path class="st3" d="M398.7,546.7l-0.4,35.5l-0.8,28.6l-5.1,31.9l-3.7,19.2c0,0,4.5,13.2,7.6,22.7c3.1,9.5,7.1,29.9,11.9,30.6
			c4.8,0.7-8.9-40.1,6.6-44.2c15.5-4.2,0.4-49.7,9.9-57.1c9.5-7.4-5.6-48.7,0.5-52.9C431.4,556.7,405.9,535.8,398.7,546.7z"/>
		<path class="st3" d="M487,658.3c-3.7,2.3-35-18.8-30.9-32.9c4.1-14-20.1-67.1-2.4-70.9S497.9,651.5,487,658.3z"/>
	</g>
	<path class="st4" d="M399.1,546.7c0.1,1.2,0.4,2.4,0.7,3.6c0.3,1.2,0.6,2.4,1,3.6c0.6,2.5,1.3,4.9,1.7,7.5c0.4,2.6,0.7,5.3,0.3,8.3
		c-0.1,0.4-0.2,0.8-0.3,1.2l-0.2,0.6l0,0.3c0,0.2-0.1,0.4-0.1,0.6l0,0.8c0,0.3,0,0.5,0,0.8l0,0.9c0,0.6,0,1.2,0,1.8
		c0.1,4.9,0.4,10,0.2,15.1c-0.1,5.1-0.4,10.2-1.1,15.3c-1.4,10.1-4.2,20-6.4,29.9c-1.1,4.9-2.2,9.9-3,14.8
		c-0.8,4.9-1.3,9.9-1.5,14.9c-0.1,2.5-0.2,5-0.2,7.5l0,7.5c0,5,0,10,0.2,14.9c0.2,5,0.4,10,0.8,14.9c0.3,5,0.7,10,0.9,15
		c0.1,2.5,0.2,5.1,0.2,7.7c0,2.6,0,5.2-0.3,8c-0.2,1.4-0.4,2.9-1,4.6c-0.1,0.4-0.4,0.9-0.6,1.4l-0.3,0.6l-0.1,0.2
		c-0.1,0.1-0.2,0.3-0.3,0.5c-0.1,0.2-0.2,0.4-0.2,0.6c-0.6,1.7-0.8,4-0.8,6.4c0,2.4,0.1,4.9,0.2,7.4c0.1,2.5,0.3,5,0.3,7.6
		c0.1,2.6,0,5.2-0.4,7.8c-0.2,1.3-0.5,2.6-0.9,3.9c-0.4,1.3-1.1,2.5-2.1,3.5l-0.6-0.5c1.1-2.1,1.1-4.6,1-7c-0.2-2.4-0.6-4.8-1.1-7.3
		l-1.5-7.4c-0.5-2.5-1-5-1.2-7.7c-0.2-2.7-0.5-5.4,0.2-8.6c0.1-0.4,0.2-0.8,0.4-1.2c0.2-0.4,0.3-0.8,0.5-1.3l0.3-0.6
		c0.1-0.1,0.1-0.1,0.1-0.2l0-0.1c0-0.1,0.1-0.2,0.1-0.4c0.2-0.6,0.3-1.7,0.3-2.8c0.1-2.2,0-4.7-0.2-7.1l-0.5-7.4
		c-0.7-10-1-20.3-0.7-30.5c0.1-5.1,0.4-10.2,1-15.3c0.5-5.1,1.4-10.1,2.4-15.2c1-5,2.1-10,3.2-14.9c1.2-5,2.3-9.8,3.1-14.8
		c1.7-9.9,1.9-20,2.3-30l1.3-30c0-0.6,0.1-1.3,0.2-2l0.1-1c0-0.3,0.1-0.7,0.2-1.1l0.2-1.1l0.4-1.2l0.2-0.6l0.1-0.3
		c0.1-0.2,0.2-0.4,0.3-0.7c0.6-1.9,0.7-4.3,0.7-6.8c0-2.4-0.1-4.9-0.2-7.5c0-2.5-0.2-5.1,0.3-7.8L399.1,546.7z"/>
	<path class="st4" d="M591,758.5c-3,5.7-6.4,11-9.3,16.3c-1.4,2.6-2.9,5.3-3.7,7.8c-0.2,0.6-0.4,1.2-0.5,1.7l-0.5,2.3
		c0,0.2-0.1,0.5-0.2,0.7l-0.2,0.6l-0.4,1.2c-0.2,0.8-0.5,1.6-0.8,2.4c-0.6,1.6-1.2,3-1.9,4.5c-0.7,1.4-1.3,2.9-2.1,4.3
		c-1.4,2.8-3,5.6-4.6,8.3c-3.3,5.4-6.9,10.6-11.3,15.4c1.4-6.3,3.5-12.3,5.7-18.1c1.1-2.9,2.2-5.8,3.4-8.7c1.1-2.9,2.3-5.7,3.4-8.5
		c0.6-1.4,1-2.8,1.4-4l0.6-2.3c0.3-1,0.6-1.9,1-2.7c0.8-1.7,1.6-3.1,2.6-4.5c0.9-1.4,1.9-2.7,3-4c2.1-2.5,4.4-4.8,6.8-6.9
		C585.7,762.2,588.3,760.2,591,758.5z"/>
	<g class="st5">
		<path class="st6" d="M447.2,556.3c0.3,3.4,0.3,6.7,0.3,10.1c0,1.7,0,3.4-0.1,5c-0.1,1.7-0.1,3.4-0.3,5c-0.2,3.3-0.5,6.7-0.9,10
			c-0.3,3.3-0.8,6.6-1.4,9.9c-1.2,6.6-3,13.1-4.4,19.6c-1.3,6.6-2.3,13.2-3.3,19.8c-0.2,1.7-0.5,3.3-0.8,5c-0.3,1.7-0.5,3.3-0.9,5
			c-0.3,1.7-0.7,3.3-1,4.9l-1.2,4.9c-1.6,6.5-3.4,13-5.8,19.4c-0.6,1.6-1.2,3.1-1.9,4.7c-0.6,1.6-1.3,3.1-2.1,4.6
			c-1.4,3.1-3,6.1-4.7,9c-3.4,5.8-7.4,11.5-12.5,16l-0.4-0.3c3.7-5.6,6.7-11.4,9.4-17.5c2.6-6,5-12.2,7.2-18.4
			c2.2-6.2,4.3-12.5,6.3-18.8l5.7-19.1c1.9-6.4,3.4-12.9,4.4-19.5c1-6.6,1.2-13.3,1.8-19.9c0.3-3.3,0.7-6.6,1.2-9.9l0.7-4.9l0.7-4.9
			c1-6.6,2-13.2,3.4-19.7L447.2,556.3z"/>
	</g>
	<path class="st2" d="M453.2,796.8c3.7,17.7,45.3-0.5,59.2,0c13.9,0.5,24.9,9.5,29,4c4.1-5.5,1.9-8.3,10.6-16.8
		c8.7-8.5,21.2-15.4,19.4-23.7c-1.8-8.4-15.9,0.9-35.5,8.7c-19.6,7.8-43.2,22.1-45.2,27.2C488.7,801.3,452.4,792.9,453.2,796.8z"/>
	<path class="st7" d="M567.8,758.8c-6,4-24.7,10-32.4,15.2c-7.7,5.2,0.1,12.2-7.7,18.2c-7.9,6-15.9-3-15.3,4.7
		c0.7,7.7,29.6,6.8,38.2,6.7c8.6-0.1,23.6-21.6,23.6-21.6l14.7-21C588.8,760.9,571.3,756.5,567.8,758.8z"/>
	<path class="st7" d="M397.9,664.6c0,0-11.5,17.5-11.5,27.6c0,10.2,2.1,47.2,1.3,50.7c-0.8,3.5,21.9,61.9,48.9,64.3
		C436.5,807.2,388.2,723.7,397.9,664.6z"/>
</g>
<g id="圖層_13">
	<path class="st8" d="M918.1,806.8H228.6V97.3h689.5V806.8z M248.6,786.8h649.5V117.3H248.6V786.8z"/>
</g>
<g id="圖層_2">
	<g>
		<polygon class="st9" points="801.5,512.5 800.8,510.6 800.8,512.2 802.1,514.4 		"/>
		<polygon class="st9" points="799.7,512.1 799.6,513.2 799.9,514.1 		"/>
		<polygon class="st9" points="802.6,511.1 802.6,512.1 802.6,512.1 804,513.8 		"/>
		<polygon class="st9" points="802.1,511.3 802,511.5 802.2,511.7 		"/>
		<path class="st9" d="M798.8,513.2l-0.2,0c0,0,0,0-0.1,0l-0.2-1.9c0,0.2-0.1,0.6-0.2,0.9l0.8,2.3L798.8,513.2z"/>
		<polygon class="st9" points="802.4,509 802.5,510.2 803,510.9 		"/>
		<path class="st9" d="M797.2,512.9c0,0-0.1,0-0.1,0l0,2.2L797.2,512.9z"/>
		<path class="st9" d="M795.4,512.5c-0.3-0.1-0.5-0.1-0.8-0.2l0.2,2.4L795.4,512.5z"/>
		<path class="st9" d="M796.6,512.8c-0.3-0.1-0.6-0.1-0.8-0.2l0,1.8L796.6,512.8z"/>
		<path class="st4" d="M802.7,500.5l-5.1-5.7l-18-0.3l5.1,15.2l3.5,4.1c0,0,3.8-1.3,4.7-1.6c0.2-0.1,0.7,0,1.3,0.1l0.2-1.6l0.1,1.7
			c0.3,0,0.5,0.1,0.8,0.2l0.3-1.2l0,1.3c0.3,0.1,0.6,0.1,0.8,0.2l0.4-0.9l0,1c0,0,0.1,0,0.1,0l0.2-3.2l0.8,2.5
			c0.1-0.4,0.2-0.7,0.2-0.9l0.2,1.9c0,0,0.1,0,0.1,0l0.2,0l-0.2-2.9l1,2.8l0.2-1.1l-0.2-2.1l1.3,2.2l0-1.6l-0.3-0.9l1.6,1.8l0-0.2
			l0.2,0.5l0.3,0.4l0,0l-0.1-1l-1.4-2.7l1.4,1.8l-0.1-1.2l0.6,1.9l0.2,0.3l-1.2-6.3L802.7,500.5z"/>
	</g>
	<g id="圖層_3">
		<path class="st1" d="M505.2,161.6l237.3,40.5l66.9,67.2l9.6,28.4l8.6,25.6l2.6,26.6l-2,88.2l-33.4,32.3l-13.2,20.3l11.5,53.1
			l9.9,38.9l-3.1,22.1l-7.2,13l-7.9,4.8l-21.8,1c-4.5-1.6-4.6,13.1-0.9,31.9c3.9,19.6-24.6,21.2-22.7,20.3c0,0-24.4-3.4-24,3.9
			c0.3,7.3,15.9,18.9,15.9,18.9l6.7,23.1l-16.1,5.4l-11.4,3.8l-9.8,11.7l-14.2,17.4c0,0-13.9,12.1-23.1,13s-30,1.7-30,1.7
			l-30.4-11.9l-18-6.6L562.6,731l-14.3-11l-34.9-31.5l-26.7-41.7l-14-35.4l-14.4-64.8l-4.7,7.9l-21.8,7.3l-17.7-8.8l-25-21.1
			l-15.6-27.5l-2-27.8l-4.5-38.6l-6.1-18l23.3-34.2l69.8-53l73.9-31.2L505.2,161.6z"/>
	</g>
	<path class="st10" d="M596.1,362.6c0,0,17.8,14.1,27.3,10.9s26.5,3.7,33.5-3.9s0.7-27.7,7.7-35.3c6.9-7.6,13.2-28.2,16.9-27.3
		c3.7,0.9,11.2,1,14.3-2.2c3.2-3.2-5-19.4-1.5-23.2c3.5-3.8,3.3,8.4,10.9,7.4c7.6-1,2.5-3.7,2.7-12.4c0.2-8.7,2.7-10.6-1.5-18.6
		c-4.2-8-4.6-5.8-8.4-12.5c-3.8-6.6-14.3-12.6-22.5-10.4c-8.2,2.2-16.8-2.9-33.1,0.3c-16.3,3.2-34.2-1.4-39.2,18.2
		s-7,60.9-16.1,77.7S593.4,360.7,596.1,362.6z"/>
	<g id="圖層_5">
		<path class="st11" d="M674.4,677.6l8.9,4.4l7.9,1.6l14.6,2.5l8.2,2.5l11.7,0.3l5.1-0.6l6-1c0,0,5.4,3.5,6.7,7.3
			c1.3,3.8,2.9,11.7-2.2,18.7s-8.7,10.3-8.7,10.3l-7.7,0.5l-8.9-4.4l-8.6-6.6l-10.4-2.8l-11.4-8.8l-6.3-6.3l-1.6-7.9l-1.6-4.7
			l-2.5-4.4L674.4,677.6z"/>
		<path class="st12" d="M717.8,688.9c0,0,14.9,3.4,16.1,7.2c1.3,3.8,5.4,6.6,5.1,8.8c-0.3,2.2,3.2-3.2,3.5-5.4
			c0.3-2.2,0.8-5.4-0.3-7.3c-0.6-1-3.5-4.1-3.5-4.1l-5.4-0.3l-5,0.9l-5.1,0.4L717.8,688.9"/>
		<path class="st13" d="M692.8,701c0.5,1.3-0.3-7.3,2.2-6c2.5,1.3,4.4,0.6,10.1,1.9s2.5-1.9-1.3-3.8s-7.9-1.6-10.4-2.8
			c-2.5-1.3-8.5-3.5-9.8-4.1s-3.2-3.2-3.2-3.2s-2.2-3.5-1.9,0.6c0.3,4.1,0.7,11.4,4.5,13.3C686.8,698.8,692.2,699.1,692.8,701z"/>
		<path class="st14" d="M725.1,696.5c2.2,0.3-6,4.1-7.3,3.5s-7,1.3-4.1,3.5c2.9,2.2,12,4.4,12.4,8.5c0.3,4.1,3.8,5,7.9,1.6
			c4.1-3.5,4.7-7.9,6.3-9.5c1.6-1.6-4.1-6-6.7-7.3s-6.7-4.1-9.5-3.1C721.3,694.6,720.7,695.8,725.1,696.5z"/>
		<polygon class="st15" points="695.6,687.4 694.1,688.9 695.2,690.8 697.6,689.9 696.6,687 		"/>
		<polygon class="st15" points="687.7,685.8 684.3,684.9 682.4,682.3 684.6,682.6 688.4,684.5 		"/>
	</g>
	<g id="圖層_6">
		<path class="st16" d="M744.8,675.6l-1.7,2.5l-2.1,3l-3,4.3l-1.2,1.9l-5.5,1.3l-7.5,0.5l-8.5-0.5l-5.4-1.2l-6.7-2.6l-9.6-0.8
			l-7.8-1l-7.2-3.2l-2.9-1.1c0,0-3.4-1.1-0.3-2.6s5.2-3.2,9.2-2.2c3.9,1.1,10.8-0.5,10.8-0.5l5.7-2.3l8.7,0.5l13.6-0.1
			c0,0,6.1,1.5,6.4,1.9s6.3,1.9,6.3,1.9l6.1,0.8L744.8,675.6z"/>
		<polygon class="st17" points="673.8,677.3 679.6,677.2 685.8,678.3 687.4,678.5 691.1,674.3 686.4,674.1 683.1,673.9 680.2,674.2 
			677.6,674.9 676,675.8 674.8,676.8 674.1,677.5 		"/>
		
			<linearGradient id="SVGID_1_" gradientUnits="userSpaceOnUse" x1="636.0197" y1="742.4578" x2="726.0197" y2="742.4578" gradientTransform="matrix(0.9479 -0.3187 0.3187 0.9479 -163.623 183.817)">
			<stop  offset="0" style="stop-color:#AE5B42"/>
			<stop  offset="1" style="stop-color:#9B573B"/>
		</linearGradient>
		<path class="st18" d="M673.5,677.9l4.3-3.1l4.9-1.1l8.5,0.3l8.5-2.9c0,0,6.6,0.9,7.6,0.6s11.1-1.6,12.3-1c1.3,0.6,6.6,0.9,6.6,0.9
			l7.3,2.8l7,1.9l7.9-1.6l6.9-4.4l2.5-5.1l2.8-4.1l0.6-4.4l-2.5-1.3l-1.3,2.5L755,660l-4.4-0.6l-7.9-1.6c0,0-4.1-2.8-4.7-1.6
			c-0.6,1.3-7.3,3.5-8.2,3.8s-12.6,3.2-13.6,3.5c-0.9,0.3-8.2,0.7-11.1,1.6s-7.6,2.5-7.6,2.5l-7.6,2.5l-2.2-0.3c0,0-4.1-2.8-3.8-1.9
			c0.3,0.9-3.2,0-4.7,1.6c-1.6,1.6-5,3.8-5,3.8L673.5,677.9"/>
		<path class="st4" d="M674.4,677.6c1.5-0.7,3.1-0.9,4.7-0.8c1.6,0,3.2,0.3,4.8,0.6l2.3,0.5c0.3,0.1,0.8,0.2,1,0.2c0,0,0.1,0,0.1,0
			l0.2-0.1c0.1-0.1,0.3-0.2,0.4-0.4c1.1-1.1,2.1-2.3,3.2-3.5c-0.8,1.4-1.6,2.8-2.6,4c-0.1,0.2-0.3,0.3-0.4,0.5l-0.3,0.2
			c-0.1,0.1-0.2,0.2-0.4,0.2c-0.6,0.1-0.9,0-1.4-0.1l-2.3-0.5c-1.5-0.3-3.1-0.6-4.6-0.8C677.6,677.4,676,677.3,674.4,677.6z"/>
		<path class="st17" d="M692.1,674.3l0.1,1.7l0.1,4l-0.1,1.9l2.4,2.3l8.5,0.7l4.7,1l0.3-1.9l1.4-2.7l0.5-0.3l0.7-1.1l0.7-2.3
			l0.1-1.4l-0.1-3.6l-6-1.3c0,0-3.5,0.2-3.9,0.3c-0.5,0.1-9.3,2.8-9.3,2.8L692.1,674.3z"/>
		<path class="st17" d="M723.9,688.7c-2.7,0-5.1,0-5.2-0.1c-0.3-0.3-5.3-0.2-5.3-0.2l-2.1-5.7l-1.8-2.6l-0.3-4.2l1.1-3.7l14.3,0.1
			l8.2,2.5l4.5,0.8l6.7,0.2l-0.4,1.4l-1.5,2.3l-3.3,4.1l-0.7,1.3c0,0-0.3,0.4-0.2,0.9s-0.1,1.8-0.1,1.8s-6.8,1-6.8,1
			c0,0-2.4,0.1-5,0.1l-0.5-1.7l-0.6-1.4l-0.7,0.9l-0.4,1.5L723.9,688.7z"/>
		<path class="st2" d="M605.2,616.1c1.8-0.6,30.5-16.6,44-14.8c13.5,1.8,22.9-7.1,25.3-9.6s15.5-17.1,18.4-21.6
			c2.9-4.5,7.8-14.6,11.6-21.1s13.7-11.6,18.2-13.1c4.4-1.5,3.1,7.1,0.9,15.2c-2.2,8.1-3.6,16.7-4.8,21.3
			c-1.2,4.6-11.8,7.7-14.6,13.5c-2.8,5.8-3.8,9.6-8.9,15.6c-5.1,5.9-10.4,11.2-12.2,15.7c-1.8,4.5,2.7,13.8-16.3,11.2
			c-19-2.6-25.5-1.1-34-0.3c-8.5,0.8-20.7,0.3-22.1-4.2C609.1,619.4,601.6,617.4,605.2,616.1z"/>
		<path class="st2" d="M551.6,613.4c7.4-9.6-4.4-34.4,5.3-48.2s26.6-32.6,35.6,0.5c9,33.1,34.6,25.5,45.8,27
			c11.2,1.5-4.2,5.6-51.9,33.3s-76.5,21.5-65.8,16.8C531.4,638.1,545,622,551.6,613.4z"/>
		<path class="st2" d="M505.7,670c3-15.7,31.4-11.6,39.2-4.2c7.8,7.4,18.6,23.8,41.5,16.6s44.1,2.6,51.2-1.4s18.4,13.9,18.5,17.3
			c0.1,3.4-9.2,3.9-28.4,9.6c-19.2,5.7-38.2,2.6-41.2,9.4c-3,6.8,1.8,8.4,6.1,18c4.3,9.6,2.7,25.8,2.7,25.8S498.7,707.1,505.7,670z"
			/>
		<path class="st7" d="M641.1,726.6c-2.2-0.9,45-0.6,43.7,4.3s-4.8,25.1-10.2,32.2c-5.4,7.1,17.9-9.9,17.9-9.9l10.4-16.9
			c0,0,10-21.4,13.2-16.7c3.2,4.7-27.5-8.9-27.5-8.9S649.3,729.9,641.1,726.6z"/>
		<path class="st19" d="M544.8,529.2c10.1,1.6,35.3-16.1,43.2-14.5s41.8,11.3,46.5,9.7c4.7-1.6-3.6-20-14.3-26.9
			c-10.8-6.9-41.3-22.9-31.6-25.1c9.7-2.3-8-23.7-8-23.7s16.8-17.3,24.8-17.8c8-0.6,37-10.8,57.9-19.7c20.9-8.9,44.7-17.9,46.2-20.6
			c1.5-2.6-17.6-15.6-20.6-13.3c-2.9,2.3-29.8-0.3-34.4,3.9c-4.6,4.1-51.5,12.9-52.5,17.3c-1,4.4-32.7,28.7-35.3,33.9
			s-41.4,30.5-36.8,38.1c4.6,7.6-9.3,26-3.4,34S531.8,527.1,544.8,529.2z"/>
		<path class="st2" d="M791.7,275.6c-11.2,10.3-4.8,58.7-4,72.2c0.8,13.4-5.9,37.4-1.6,47c4.3,9.6,26.4,26.8,24.9,33.2
			c-1.5,6.4,8.7,9.8,12.2,4.9s3.6-111.5,3.6-111.5S806.5,262.1,791.7,275.6z"/>
	</g>
	<g id="圖層_4">
		<path class="st20" d="M596.1,447.6c3.5-3.5,26.2-6.7,42-16.2c15.8-9.5,21.8-7.3,29.7-12.1c7.9-4.8,26.8-14.3,36-12.1
			c9.2,2.2,17.4-1.6,28.8,0.9s17.7,8.8,27.9,13.8c10.1,5,4.1,6,19,0c14.8-6,32.6-0.4,19.3,10.4c-13.3,10.8,0.3,7.3-11.3,22.8
			c-11.7,15.5-19.6,20.3-23.3,27.9c-3.8,7.6,2.9,5.4-11.3,19.6c-14.2,14.3-8.8,20.9-27.8,24.1c-19,3.2-25.3,12.7-37.3,2
			c-12-10.7-19-25.2-22.9-33.5c-3.8-8.2-14.3-23.7-28.5-25.2c-14.2-1.5-19.3-4.1-25-5.3C605.6,463.4,591.3,452.3,596.1,447.6z"/>
	</g>
	<path class="st21" d="M607.1,458.6c15.9,2.2,34.8-6.4,45.8-8c11.1-1.6,25.6-11.8,35.1-11.8c9.5,0,19.6-4.5,25.9,1.8
		s25.6,0.9,29.4,15.4c3.8,14.5,10.2,24,8.3,34.1c-1.9,10.1-6.9,13.9-16.7,22.5c-9.8,8.6-16.4,20.3-29,17.2
		c-12.7-3.1-23.1-12.3-31-17c-7.9-4.7-19-25.2-26-27.1c-7-1.9-8.9-10.7-26.9-11C604,474.5,602.7,458,607.1,458.6z"/>
	<path class="st22" d="M752.3,473.1c-2.8,7.3-10.7,24.7-16,30.7c-5.4,6-10.9,11.3-16.4,17.1c-10.1,10.8-27.2,0.7-33.5-8.8
		c-4.5-6.6-16.8-12.3-21.5-17c-4.8-4.7-6-8.5-8.6-9.8c-2.5-1.3-16.5-5-16.5-8.2c0-3.2-4.4-6.9,2.2-6c6.6,0.9,39.5,7.8,46.5,9.7
		c7,1.9,39.9,5.6,40.8,5.3s10.7-5.7,13.6-9.8C745.7,472.2,752.3,473.1,752.3,473.1z"/>
	<path class="st23" d="M669.9,497.7c-3.2,0,13.6,6,20.3,6.9s15.8,6.3,21.5,4.4c5.7-1.9,6-4.1,6-4.1s-9.2,1-14.2-1.5
		s-14.3-7.9-16.5-8.2s-6-2.2-9.2-2.2c-3.2,0-13.9-3.8-14.2-4.7c-0.3-0.9-11.7-0.3-3.5,5.4C668.3,499.3,669.9,497.7,669.9,497.7z"/>
	<path class="st24" d="M446.4,404c0.1-5.4,52.4,75.3,51.8,86.5c-0.6,10.4,16.8-61.5,26.9-66c10.1-4.5,13.8-24.7,25.9-26.7
		c12-1.9,50.3-35.4,55.7-50.9c5.3-15.5,19.5-29.8,29.6-34.2c10.1-4.5-21-34.1-13.4-39.8c7.6-5.7,1.8-19.6,6.3-22.2
		c4.4-2.5-2.7-12.8,3.6-9.7s19.1,2,25.8,9.3c6.7,7.3,3.5-5.4,15.5-10.5s7.6,6.9,17.1,10.1c9.5,3.1,8.9,1.2,15.8-3.2
		c6.9-4.4,19.6-7.6,19.6-7.6l-8.7-47.7l-259,4.8l-66.6,98.3c0,0-19.8,96.4-15.7,92.9c4.1-3.5,30.3-22.8,54.1,4
		C444.5,401.5,446.4,404,446.4,404z"/>
	<path class="st25" d="M424.1,372.5c0,0,26.1-57.3,46.6-62.1s8.5-15.5,28.1-35.8s37.5-67.5,31.6-88.2c-5.9-20.7-51.8-12.7-82.4,6.1
		s-69.3,107.7-69.3,107.7l-2,88.2C376.8,388.4,414.9,360.8,424.1,372.5z"/>
	
		<linearGradient id="SVGID_2_" gradientUnits="userSpaceOnUse" x1="668.446" y1="401.4355" x2="668.446" y2="210.1749" gradientTransform="matrix(0.9479 -0.3187 0.3187 0.9479 -163.623 183.817)">
		<stop  offset="0" style="stop-color:#352621"/>
		<stop  offset="1" style="stop-color:#9D7F6D"/>
	</linearGradient>
	<path class="st26" d="M369.2,394.1c-2,1.1,1.1-62.6,5.8-67.4c4.7-4.8-1.7-33.2,7.2-38.3c8.8-5.1,6.6-33.9,18.2-39.9
		c11.7-6,15.1-36.7,36.3-39.6c21.2-2.9,38.2-24.4,61-22.6s73-2.4,73-2.4l165.7,3.4l39.9,21.4l25.7,26.2l14,41.7c0,0-4.7,4.8-8.5,2.9
		s-18.3-1.2-18.4-7.5c0-6.3-2.5-7.6-9.5-9.5c-7-1.9-14.6-5.7-21.8-8.5c-7.3-2.8-15.5-8.5-23.7-7.8s-14.6-12-30.1-11
		c-15.5,1-22.5-0.9-31-4.3c-8.5-3.5-22.5-10.4-35.8-9.1c-13.3,1.3-14.6-2.5-29.7-0.6s-25.3,0.1-35.1-0.9s-12,1.9-22.8-1.8
		s-13-0.9-25.3,0.1c-12.3,1-23.1,0.4-36,5.8c-13,5.4-17.1,2.6-27.5,6.1c-10.4,3.5-5,3.8-18.9,12.7c-13.9,8.9-9.8,5.4-19.2,21.2
		c-9.4,15.8-19.2,21.2-23.6,33.3c-4.4,12-3.8,13.9-6.9,26.6s2,21.5-4.3,31c-6.3,9.5,0,15.8-1.8,19.6S379.9,388.4,369.2,394.1z"/>
	<path class="st4" d="M380.3,293.8c4.5-8.5,6.5-38.6,11.3-43.4c4.7-4.8,20.5-36.4,25.8-39.3s15.5-6.9,23-19.3
		c8.5-13.9,25.3,3.1,32.3-1.3s28.4-9.6,41.1-6.4s26.5,11.8,37.3,7.5c14.6-5.8,60.8-22.1,62.6,1.1c0.8,10,44.2-12.8,50.3-7.4
		c6,5.4,33.6,21.4,40.2,22.3c6.6,0.9,45.3,12.2,51.6,15.4s37.7,17.9,41.5,19.8s12.7,26.8,13,31c0.3,4.1-14.6-15.1-20.9-12
		c-6.3,3.2-14.3-14.2-20.9-12c-6.6,2.2-24.4-12.9-30.4-11.9c-6,1-14.6-5.7-23.1-5.9s-15.2-10.7-19.6-8.2s-19-9.4-23.7-4.7
		c-4.7,4.8-11.1,1.6-13.9-0.6c-2.9-2.2-6-8.5-13-7.2c-7,1.3-9.8-4.1-18.7-2.2c-8.8,1.9-14.2,1.6-23.4-0.6c-9.2-2.2-19.6-5-24-2.5
		c-4.4,2.5-18.6,7.3-18.6,4.2c0-3.2-7.3-6-15.2-4.4s-10.1-1.9-23.1,0.4c-13,2.2-17.7-2.5-27.2,0.7c-9.5,3.2-20.9,3.8-29.7,5.8
		c-8.8,1.9-28.4,9.6-34.4,13.7c-6,4.1-16.1,21.2-21.8,26.3s2.6,10.7-3.4,14.9c-6,4.1,2.5,7.6-2.2,12.3c-4.7,4.8-16.1,21.2-16.4,26.6
		c-0.3,5.4-1.5,14.2-6.3,22.2s2.9,18,0.1,22.1c-2.8,4.1,0,9.5-2.5,17.7c-2.5,8.2,0.7,17.7-0.9,19.3c-1.6,1.6-6.3,9.5-6.3,9.5
		s-3.9-36.7-1.7-36.4c2.2,0.3,0.4-28,1.8-32.3C372.8,323.1,378.1,297.9,380.3,293.8z"/>
	<path d="M814.1,277.2c0,0-8-30-2.3-31.9c5.7-1.9,12.3-23.1,20.5-26.9c8.2-3.8-7.9,1.6-12.9,8.6s13.6-13,12.9-21.2
		s-5.7,14.6-14.5,19.6c-8.8,5.1,11.7-12.4,11-23.7c-0.7-11.4,8.2-13.3-4.1,3.5c-12.3,16.8,6.9-13.9,9.1-19.9
		c2.2-6-9.8,11.7-9.8,11.7l8.8-17.7l-9.5,9.5l3.4-11.7l-4.7,4.8l3.8-17.1l-5.7,8.2c0,0,3.1-19-2.9-24.3c0,0,5.4,13-0.3,21.2
		c0,0,1.2-24.7-5.8-32.9c0,0,6.4,19,2.6,23.4c0,0-0.7-11.4-5.7-13.9s3.8,5-0.3,8.5c-4.1,3.5-3.5-13.6-5.4-19.3
		c-1.9-5.7,0.6,5.1-1.6,7.9c0,0,0-12.6-4.5-16.4c0,0,2.9,5.4,0.7,8.2c0,0-4.1-2.8-5.1-8.8c0,0,0.6,5.1-1.9,7c0,0-9.2-21.2-7.3-25
		c0,0-2.5,11.4-0.9,16.1c1.6,4.7-10.1-11.4-8.3-12c1.9-0.6-13-7.2-19-12.6c-6-5.4-12-4.4-13.3-11.4c-1.3-7,2.5-1.9-2.5,5.1
		c0,0-11.1-11-12.4-14.8c-1.3-3.8,4.8,7.9,4.8,11.1c0,0-12.3-5.3-10.8-10.1c1.6-4.7,0.6,1.9-6.6,2.2c-7.3,0.3-14.3-11-13.3-14.5
		s-3.8,4.4,0,9.5s-27.2-15.1-33.9-16c-6.6-0.9-30.4-5.6-39.5-1.5c0,0,20.2,0.6,21.8,2.2c1.6,1.6-31,2-42.1,0.4
		c-11.1-1.6,25.6,4,30.4,2.5c0,0-16.8,3.5-52.2-1.4c0,0-10.4,0.3-24.7-1.2c0,0,9.5,3.1,12.7,3.1c3.2,0-17.4,1.6-25,1
		c-7.6-0.6,10.8,3.8,13.6,2.8c2.8-1-21.2,2.9-28.1,1s9.5,3.1,13.6,2.8c4.1-0.3-28.8,2.3-35.4,1.4c-6.6-0.9,3.8,5,6,5.4
		c2.2,0.3-17.7,3.8-19.6,1.3c-1.9-2.5-42.6,17.5-51.5,25.7c-8.8,8.2-36.9,31.4-38.5,36.1c-1.6,4.7-21.4,43.1-25.5,49.7
		c-4.1,6.7-11.3,26-13.5,32c-2.2,6,1,12.3-0.3,18c-1.3,5.7-5.3,25-7.5,27.8s6.6-8.6,6.6-8.6l-5,10.1l6.9-7.6l-4.1,13l5.4-9.2
		l-6.6,18l7.2-13c0,0-4.7,14.2-4.1,13c0.6-1.3,4.1-9.8,4.1-9.8l-0.3,8.5l2.2-6c0,0,1,6-0.6,10.8c-1.6,4.7,2.2,3.5,2.9,2.2
		c0.6-1.3,1.6,11.1,0.4,13.6s6.9-17.1,9.4-25.3c2.5-8.2,16.7-38.3,21.1-40.8c4.4-2.5,24.9-35.8,28.1-35.8s5.1,5.7,3.5,7.3
		s7.9-11.1,12.3-10.5c4.4,0.6,15.2,4.4,17.4,4.7c2.2,0.3-7.3-6,0-6.3c7.3-0.3,14.9,0.3,18,0.3c3.2,0,7.9-4.8,15.8-3.2
		c7.9,1.6,11.7,3.4,12.3,5.3s1.3-5.7,6-4.1c4.7,1.6,10.4,2.8,13.6,2.8c3.2,0,7.3-0.3,12.3-1c5.1-0.6,12.6-3.2,16.4-1.3
		c3.8,1.9,15.8-3.2,21.2-2.9c5.4,0.3,20.6-1.6,23.7,1.5c3.2,3.2,15.2,7.6,22.5,4.1c7.3-3.5,11.4-3.8,10.1,1.9
		c-1.3,5.7,32,7.2,38.6,11.3c6.7,4.1,18-2.9,24.4,0.3c6.3,3.1,6,5.4,10.8,6.9c4.7,1.6,12.7,3.1,17.4,4.7c4.7,1.6-6,4.1-6,4.1
		l16.4-1.3l-2.5,1.9l8.5,0.3l-9.2,4.1l13.3-1.3c0,0-3.8,1.3-1.6,1.6c2.2,0.3,14.5-0.7,14.5-0.7l-11.4,3.8l14.2-1.6l-5.7,1.9l8.2,2.5
		c0,0,1.6,1.6,8.5,3.5c7,1.9,10.4,2.8,11.4,5.7c1,2.8,7,1.9,9.8,7.2C802.7,262.1,807.2,275.3,814.1,277.2z"/>
	<path class="st27" d="M382.7,227.1c-6.4,4.1,12.3-13.6,16-37c3.7-23.4,43.8-45.3,51.4-47.9c7.6-2.5,34.4-23.2,45.8-23.8
		s53.4-20.1,63.2-22.3c9.8-2.2,39.8-13.4,41.7-14c1.9-0.6-68.9,8.4-79.3,11.9c-10.4,3.5,32.9-12.1,39.5-17.5
		c6.6-5.4-34.5,1-60.7,14.1s-43.6,27.3-55.9,31.4c-12.3,4.1-3.2-9.5-0.3-10.4c2.8-1-36.3,23.8-48.6,50.1
		C383.2,187.9,386.1,224.9,382.7,227.1z"/>
	<path class="st28" d="M442.5,116.3c0,0-24.9,26.3-28.4,31.7s21.2-12.4,30.3-16.5c9.2-4.1,16.1-8.6,23.4-12.1
		c7.3-3.5-16.4,10.8-21.1,18.7c-4.7,7.9-23.3,27.9-32.8,31.1s-22.1,22.2-21.8,26.3c0.3,4.1-5.9,26.3-9.1,29.4
		c-3.2,3.2-9.2-14.8-4.8-23.7c4.4-8.9,24.2-53.5,28.6-56C411.2,142.6,433.9,112.8,442.5,116.3z"/>
	<path class="st28" d="M720.4,120.9c0.1,0.1,0,0.3-0.2,0.3c-0.1,0-0.2,0-0.4,0c-0.2,0-0.5,0-0.7-0.1c-0.5-0.1-0.9-0.2-1.4-0.3
		c-0.9-0.2-1.8-0.5-2.7-0.8c-1.8-0.6-3.6-1.2-5.3-1.7l-10.6-3.6c-7-2.4-14.1-4.8-21.1-6.9c-7.1-2.1-14.2-4.1-21.3-5.6
		c-3.6-0.8-7.1-1.5-10.7-1.9c-3.6-0.5-7.2-0.9-10.7-0.9c-3.5-0.1-7.1,0.1-10.4,0.7c-1.7,0.3-3.3,0.7-4.9,1.2
		c-0.4,0.1-0.8,0.3-1.2,0.4l-0.6,0.2l-0.6,0.3l-2.6,1.1c-6.8,2.9-13.5,5.9-20.3,9c-6.7,3.1-13.5,6.3-20.3,9.3
		c-3.4,1.5-6.9,3-10.5,4.2c-3.6,1.2-7.2,2.3-10.9,2.9c7-2.7,13.4-6.4,19.8-10.2l9.6-5.6c3.2-1.9,6.5-3.7,9.8-5.5
		c6.5-3.6,13.3-7,20.1-10.2l2.6-1.2l0.6-0.3l0.7-0.3c0.5-0.2,1-0.4,1.4-0.6c1.9-0.7,3.9-1.2,5.9-1.6c4-0.7,7.9-1,11.8-0.9
		c7.8,0.2,15.4,1.6,22.8,3.4c7.4,1.9,14.6,4.2,21.6,6.9c7,2.7,13.9,5.7,20.6,8.9c3.4,1.6,6.7,3.3,10,5l5,2.5
		c0.8,0.4,1.7,0.8,2.5,1.2c0.4,0.2,0.8,0.4,1.3,0.6c0.2,0.1,0.4,0.2,0.7,0.2c0.1,0,0.2,0,0.3,0C720.4,121.1,720.5,121.1,720.4,120.9
		z"/>
	<path class="st28" d="M455.5,147.2l-0.2,0.1l-0.1,0.1l-0.1,0l0,0c-0.1-0.2,0-0.1,0-0.1l0.4-0.3l0.9-0.6l1.8-1.1l3.7-2.1
		c2.4-1.4,4.9-2.7,7.4-4.1c5-2.6,10-5.2,15.1-7.6c10.2-4.8,20.5-9.2,31.1-13.2c10.5-4,21.3-7.6,32.3-10.3c5.5-1.4,11.1-2.6,16.7-3.3
		c2.8-0.4,5.7-0.6,8.5-0.7c2.9,0,5.8,0.1,8.5,0.8c-5.6,0.2-11,1.8-16.3,3.3c-5.3,1.6-10.6,3.4-15.8,5.2
		c-10.5,3.7-20.9,7.7-31.4,11.6c-10.5,3.9-20.9,7.9-31.5,11.8c-5.3,1.9-10.5,3.8-15.9,5.7c-2.7,0.9-5.3,1.8-8,2.7l-4,1.3l-2,0.6
		l-1,0.3l-0.5,0.2c0-0.1,0,0.1-0.1-0.1l0,0l0.1,0l0.1,0L455.5,147.2z"/>
	<path class="st28" d="M385.2,223.6c-0.1,0.1-0.2,0.2-0.4,0.3c-0.1,0.1-0.4,0.2-0.5,0c-0.2-0.3-0.1-0.7-0.1-1c0.1-0.7,0.2-1.3,0.4-2
		c0.3-1.3,0.8-2.6,1.2-3.8c0.9-2.5,1.9-5,2.9-7.4c2.1-4.9,4.5-9.7,7-14.4c5.1-9.4,10.7-18.6,18-26.7c1.9-2,3.8-4,6.1-5.8
		c1.1-0.9,2.4-1.7,3.8-2.4c0.7-0.4,1.4-0.7,2.2-1l1.7-0.7c4.4-1.9,8.3-5,12-8.5c3.6-3.5,7.1-7.4,10.5-11.4c1.7-2,3.4-4.1,5.2-6.1
		c1.8-2,3.7-4.1,6.1-6c1.2-0.9,2.6-1.9,4.6-2.5c0.5-0.2,1-0.2,1.6-0.3c0.2-0.1,0.3-0.1,0.5-0.1c0.2,0,0.5-0.2,0.7-0.2
		c0.2-0.1,0.5-0.2,0.8-0.3c2.2-0.9,4.6-2,6.9-3.2c4.7-2.3,9.4-4.8,14.2-7.1c9.6-4.6,19.3-9.1,29.4-12.8c10-3.8,20.4-6.8,31.1-8.4
		c5.3-0.7,10.7-1.1,16.1-0.7c5.4,0.4,10.7,1.6,15.5,4c-5.1-1.6-10.3-2.2-15.5-2c-5.2,0.2-10.4,0.9-15.5,2.1
		c-5.1,1.1-10.1,2.6-15,4.4c-4.9,1.7-9.8,3.6-14.6,5.7c-2.4,1-4.8,2.1-7.2,3.2c-2.4,1.1-4.8,2.2-7.1,3.3c-4.7,2.3-9.4,4.7-14.1,7.1
		l-14.1,7.3c-2.4,1.2-4.8,2.4-7.5,3.5c-0.3,0.1-0.7,0.3-1.1,0.4c-0.4,0.1-0.7,0.3-1.2,0.4c-0.5,0.1-1.1,0.2-1.5,0.3
		c-0.1,0.1-0.2,0-0.4,0.1c-0.6,0.2-1.5,0.7-2.3,1.4c-1.8,1.4-3.5,3.2-5.2,5.1c-1.7,1.9-3.4,3.9-5.2,5.9c-3.5,4-7,8.1-11.2,11.8
		c-4.1,3.7-8.7,7.1-14.1,9.3l-2.1,0.7c-0.5,0.2-1,0.4-1.5,0.6c-1,0.5-2,1.1-3,1.8c-2,1.4-3.9,3-5.7,4.8c-3.6,3.6-6.9,7.7-10,11.8
		c-3.2,4.2-6.1,8.5-9,12.9c-2.9,4.4-5.6,8.9-8.2,13.5c-1.3,2.3-2.5,4.6-3.7,7c-0.6,1.2-1.2,2.4-1.6,3.6c-0.2,0.6-0.5,1.2-0.6,1.9
		c-0.1,0.3-0.2,0.7,0,0.9c0.1,0.1,0.2,0.1,0.4,0.1C384.9,223.8,385,223.7,385.2,223.6z"/>
	<path class="st28" d="M444.4,123.5l-0.5,0.4l-0.3,0.2l-0.1,0c-0.1-0.1,0.1,0.2-0.2-0.2c0,0,0.1-0.1,0.1-0.1l0.1-0.1l1.1-0.8
		l2.1-1.6l4.4-3.1c2.9-2,5.9-4,8.9-5.9c6-3.8,12.1-7.5,18.4-10.9c3.2-1.7,6.3-3.3,9.6-4.8c3.3-1.5,6.7-2.9,10.5-3.9
		c1-0.2,2-0.5,3.1-0.6c0.3,0,0.6,0,0.9-0.1l0.5,0c0.4,0,0.8-0.1,1.2-0.1c1.6-0.2,3.3-0.5,5-0.9c3.4-0.7,6.8-1.5,10.2-2.3
		c13.7-3.3,27.5-6.7,41.4-9.6c3.5-0.7,7-1.5,10.5-2.1c3.5-0.6,7-1.3,10.5-1.8c3.5-0.5,7.1-1,10.6-1.3c1.8-0.1,3.6-0.3,5.4-0.3
		c0.9,0,1.8,0,2.7,0.1c0.9,0.1,1.8,0.2,2.6,0.7c-0.9-0.3-1.7-0.2-2.6-0.1c-0.9,0.1-1.7,0.2-2.6,0.4c-1.7,0.3-3.4,0.7-5.2,1.1
		c-3.4,0.9-6.8,1.8-10.2,2.8c-3.4,0.9-6.8,1.9-10.2,2.9l-10.2,3c-13.6,4-27.2,7.8-41.1,11.1c-3.5,0.8-7,1.6-10.5,2.3
		c-1.8,0.3-3.6,0.6-5.5,0.8c-0.5,0.1-1,0.1-1.5,0.1l-1.3,0.1c-0.6,0.1-1.4,0.2-2.1,0.3c-3.1,0.7-6.4,1.9-9.6,3.1
		c-3.2,1.3-6.4,2.6-9.7,4.1c-3.2,1.4-6.4,2.9-9.6,4.4c-3.2,1.5-6.4,3-9.6,4.5L452,120l-4.8,2.3l-2.4,1.2l-1.2,0.6l-0.1,0.1
		c0,0,0,0,0,0c-0.2-0.4-0.1-0.1-0.1-0.2l0.1,0l0.3-0.1L444.4,123.5z"/>
	<path class="st29" d="M388,200.5l-0.1,0.1l-0.1,0.1c0,0-0.1,0-0.1,0c0-0.2,0-0.3,0-0.4c0.1-0.3,0.1-0.5,0.2-0.7
		c0.2-0.5,0.3-1,0.5-1.4c0.4-0.9,0.8-1.9,1.2-2.8c0.8-1.8,1.7-3.6,2.6-5.5c1.9-3.6,3.8-7.1,5.9-10.6c2.1-3.5,4.3-6.9,6.6-10.2
		c1.2-1.7,2.4-3.3,3.7-4.9c1.3-1.6,2.7-3.2,4.4-4.7c0.4-0.4,1-0.8,1.5-1.1l1.2-0.8c0.8-0.5,1.6-1,2.3-1.6c1.5-1,2.7-2.2,3.9-3.7
		c1.2-1.5,2.4-3.1,3.7-4.7c1.3-1.6,2.6-3.1,4-4.6c2.7-3,5.7-5.9,9-8.3c1.7-1.2,3.4-2.3,5.2-3.2c1.8-0.9,3.7-1.7,5.6-2.4
		c-1.6,1.2-3.3,2.3-4.8,3.6c-1.6,1.2-3,2.5-4.4,3.9c-2.8,2.7-5.2,5.8-7.6,8.9c-1.2,1.6-2.3,3.2-3.5,4.8c-1.1,1.6-2.3,3.2-3.5,4.9
		c-0.6,0.8-1.3,1.7-2.1,2.5c-0.8,0.8-1.7,1.6-2.5,2.2c-0.9,0.7-1.8,1.2-2.6,1.8l-1.3,0.8c-0.3,0.2-0.6,0.4-0.9,0.7
		c-1.3,1.1-2.6,2.5-3.9,4c-1.3,1.5-2.5,3-3.7,4.6c-2.4,3.1-4.8,6.3-7.2,9.5l-7,9.7l-3.5,4.9c-0.6,0.8-1.2,1.6-1.7,2.5
		c-0.3,0.4-0.6,0.8-0.8,1.2c-0.1,0.2-0.3,0.4-0.4,0.6c-0.1,0.1-0.1,0.2-0.1,0.3c0,0,0,0,0.1,0L388,200.5z"/>
	<path class="st1" d="M825.3,439.1c0,0-1.9,7-3.5,8.5c-1.6,1.6-2.9,0.4-4.1,6.7c-1.2,6.5,2.9,5.4-4.4,15.2c-3.4,4.6-5,13.3-6.3,15.8
		s-4.1,9.8-5.3,12.3s-1.9,3.8-1.9,3.8s1.6-0.8-5.1-2.5c-4.9-1.3-7.6-0.6-9.5,0c-1.9,0.6-3.3,1.4-3.3,1.4l-6.2-1.4l2.6-33
		c0,0,23.2-15.7,22.9-16.7C801,448.3,825.3,439.1,825.3,439.1z"/>
	<path class="st29" d="M554.8,134.9c0,0.1,0.2,0,0.3,0c0.1,0,0.2-0.1,0.3-0.1l0.6-0.2l1.2-0.5l2.4-1l4.8-2l9.5-3.9
		c6.4-2.6,12.8-5.1,19.2-7.6c3.2-1.2,6.4-2.4,9.7-3.6c1.6-0.6,3.3-1.1,5-1.6c0.8-0.3,1.7-0.5,2.7-0.7c0.8-0.2,1.5-0.4,2.3-0.6
		c3.1-1,6.3-2.4,9.9-3.3c3.6-0.9,7.4-1.2,11-0.8c1.8,0.2,3.7,0.5,5.4,0.9l5,1l10.1,2l20.2,4.1l20.2,4.1c3.4,0.7,6.7,1.3,10.1,1.9
		c1.7,0.3,3.4,0.6,5.1,0.8c1.7,0.2,3.4,0.5,5.1,0.4c-3.4,0.6-6.9,0.2-10.4,0.1c-3.4-0.2-6.9-0.6-10.3-0.9
		c-6.9-0.7-13.7-1.6-20.5-2.6c-6.8-1-13.6-2.1-20.4-3.3c-3.4-0.6-6.8-1.2-10.2-1.9l-5.1-1c-1.7-0.3-3.2-0.6-4.8-0.7
		c-3.2-0.3-6.3-0.1-9.4,0.6c-3.1,0.7-6.2,2-9.7,3c-0.9,0.2-1.8,0.5-2.7,0.6c-0.8,0.1-1.5,0.3-2.3,0.6c-1.6,0.4-3.2,0.9-4.9,1.4
		l-9.8,3.1c-6.5,2.1-13.1,4.2-19.7,6.2c-3.3,1-6.6,2-9.9,2.9l-5,1.4l-2.5,0.6l-1.3,0.3l-0.6,0.1c-0.1,0-0.2,0-0.3,0
		C555,135,554.8,135.1,554.8,134.9z"/>
	<path class="st4" d="M437.1,473.6c-0.5,0.2-0.9,0.4-1.5,0.5c0,0-0.1,0-0.1,0c-0.1-0.1,0-0.2,0-0.2c0.1-0.1,0.1-0.1,0.1-0.2
		c0.1-0.1,0.2-0.2,0.3-0.2l0.6-0.5l2.5-1.7c1.7-1.2,3.3-2.4,4.9-3.6c1.6-1.3,3.1-2.6,4.4-4.1c1.3-1.4,2.5-3,3.1-4.7
		c0.1-0.4,0.2-0.8,0.3-1.2c0-0.5,0.1-1,0.1-1.5c0-1,0.1-2,0.1-3c0-2,0-4-0.1-6c-0.2-4-0.5-8.1-0.9-12.1c-0.4-4-0.9-8-1.7-11.9
		c-0.4-1.9-0.9-3.8-1.5-5.5c-0.2-0.4-0.3-0.8-0.5-1.1c-0.1-0.2-0.2-0.2-0.2-0.3l-0.5-0.7c-0.7-0.9-1.2-1.8-1.7-2.7
		c-2.2-3.4-4.3-6.8-6.7-10c-2.4-3.2-4.9-6.2-7.7-8.9c-5.5-5.4-12.1-9.7-19.2-11.8c-1.8-0.5-3.6-0.9-5.5-1.1
		c-0.5-0.1-0.9-0.1-1.4-0.2l-1.3-0.1c-0.9-0.1-1.8,0-2.6,0c-3.5,0.3-6.9,1.4-9.9,3.2c-3.1,1.9-5.9,4.2-8.4,7
		c-2.5,2.8-4.8,5.9-6.9,9.2c-2.1,3.3-3.9,6.8-5.6,10.4c-0.8,1.8-1.7,3.6-2.4,5.4l-2.3,5.5c0,0,0-0.1,0-0.1c0,0,0,0.1,0,0.1
		c0,0.1,0,0.2-0.1,0.4c0,0.4-0.1,0.7,0,1.1c0,0.8,0.1,1.8,0.2,2.7c0.2,1.9,0.4,3.8,0.7,5.8c0.6,3.9,1.3,7.9,2.1,11.9
		c1.5,8,3.2,16,4.6,24c1.4,8.1,2.7,16.2,3.4,24.5c0.2,2.1,0.3,4.2,0.4,6.3l0.1,3.1l0.1,1.3l0,0.7l0.1,0.7c0.4,3.6,1.6,7.2,3.2,10.6
		c3.3,7,8.1,13.3,13.4,19.3c5.3,5.9,11.3,11.4,17.6,16.3c3.2,2.5,6.4,4.8,9.9,6.8c1.7,1,3.5,1.9,5.2,2.3c1.8,0.4,3.7,0.4,5.7,0.2
		c3.9-0.4,7.8-1.7,11.5-3.2c3.8-1.5,7.4-3.4,11-5.3c-3.4,2.3-6.8,4.5-10.5,6.4c-3.7,1.9-7.5,3.5-11.7,4.3c-2.1,0.4-4.3,0.5-6.5,0.2
		c-2.3-0.4-4.2-1.3-6.1-2.2c-3.8-1.8-7.3-4-10.7-6.3c-6.8-4.7-13.2-10-19.1-15.8c-3-2.9-5.7-6.1-8.3-9.4c-2.6-3.3-5-6.9-6.9-10.7
		c-2-3.8-3.5-8-4.3-12.5l-0.1-0.8l-0.1-0.9l-0.1-1.7l-0.1-3c-0.1-2-0.3-3.9-0.5-5.9c-0.9-7.9-2.3-15.9-3.9-23.8l-4.8-23.9
		c-0.8-4-1.6-8-2.2-12.2c-0.3-2.1-0.6-4.1-0.9-6.3c-0.1-1.1-0.2-2.2-0.2-3.4c0-0.6,0-1.3,0.1-1.9c0-0.3,0.1-0.8,0.2-1.1
		c0-0.2,0-0.4,0.1-0.6c0.1-0.3,0.2-0.5,0.3-0.8l2.5-5.8c0.8-1.9,1.7-3.8,2.6-5.7c1.8-3.8,3.8-7.5,6.1-11.1c2.3-3.6,4.8-7.1,7.8-10.3
		c2.9-3.2,6.4-6.1,10.4-8.4c4-2.2,8.5-3.7,13.2-3.9c1.2,0,2.3-0.1,3.5,0l1.7,0.1c0.6,0.1,1.1,0.2,1.7,0.2c2.2,0.3,4.3,0.9,6.5,1.5
		c4.2,1.4,8.2,3.3,11.8,5.7c3.6,2.4,6.9,5.3,9.8,8.4c5.9,6.2,10.5,13.3,14.4,20.5c0.5,0.9,1,1.8,1.5,2.5l0.4,0.5
		c0.2,0.3,0.4,0.7,0.6,1c0.3,0.6,0.5,1.2,0.7,1.7c0.7,2.2,1.1,4.3,1.4,6.4c0.6,4.2,0.9,8.3,1.1,12.4c0.2,4.1,0.2,8.2,0.1,12.3
		c-0.1,2.1-0.1,4.1-0.3,6.2c-0.1,1-0.2,2.1-0.3,3.1c-0.1,0.5-0.1,1-0.2,1.6c-0.1,0.6-0.3,1.2-0.5,1.7c-0.9,2.1-2.4,3.7-3.9,5.1
		c-1.5,1.4-3.2,2.7-4.9,3.8c-1.7,1.1-3.5,2.2-5.3,3.2l-2.7,1.5l-0.7,0.4c-0.1,0.1-0.2,0.1-0.3,0.2c0,0-0.1,0.1-0.1,0.1c0,0,0,0,0,0
		c0,0,0,0,0,0C436.1,473.9,436.6,473.7,437.1,473.6z"/>
	<path class="st4" d="M719.2,724.7c-4.1,0.9-7.9,2.6-10.4,5.6c-2.6,2.9-4.2,6.7-6.1,10.5c-0.9,1.9-1.8,3.9-2.8,5.8
		c-1,1.9-2.2,3.8-3.4,5.6c-2.5,3.7-5.4,7.1-8.7,10.1c-1.7,1.5-3.3,2.9-5.1,4.2c-1.8,1.3-3.7,2.6-5.6,3.7c-3.9,2.2-8,3.9-12.3,5.2
		c-8.5,2.6-17.3,3.6-26.1,3.2c-2.2-0.1-4.4-0.3-6.6-0.7c-2.2-0.3-4.4-0.7-6.6-1.4c-1.1-0.3-2.2-0.7-3.4-1.2c-0.6-0.3-1.2-0.6-1.8-1
		c-0.3-0.2-0.7-0.5-1.1-1c-0.2-0.3-0.4-0.6-0.6-1c-0.1-0.2-0.2-0.5-0.2-0.8c-0.1-0.5,0-0.1,0,0c0.1,0.4,0.3,0.5,0.2,0.4
		c0,0-0.1-0.1-0.2-0.2c-0.3-0.2-0.6-0.5-1-0.7c-0.8-0.5-1.7-0.9-2.6-1.4c-3.7-1.7-7.7-3.1-11.6-4.5l-12-4.1c-2-0.7-4-1.4-6-2.3
		c-0.5-0.2-1-0.5-1.5-0.8c-0.3-0.1-0.5-0.3-0.8-0.5c-0.1-0.1-0.3-0.2-0.4-0.3l-0.3-0.3c-0.9-0.8-1.5-1.6-2.2-2.4
		c-2.7-3.3-5.3-6.6-8-9.8c-1.4-1.6-2.7-3.2-4.2-4.7c-0.7-0.8-1.4-1.5-2.2-2.2c-0.7-0.7-1.5-1.5-2.2-2.2c-3-2.9-6.2-5.5-9.6-7.8
		c-0.8-0.6-1.7-1.2-2.6-1.7c-0.9-0.5-1.7-1.1-2.6-1.5l-2.7-1.3c-1-0.5-2.1-1-3.1-1.6c-3.9-2.3-7.2-5.2-10.5-8.1
		c-6.4-5.9-12-12.3-17.5-18.9c-5.5-6.5-10.7-13.2-16-19.7c-1.3-1.6-2.6-3.2-4-4.8c-0.7-0.8-1.3-1.5-2-2.2c-0.3-0.3-0.7-0.7-0.9-1
		c-0.1-0.1-0.3-0.3-0.4-0.4c-0.1-0.1-0.2-0.2-0.3-0.3c-1.4-1-2.3-2.1-3.1-3.1c-0.8-1-1.4-2-2-3c-1.2-2-2.2-3.9-3.2-5.9
		c-1.9-4-3.5-7.9-5.1-11.9c-1.5-4-3-8-4.3-12c-1.4-4-2.6-8.1-3.9-12.1c-0.6-2-1.2-4-1.8-6.2c-0.5-2.1-1-4.2-1.5-6.3
		c-1-4.1-1.8-8.3-2.6-12.4c-0.8-4.1-1.6-8.3-2.4-12.5c-1.5-8.3-2.9-16.7-4-25l0.8-0.2c5,16.1,9.5,32.5,14.3,48.5
		c0.6,2,1.2,4,1.9,5.9c0.6,1.9,1.4,3.9,2.1,5.8c1.4,3.9,2.9,7.9,4.4,11.8c3.1,7.8,6.2,15.6,9.8,22.9c0.9,1.8,1.8,3.6,2.8,5.2
		c0.5,0.8,1,1.6,1.5,2.2c0.5,0.6,1,1.2,1.3,1.4l0.9,0.7c0.3,0.2,0.5,0.5,0.7,0.7c0.5,0.5,0.8,0.9,1.3,1.3c0.8,0.9,1.5,1.7,2.2,2.5
		c1.4,1.7,2.7,3.4,4,5.1c5.2,6.7,10.2,13.5,15.3,20.1c5.1,6.6,10.4,13.1,16.1,19c1.4,1.5,2.9,2.9,4.4,4.3c1.5,1.4,3,2.7,4.6,3.8
		c0.8,0.6,1.6,1.1,2.4,1.6l2.9,1.7c1,0.6,1.8,1.3,2.7,1.9c0.9,0.6,1.8,1.3,2.6,2c6.8,5.5,12.3,12.1,17.6,18.7
		c2.6,3.3,5.2,6.7,7.8,10c0.7,0.8,1.3,1.6,2,2.2c0.6,0.6,1.4,1,2.4,1.4c1.9,0.8,3.9,1.4,5.8,2.1c4,1.2,8.1,2.3,12.2,3.4
		c4.1,1.1,8.2,2.2,12.3,3.6c1,0.4,2.1,0.8,3.2,1.3c0.5,0.3,1.1,0.5,1.7,0.9c0.3,0.2,0.6,0.5,1,0.8c0.3,0.4,0.8,0.8,1,1.8
		c0.1,0.2,0.1,0.7,0.1,0.4c0-0.1-0.1-0.3-0.1-0.4c-0.1-0.2-0.1-0.3-0.2-0.4c0-0.1,0,0,0.1,0c0.2,0.1,0.6,0.3,1,0.4
		c0.8,0.3,1.7,0.5,2.7,0.7c3.8,0.7,7.9,0.9,11.9,0.9c8.1-0.1,16.2-1.1,23.9-3.3c3.8-1.1,7.6-2.6,11.1-4.4c1.8-0.9,3.5-1.9,5.1-3
		c1.6-1.1,3.3-2.3,4.8-3.6c3-2.6,5.9-5.4,8.4-8.6c2.5-3.2,4.7-6.6,6.8-10.2c2.2-3.6,4.4-7.5,7.9-10.5c1.7-1.5,3.8-2.6,5.9-3.3
		c2.1-0.7,4.3-1,6.4-1.1L719.2,724.7z"/>
	<path class="st4" d="M761.3,623.2c3.2,0.1,6.4,0.2,9.5,0c0.8,0,1.5-0.1,2.3-0.2c0.7-0.1,1.5-0.2,2.1-0.4l1.1-0.4
		c0.4-0.1,0.8-0.3,1.2-0.4l2.3-0.7c3-0.9,5.7-2,8.1-3.7c2.4-1.7,4.6-3.6,6.5-5.9l1.4-1.8c0.2-0.3,0.4-0.6,0.6-0.9
		c0.2-0.3,0.3-0.6,0.5-0.9c0.6-1.2,1.1-2.5,1.5-3.8c0.8-2.7,1.1-5.6,1.1-8.6c0-3-0.2-6-0.7-9c-0.2-1.5-0.5-3-0.8-4.5
		c-0.3-1.5-0.7-3-1.1-4.4l0.2,0.5c-2.4-5.2-4.2-10.5-5.5-15.9c-1.4-5.4-2.3-10.8-3.2-16.2l-2.4-16.2c-0.9-5.4-1.8-10.7-3-16l0.1,0.3
		l-1.5-3.8c-0.5-1.3-0.9-2.6-1.3-3.9c-0.4-1.3-0.7-2.7-1-4l-0.3-2c-0.1-0.7-0.2-1.4-0.2-2.1c-0.3-2.7-0.1-5.6,0.5-8.3
		c0.6-2.7,1.8-5.3,3.2-7.7c0.7-1.2,1.5-2.3,2.2-3.4c0.3-0.5,0.7-1.1,1-1.6l0.2-0.4l0.3-0.5c0.2-0.3,0.4-0.7,0.6-1
		c1.6-2.3,3.4-4.3,5.2-6.3c3.5-4,7.1-8,10.7-11.9c3.6-3.9,7.3-7.8,11-11.6c1.8-1.9,3.7-3.8,5.6-5.7l1.4-1.4l0.7-0.7l0.3-0.3
		c0.1-0.1,0.1-0.1,0.1-0.1l0,0c0,0,0.1-0.2,0.1-0.3c0.1-0.2,0.1-0.3,0.2-0.5c0.1-0.4,0.3-0.9,0.4-1.4c0.4-2.2,0.6-4.8,0.7-7.3
		c0.1-2.6,0.1-5.2,0.1-7.8l-0.2-15.9c-0.1-10.6,0-21.3,0.5-32c0.1-2.7,0.2-5.3,0.4-8l0.4-7.9c0.1-2.6,0.2-5.2,0.3-7.8
		c0-2.6,0-5.2,0-7.8c-0.1-5.2-0.4-10.3-1.3-15.3c-0.2-1.3-0.5-2.5-0.8-3.7c-0.3-1.2-0.6-2.4-1-3.6c-0.2-0.6-0.4-1.2-0.7-1.7
		c-0.2-0.6-0.5-1.1-0.8-1.7c-0.5-1.2-1.2-2.3-1.7-3.9l-0.2-0.6c-0.1-0.2-0.1-0.4-0.1-0.7c-0.1-0.4-0.2-0.9-0.2-1.2l-0.1-0.9
		l-0.2-0.9c-0.2-1.2-0.5-2.5-0.8-3.8c-0.6-2.5-1.3-5.1-1.9-7.7l-4.1-15.4l0.8-0.3c2.2,4.9,4.3,9.7,6.3,14.7c1,2.5,2,5,2.9,7.5
		c0.5,1.3,0.9,2.5,1.3,3.9l0.3,1l0.3,1.1c0.1,0.4,0.2,0.6,0.2,0.8l0.1,0.3l0.2,0.3c0.4,0.9,1.2,2,1.8,3.2c0.4,0.6,0.7,1.2,1,1.9
		c0.3,0.6,0.6,1.3,0.9,1.9c1.2,2.6,2.1,5.3,2.7,8c0.3,1.4,0.7,2.7,0.9,4.1c0.2,1.4,0.5,2.7,0.7,4.1c0.2,1.4,0.4,2.7,0.5,4.1l0.4,4.1
		c0.2,2.7,0.3,5.4,0.4,8.1c0,2.7,0.1,5.4,0.1,8.1l-0.1,8.1l-0.2,7.9l-0.7,31.7c-0.1,5.3-0.2,10.6-0.4,16c-0.1,2.7-0.2,5.4-0.4,8.1
		c-0.2,2.7-0.4,5.5-1.1,8.5c-0.2,0.8-0.4,1.5-0.8,2.4c-0.1,0.4-0.4,0.9-0.6,1.3l-0.4,0.7c-0.1,0.2-0.3,0.5-0.5,0.7l-0.3,0.4
		c-0.1,0.1-0.2,0.2-0.3,0.3l-0.4,0.4l-0.7,0.7l-1.5,1.4c-1.9,1.8-3.9,3.6-5.9,5.4L806.1,461c-3.9,3.6-7.8,7.1-11.6,10.8
		c-1.8,1.9-3.7,3.7-5.3,5.7l-0.5,0.7l-0.2,0.3l-0.3,0.5c-0.4,0.7-0.8,1.2-1.2,1.8c-0.8,1.1-1.6,2.1-2.3,3.2
		c-2.9,4.2-4.1,9.3-3.7,14.3c0,0.6,0.1,1.3,0.2,1.9l0.3,1.9c0.3,1.2,0.6,2.5,1,3.7c0.5,1.2,0.8,2.4,1.4,3.6l1.7,3.5l0.1,0.1l0,0.2
		c1.5,5.3,2.9,10.6,4.3,15.8l4,15.8c1.3,5.3,2.7,10.5,4.2,15.6c1.5,5.1,3.2,10.1,5.3,14.8l0.1,0.3l0.1,0.2c0.5,1.8,0.8,3.3,1.1,5
		c0.3,1.6,0.6,3.3,0.8,5c0.4,3.3,0.6,6.7,0.4,10.1c-0.2,3.4-0.7,6.9-1.8,10.3c-0.6,1.7-1.3,3.4-2.4,4.9c-0.5,0.8-1.1,1.6-1.6,2.2
		c-0.6,0.6-1.1,1.3-1.7,1.9c-2.4,2.5-5.1,4.7-8.2,6.3c-3,1.6-6.4,2.7-9.7,3.3l-2.4,0.4c-0.4,0.1-0.8,0.1-1.1,0.2l-1.2,0.3
		c-1.9,0.3-3.5,0.2-5.1,0.1c-3.3-0.3-6.4-0.8-9.6-1.6L761.3,623.2z"/>
	<path class="st4" d="M674,677.3c0,0.1,0.1,0.3,0,0.3c-0.1,0-0.1,0,0-0.1c0,0,0.1-0.1,0.1-0.1c0.2-0.2,0.3-0.4,0.5-0.6
		c0.4-0.4,0.8-0.7,1.2-1c0.9-0.6,1.8-1,2.8-1.4c2-0.6,4.1-0.8,6.2-0.8c1.1,0,2.1,0.1,3.1,0.1c0.5,0,1,0,1.5,0c0.5,0,1,0,1.5-0.1
		c2-0.2,3.9-0.7,5.7-1.5c0.9-0.4,1.8-0.9,2.7-1.4c0.9-0.5,2.1-1,3.4-1c0.3,0,0.7,0,1,0.1l0.9,0.2c0.5,0.1,0.8,0.2,1.3,0.2
		c0.5,0.1,0.9,0.1,1.4,0.1c0.5,0,1,0.1,1.5,0.1c4,0.1,8.2-0.1,12.3-0.1c1,0,2.1,0.1,3.2,0.1c0.5,0.1,1.1,0.1,1.7,0.2
		c0.3,0,0.7,0.2,1,0.3c0.3,0.1,0.5,0.2,0.7,0.4c1.8,0.9,3.7,1.7,5.6,2.4c1.9,0.7,3.9,1.3,5.9,1.6c1,0.2,2,0.2,3,0.2
		c0.5,0,1-0.1,1.4-0.2l1.5-0.4c2-0.6,4-1.1,5.8-2c1.8-0.8,3.6-1.9,4.8-3.5c0.6-0.8,1.1-1.6,1.4-2.5c0.4-1,0.7-2,1.1-2.9
		c0.4-1,0.9-1.9,1.3-2.8c0.4-0.9,0.8-1.9,0.8-2.6c0-0.4-0.1-0.7-0.3-1c-0.1-0.1-0.3-0.4-0.3-0.4c-0.1-0.1-0.1,0,0,0
		c0.1,0-0.3,0.2-0.6,0.5c-0.3,0.3-0.6,0.7-0.9,1.2c-0.6,0.8-1.1,1.7-2,2.6c-0.5,0.4-1,0.9-2.1,1c-0.2,0-0.5,0-0.8-0.1
		c-0.1,0-0.2-0.1-0.3-0.1l-0.2-0.1c-0.2-0.1-0.4-0.2-0.7-0.3c-1.8-0.7-3.8-1.3-5.7-1.6c-0.5-0.1-0.9-0.1-1.5-0.2
		c-0.8-0.1-1.3-0.4-1.8-0.6c-0.9-0.4-1.7-0.7-2.6-0.8c-1.7-0.2-3.6,0.1-5.5,0.7c-1.9,0.6-3.6,1.4-5.6,2.3c-3.9,1.6-8,2.8-12.1,3.7
		c-2,0.4-4.2,0.7-6,1.2l-0.7,0.2c-0.3,0.1-0.6,0.1-0.9,0.2c-0.6,0.1-1.1,0.2-1.7,0.2c-1.1,0.1-2.1,0.1-3.1,0.2
		c-2,0.1-3.9,0.3-5.7,0.9c-1.8,0.7-3.7,1.6-5.7,2.4c-1,0.4-2,0.8-3.1,1c-0.6,0.1-1.2,0.2-1.9,0.1c-0.2,0-0.4-0.1-0.6-0.2
		c-0.1-0.1-0.2-0.1-0.3-0.2l-0.2-0.2c-0.1-0.1-0.3-0.3-0.5-0.4c-1.6-0.9-3.7-1.1-5.7-0.8c-1,0.2-1.9,0.4-2.7,1
		c-0.9,0.6-1.9,1-2.7,1.5c-0.9,0.5-1.7,1.2-2,2.1C673.8,675.2,673.8,676.3,674,677.3z M673.7,677.3c-0.1-1-0.2-2.1,0.2-3.1
		c0.2-0.5,0.5-1,0.8-1.4c0.4-0.4,0.8-0.7,1.3-1c0.9-0.6,1.8-1,2.6-1.6c0.8-0.7,1.9-1.1,2.9-1.3c1-0.2,2.1-0.3,3.2-0.3
		c1.1,0.1,2.2,0.2,3.3,0.7c0.3,0.1,0.5,0.3,0.8,0.5c0.1,0.1,0.1,0.1,0.1,0.1c0,0,0,0,0.1,0c0,0,0.1,0,0.2,0c0.3,0,0.7,0,1.2-0.2
		c0.9-0.3,1.8-0.7,2.7-1.2c1.8-0.9,3.6-2,5.6-2.9c2.1-0.9,4.4-1.2,6.4-1.4l3-0.3c0.5-0.1,1-0.1,1.4-0.2c0.2-0.1,0.4-0.1,0.6-0.2
		l0.7-0.2c1.1-0.3,2.1-0.5,3.2-0.7c1-0.2,2-0.4,3-0.6c4-0.8,7.8-2,11.6-3.5c3.7-1.5,7.9-3.5,12.7-2.9c1.2,0.2,2.4,0.6,3.3,1.1
		c0.5,0.2,0.9,0.4,1.1,0.4c0.4,0.1,1.1,0.2,1.6,0.3c2.1,0.5,4.1,1.2,6.1,2.1c0.2,0.1,0.5,0.2,0.7,0.4l0.2,0.1c0,0,0,0,0,0
		c0,0,0,0,0,0c0,0,0.3-0.1,0.6-0.3c0.6-0.5,1.3-1.4,1.9-2.2c0.3-0.4,0.7-0.8,1.1-1.3c0.2-0.2,0.4-0.4,0.7-0.6
		c0.3-0.2,0.7-0.4,1.3-0.4c0.6,0,1.1,0.4,1.3,0.7c0.1,0.2,0.2,0.3,0.3,0.4c0.1,0.1,0.2,0.3,0.2,0.4c0.3,0.6,0.4,1.3,0.4,1.9
		c-0.1,1.3-0.7,2.3-1.2,3.2c-0.5,0.9-1,1.8-1.4,2.7c-0.5,0.9-0.8,1.8-1.3,2.8c-0.4,1-1,2-1.7,2.8c-1.4,1.7-3.3,2.8-5.2,3.7
		c-1.9,0.9-3.9,1.5-5.9,2.1c-0.5,0.2-1,0.3-1.5,0.5c-0.5,0.2-1.1,0.3-1.6,0.3c-0.5,0.1-1.1,0.1-1.6,0.1c-0.5,0-1.1,0-1.6-0.1
		c-2.1-0.2-4.2-0.7-6.2-1.2c-2-0.6-4-1.3-6-2.1c-0.2-0.1-0.5-0.2-0.7-0.3c-0.2,0-0.3-0.1-0.5-0.1c-0.4-0.1-0.9-0.1-1.4-0.1
		c-1,0-2,0-3,0c-4.1,0.1-8.2,0.4-12.5,0.2c-0.5,0-1.1-0.1-1.6-0.1c-0.5,0-1.1-0.1-1.6-0.2c-0.5-0.1-1.2-0.3-1.7-0.4l-0.6-0.2
		c-0.2,0-0.4,0-0.6-0.1c-1.5-0.1-3.4,1.1-5.5,1.7c-2.1,0.7-4.2,1-6.4,1c-2.1,0-4.2-0.3-6.2-0.5c-2-0.2-4.1-0.1-6.1,0.4
		c-1,0.3-1.9,0.7-2.8,1.2c-0.4,0.3-0.8,0.6-1.2,1c-0.2,0.2-0.3,0.4-0.5,0.6c0,0.1-0.1,0.1-0.1,0.2c0,0-0.1,0.1-0.1,0.1
		c0,0-0.2,0.1-0.3,0c-0.1-0.1-0.1-0.2-0.1-0.3C673.7,677.4,673.7,677.4,673.7,677.3z"/>
	<path class="st4" d="M673.8,677.1c0.1,0,0.1,0,0.2,0.1l0.1,0.1l0.2,0.1l0.3,0.2l0.6,0.4l1.3,0.7c0.9,0.5,1.8,0.9,2.7,1.3
		c1.8,0.8,3.6,1.4,5.5,1.9c0.9,0.2,1.9,0.4,2.8,0.5c1,0.1,1.9,0.2,2.9,0.3l5.9,0.5c2,0.2,4,0.4,6,0.7c2,0.3,4,0.6,6.1,1.3l1.4,0.6
		c0.4,0.1,0.8,0.3,1.3,0.4c0.9,0.2,1.8,0.4,2.8,0.6c1.9,0.3,3.8,0.5,5.8,0.6l3,0.3c0.5,0.1,1,0.1,1.5,0.2c0.5,0.1,0.9,0.2,1.4,0.2
		c1.9,0.2,3.8,0.1,5.6-0.2c0.9-0.2,1.8-0.5,2.8-0.8c1-0.2,2.1-0.5,3.2-0.3c0.6,0.1,1.1,0.4,1.6,0.8c0.5,0.4,0.7,0.8,1.1,1.1
		c0.7,0.8,1.3,1.6,1.8,2.4c2.3,3.3,3.7,7.3,3.6,11.4l-0.1,1.5l-0.2,1.5c-0.1,0.5-0.2,1-0.3,1.5c-0.1,0.5-0.2,1-0.4,1.5
		c-0.7,1.9-1.6,3.7-2.5,5.5c-0.9,1.8-1.9,3.5-3.1,5.2c-1.2,1.7-2.5,3.3-4.4,4.5c-0.9,0.6-2,1-3.1,1.3c-0.6,0.1-1.1,0.2-1.7,0.2
		c-0.6,0-1.2,0-1.7-0.1c-2.2-0.3-4.1-0.9-6-1.6c-1-0.3-1.9-0.7-2.8-1.1l-1.4-0.6l-0.2-0.1l-0.1,0c-1.6,2,2.3-2.6,1.4-2.6
		c0,0-0.1-0.1-0.1-0.1l0.1,0l-0.1,0c-0.2,0,0.1-0.1-0.6-0.1c-1.2-0.3-1.7,2.7-1.2,2.1c0.1,0.2,0.1,0.1,0.1,0.2c0,0,0,0,0,0
		c-0.1-0.1-0.3-0.2-0.4-0.4c-1.5-1.2-3.1-2.3-4.7-3.4c-1.6-1-3.3-2.1-4.9-2.8c-0.4-0.2-0.8-0.3-1-0.3l-0.3,0c-0.2,0-0.3,0-0.5-0.1
		c-0.3,0-0.6-0.1-0.9-0.2c-1.1-0.3-2.1-0.6-3-1c-1.9-0.7-3.7-1.6-5.6-2.5c-0.9-0.4-1.8-0.9-2.7-1.4c-0.4-0.2-0.9-0.5-1.3-0.8
		c-0.5-0.3-0.9-0.5-1.4-1c-0.1-0.1-0.2-0.1-0.3-0.3c-0.1-0.1-0.2-0.2-0.3-0.7c0-0.3-0.1-0.6,0.2-1.1c0.3-0.5,0.4-0.4,0.7-0.6
		c0.1-0.1-0.3,0.1-0.4,0.3c-0.3,0.3-0.5,0.8-0.4,1.1c0.1,0.4,0.1,0.4,0.2,0.6c0.1,0.1,0.1,0.1,0.1,0.2c0.1,0.1,0.1,0.1,0.1,0.1
		c-0.1-0.1-0.3-0.2-0.5-0.4l-1.2-0.9c-0.8-0.6-1.6-1.2-2.4-1.9c-1.6-1.3-3.1-2.8-4.4-4.4c-1.3-1.6-2.4-3.4-3.2-5.4
		c-0.4-1-0.7-2-0.9-3c-0.1-0.5-0.2-1-0.2-1.5l-0.2-1.4c-0.3-1.9-0.7-3.8-1.3-5.6c-0.4-0.9-0.8-1.7-1.3-2.5c-0.3-0.4-0.6-0.8-0.8-1.3
		C673.2,678.3,673.3,677.7,673.8,677.1z M673.8,677.4c0,0.2,0,0.3-0.1,0.6c0,0.2,0,0.4,0.1,0.6c0.2,0.4,0.6,0.7,0.9,1.1
		c0.7,0.8,1.2,1.6,1.7,2.6c0.9,1.8,1.5,3.8,1.9,5.8l0.3,1.5c0.1,0.5,0.2,0.9,0.3,1.4c0.3,0.9,0.6,1.8,1,2.6c0.8,1.7,1.9,3.2,3.2,4.6
		c1.3,1.4,2.7,2.7,4.2,3.8c0.8,0.6,1.5,1.1,2.4,1.7l1.2,0.8c0.2,0.2,0.4,0.3,0.7,0.5c0.1,0.1,0.2,0.1,0.3,0.3c0,0.1,0.1,0.1,0.2,0.2
		c0.1,0.2,0.1,0.2,0.2,0.6c0,0.3-0.1,0.8-0.5,1.2c-0.1,0.2-0.6,0.3-0.5,0.3c0.3-0.1,0.3-0.1,0.6-0.5c0.2-0.5,0.2-0.7,0.2-1
		c-0.1-0.4-0.2-0.5-0.2-0.5c-0.1-0.1-0.1-0.1-0.1-0.1c0.2,0.1,0.6,0.4,1,0.6l1.3,0.7c0.9,0.4,1.7,0.9,2.6,1.3
		c1.8,0.8,3.6,1.6,5.4,2.2c0.9,0.3,1.8,0.6,2.6,0.8c0.2,0.1,0.4,0.1,0.6,0.1l0.2,0l0.1,0c0.1,0,0.2,0,0.3,0c0.8,0.1,1.3,0.3,1.9,0.5
		c2.1,0.9,3.7,2,5.4,3.2c1.7,1.2,3.2,2.4,4.8,3.7c0.2,0.2,0.4,0.3,0.7,0.6l0.1,0.2c0.1,0.1,0,0,0.2,0.3c0.5-0.6,0,2.4-1.3,2.2
		c-0.7,0-0.5-0.1-0.7-0.1l-0.1-0.1l-0.1,0l-0.2-0.1c-0.9,0,3-4.6,1.4-2.6l0.1,0l0.2,0.1l1.3,0.6c0.9,0.4,1.8,0.8,2.7,1.1
		c1.8,0.7,3.6,1.3,5.4,1.6c0.4,0.1,0.9,0.1,1.3,0.1c0.4,0,0.9-0.1,1.3-0.1c0.8-0.1,1.6-0.4,2.4-0.9c1.5-0.8,2.8-2.2,4-3.7
		c1.2-1.5,2.3-3.1,3.3-4.8c1-1.7,2-3.4,2.7-5.2c0.7-1.8,1.2-3.6,1.3-5.6c0.2-3.8-1.2-7.7-3.4-10.8c-0.5-0.8-1.2-1.5-1.8-2.2
		c-0.3-0.3-0.7-0.7-1-1c-0.3-0.3-0.7-0.4-1.1-0.5c-0.8-0.1-1.7,0.1-2.6,0.4c-0.9,0.3-1.8,0.7-2.8,1c-2,0.6-4.1,0.8-6.2,0.7
		c-0.5,0-1.1-0.1-1.5-0.1c-0.4,0-0.9,0-1.4-0.1c-1,0-2,0-3-0.1c-2-0.1-4-0.2-6-0.5c-1-0.2-2-0.3-3.1-0.6c-0.5-0.1-1-0.3-1.6-0.5
		l-1.3-0.6c-1.7-0.6-3.6-1-5.5-1.3c-1.9-0.3-3.9-0.6-5.8-0.9c-2-0.2-3.9-0.5-5.9-0.8c-1-0.1-2-0.3-3-0.5c-1-0.2-2-0.5-3-0.8
		c-1.9-0.7-3.8-1.5-5.5-2.6c-0.9-0.5-1.7-1-2.5-1.6c-0.4-0.3-0.8-0.6-1.2-0.9l-0.6-0.5l-0.3-0.2L673.8,677.4L673.8,677.4
		C673.8,677.5,673.8,677.5,673.8,677.4z"/>
	<path class="st4" d="M760.3,623.9c-0.6,0.4-0.8,1-1,1.6c-0.2,0.6-0.4,1.3-0.5,1.9c-0.3,1.3-0.4,2.6-0.6,3.9l0,0.2l-0.2,0.2
		c-0.3,0.3-0.4,0.6-0.4,0.9c0,0.3,0.1,0.8,0.2,1.2c0.1,0.5,0.3,1,0.3,1.7c0,0.3,0,0.6,0,0.9l0,0.2l0,0.1l0,0.3c0.2,1.9,0.5,4,0.8,6
		l0.4,3.1l0.4,3.1c0.2,2.1,0.5,4.1,0.6,6.2c-0.7-2-1.3-4-1.9-6c-0.3-1-0.5-2-0.8-3l-0.7-3.1c-0.4-2.1-0.8-4.1-0.9-6.3l0-0.5l0-0.3
		l0-0.2c0-0.2,0-0.4,0-0.6c0-0.4-0.1-0.9-0.2-1.4c-0.1-0.5-0.2-1.1-0.1-1.8c0.1-0.7,0.5-1.4,1-1.8l-0.2,0.4c0.3-1.4,0.7-2.7,1.2-3.9
		c0.3-0.6,0.5-1.3,0.9-1.9C759.2,624.7,759.6,624.1,760.3,623.9z"/>
	<path class="st4" d="M748.3,632.2c0.1,0,0.1-0.1,0.3-0.1c0.1,0.2,0.1,0.3,0.1,0.4c0,0.2-0.1,0.4-0.2,0.6c-0.1,0.4-0.3,0.7-0.4,1
		l-0.8,1.9c-0.5,1.3-1,2.6-1.3,3.8c-0.4,1.3-0.6,2.6-0.7,3.9c-0.1,1.4-0.1,2.7,0,4.2c-1.7-2.5-2-5.8-1.2-8.7
		c0.4-1.5,1.1-2.8,1.9-4.1c0.4-0.6,0.9-1.2,1.4-1.7l0.8-0.8c0.1-0.1,0.3-0.3,0.4-0.4c0.1-0.1,0.1-0.1,0.1-0.1
		C748.5,632.2,748.4,632.2,748.3,632.2z"/>
	<path class="st4" d="M709.4,610.5c1.5,2.4,3.4,4.6,5.8,5.9c0.6,0.4,1.2,0.6,1.8,0.9c0.6,0.2,1.3,0.4,1.9,0.5c0.6,0.2,1.3,0.1,2,0.2
		c0.7,0,1.3-0.1,2-0.2c1.4-0.2,2.7-0.5,3.9-1c1.2-0.5,2.4-1.1,3.5-1.9c1.1-0.8,2.1-1.7,3.3-2.7c0.6-0.5,1.3-0.9,2.1-1.2l0.6-0.2
		l0.6-0.1l0.5-0.1c0.1,0,0.3-0.1,0.4-0.1c1.2-0.3,2.6-0.9,3.9-1.3c1.3-0.5,2.7-1,4.1-1.4c2.8-0.8,5.7-1.4,8.6-1.3
		c2.9,0,5.9,0.7,8.4,2.1c2.5,1.5,4.6,3.6,6,6.1c-0.5-0.5-0.9-1.1-1.4-1.6l-0.7-0.7l-0.8-0.7c-1.1-0.9-2.2-1.6-3.5-2.2
		c-2.5-1.2-5.2-1.6-8-1.5c-2.7,0.1-5.4,0.7-8.1,1.6c-1.3,0.4-2.6,0.9-4,1.4c-1.3,0.5-2.6,1-4.1,1.4c-0.2,0-0.4,0.1-0.6,0.1l-0.6,0.1
		l-0.4,0.1l-0.4,0.1c-0.5,0.2-1.1,0.5-1.6,0.9c-1.1,0.8-2.1,1.8-3.3,2.6c-1.2,0.8-2.6,1.6-4,2c-1.4,0.5-2.9,0.8-4.3,0.9
		c-3,0.3-6.1-0.4-8.5-2.2C712.3,615.5,710.4,613.1,709.4,610.5z"/>
	<path class="st4" d="M692.2,675.3c0.3,1.9,0.4,3.7,0.4,5.7c0,0.2,0,0.5,0,0.7c0,0,0.1,0.2,0.2,0.3c0.3,0.2,0.7,0.4,1.1,0.6
		c0.8,0.4,1.7,0.6,2.6,0.9c3.6,0.9,7.2,1.9,10.9,2.4l-0.2,0.1c0.3-0.9,0.6-1.8,1-2.7c0.2-0.5,0.4-0.9,0.6-1.3
		c0.1-0.2,0.2-0.4,0.4-0.7c0.1-0.2,0.3-0.5,0.7-0.6c0.2-0.1,0.4,0,0.6,0.1c0.1,0.1,0.3,0.2,0.3,0.3c0.2,0.2,0.3,0.4,0.5,0.6
		c0.3,0.4,0.5,0.9,0.7,1.3c0.4,0.9,0.8,1.8,1.1,2.7c0.1,0.2,0.2,0.5,0.2,0.5c0.1,0.1,0.2,0.2,0.4,0.3c0.4,0.2,0.8,0.4,1.2,0.5
		c0.9,0.3,1.8,0.5,2.7,0.7c1.9,0.4,3.8,0.7,5.6,0.9l-0.4,0.3c0.7-1.4,1.4-2.7,2.1-4.1c0.6-1.4,1.3-2.8,1.7-4.2l0.1,0
		c-0.1,0.8-0.3,1.5-0.5,2.3c-0.2,0.7-0.5,1.5-0.8,2.2c-0.5,1.5-1.2,2.9-1.8,4.3l-0.1,0.3l-0.3,0c-1.9-0.1-3.9-0.4-5.8-0.8
		c-1-0.2-1.9-0.4-2.8-0.8c-0.5-0.2-0.9-0.4-1.4-0.7c-0.2-0.2-0.5-0.3-0.7-0.6c-0.2-0.4-0.2-0.5-0.3-0.8c-0.3-0.9-0.6-1.8-0.9-2.7
		c-0.2-0.4-0.4-0.9-0.6-1.3c-0.1-0.2-0.2-0.4-0.3-0.5c-0.1-0.2-0.3-0.3-0.3-0.2c-0.1,0-0.2,0.1-0.4,0.3c-0.1,0.2-0.3,0.4-0.4,0.6
		c-0.2,0.4-0.5,0.8-0.7,1.3c-0.4,0.9-0.7,1.8-1.1,2.7l0,0.1l-0.1,0l-5.6-0.8c-1.9-0.3-3.7-0.6-5.6-1.1c-0.9-0.3-1.8-0.5-2.7-0.9
		c-0.4-0.2-0.9-0.4-1.3-0.8c-0.2-0.2-0.4-0.5-0.4-0.9c0-0.2,0.1-0.4,0.1-0.7c0.1-0.9,0.1-1.8,0.2-2.8
		C692.1,677.2,692.1,676.3,692.2,675.3L692.2,675.3z"/>
	<path class="st4" d="M724.9,685.5c0.3,0.6,0.6,1.3,1,1.9l0.2,0.5l0.1,0.2c0,0.1,0.1,0,0.1,0.1c0.2,0.1,0.6,0.2,0.9,0.2
		c1.4,0.1,2.8-0.1,4.1-0.3l-0.1,0c0.9-0.3,1.9-0.7,2.8-1l-0.3,0.2c0.9-1.9,1.9-3.7,2.9-5.6l0.4-0.7c0.1-0.2,0.2-0.4,0.2-0.6
		c0.1-0.5,0.2-1,0.2-1.5c0.1-1,0.1-2.1,0.2-3.1c0.2,1,0.3,2.1,0.3,3.1c0,0.5,0,1.1-0.1,1.6c0,0.3-0.1,0.6-0.2,0.8l-0.3,0.7
		c-0.9,1.9-1.8,3.8-2.7,5.6l-0.1,0.2l-0.2,0.1c-1,0.3-1.9,0.6-2.9,0.9l-0.1,0l0,0c-0.7,0.1-1.4,0.1-2.2,0.1c-0.7,0-1.4,0-2.2-0.1
		c-0.4-0.1-0.7-0.1-1.1-0.4c-0.1-0.1-0.2-0.3-0.2-0.3l-0.1-0.3l-0.2-0.5C725.3,686.8,725.1,686.2,724.9,685.5z"/>
	<path class="st4" d="M744,675.8c0.3,0.5,0,1.1-0.2,1.6c-0.2,0.5-0.5,0.9-0.7,1.4l-0.4,0.7c-0.1,0.2-0.2,0.4-0.4,0.7
		c-0.3,0.5-0.7,0.9-1,1.3c-0.7,0.8-1.4,1.5-2,2.3c-0.3,0.4-0.6,0.8-0.9,1.2c-0.3,0.4-0.5,0.9-0.4,1.4c-0.3-0.5-0.2-1.1,0-1.6
		c0.2-0.5,0.4-1,0.7-1.4c0.6-0.9,1.2-1.7,1.9-2.5c0.3-0.4,0.7-0.8,1-1.1c0.1-0.1,0.2-0.4,0.4-0.6c0.1-0.2,0.3-0.4,0.5-0.6
		c0.3-0.4,0.7-0.8,1-1.2C743.7,676.8,744,676.4,744,675.8z"/>
	<path class="st4" d="M711.4,673.1c0.2,0.7,0.3,1.4,0.4,2.1c0.1,0.7,0,1.4,0,2.1c-0.1,0.7-0.2,1.4-0.5,2.1c-0.3,0.7-0.7,1.3-1.4,1.6
		c0.5-0.5,0.8-1.1,1-1.8c0.2-0.6,0.3-1.3,0.4-2C711.4,675.9,711.4,674.5,711.4,673.1z"/>
	<path class="st4" d="M434.8,465.4c-0.1,0.1-0.2,0.2-0.3,0.2c-0.1,0-0.1,0.1-0.2,0.1c-0.1,0-0.2-0.1-0.2-0.2c-0.1-0.3,0-0.6,0-0.9
		c0.1-0.5,0.2-1,0.3-1.5c0.3-1,0.6-2,0.9-2.9c0.6-1.9,1.2-3.8,1.7-5.8c0.5-1.9,0.9-3.8,1.1-5.7c0.2-1.9,0.1-3.7-0.6-5.2l2.1,0.6
		c-1.4,0.8-2.8,1.5-4.2,2.1c-1.4,0.6-2.9,1.2-4.4,1.7c-1.5,0.5-3,0.9-4.6,1.1l-1.2,0.1c-0.4,0-0.8,0-1.2,0c-0.4,0-0.8-0.1-1.2-0.2
		c-0.4-0.1-0.8-0.3-1.1-0.4c1.5,0.1,3-0.3,4.4-0.8c1.4-0.5,2.7-1.2,4.1-1.8c1.3-0.7,2.7-1.4,4-2.1c1.3-0.7,2.6-1.5,3.9-2.2l1.4-0.8
		l0.7,1.5c1.1,2.2,1.1,4.6,0.8,6.8c-0.3,2.2-0.9,4.2-1.6,6.1c-0.8,1.9-1.7,3.8-2.6,5.6c-0.5,0.9-1,1.8-1.5,2.7
		c-0.3,0.4-0.5,0.9-0.7,1.3c-0.1,0.2-0.2,0.5-0.2,0.6C434.2,465.6,434.6,465.5,434.8,465.4z"/>
	<path class="st4" d="M385.6,429.1c0.2-1.4,0.5-2.8,1.1-4.2c0.5-1.4,1.2-2.7,2.1-3.9c0.9-1.2,2-2.4,3.5-3.1c1.5-0.8,3.5-0.8,5-0.1
		c1.3,0.6,2.5,1.2,3.8,1.8c1.3,0.6,2.6,1.1,3.9,1.7c2.6,1.1,5.3,2.3,7.3,4.6c0.5,0.6,1,1.2,1.4,1.8c0.2,0.3,0.4,0.6,0.6,0.8
		c0.2,0.3,0.3,0.5,0.6,0.8c0.8,1,1.7,1.9,2.8,2.6c2.1,1.5,4.5,2.4,7,3c1.2,0.3,2.5,0.5,3.8,0.5c1.2,0,2.6-0.2,3.9-0.4
		c1.3-0.2,2.7-0.5,4.1-0.7c0.7-0.1,1.4-0.2,2.2-0.2c0.4,0,0.8,0,1.2,0.2c0.2,0.1,0.4,0.2,0.6,0.3c0.2,0.2,0.3,0.4,0.3,0.6l-0.3,0.1
		c-0.3-0.5-1-0.3-1.6-0.2c-0.6,0.2-1.3,0.4-1.9,0.7c-1.3,0.5-2.6,1.1-3.9,1.5c-1.4,0.5-2.8,0.9-4.3,1c-1.5,0.2-3.1,0-4.6-0.3
		c-3-0.6-5.8-1.9-8.1-3.9c-1.2-1-2.2-2.1-3-3.5c-0.2-0.3-0.4-0.7-0.5-1l-0.4-1c-0.2-0.6-0.5-1.2-0.9-1.8c-0.7-1.1-1.6-2.1-2.7-2.9
		c-1.1-0.8-2.4-1.4-3.7-1.8c-1.3-0.4-2.7-0.7-4.1-1c-1.4-0.3-2.8-0.6-4.1-1c-1.1-0.3-2.1-0.2-3.1,0.2c-1,0.4-2,1.2-2.8,2.2
		c-1.8,1.9-3.2,4.3-4.6,6.7L385.6,429.1z"/>
	<path class="st4" d="M399.5,455.8c-0.5,2.5-1.2,4.8-1.7,7.2c-0.3,1.2-0.5,2.3-0.6,3.5c-0.1,1.1-0.2,2.2-0.1,3.2c0,0.1,0,0.2,0,0.4
		c0,0.1,0,0.2,0.1,0.4c0.1,0.3,0.1,0.7,0.2,1l0,1l0,1c-0.1,1.3-0.1,2.5-0.1,3.7c0,2.4,0.4,4.9,1.5,7.1c1,2.2,2.4,3.9,4.2,5.3
		c0.9,0.6,1.9,1.3,2.9,1.8c1,0.5,2.1,1,3.2,1.5c1.1,0.5,2.2,0.9,3.3,1.3c1.1,0.4,2.3,0.8,3.5,1.2c1.2,0.4,2.4,0.9,3.5,1.6
		c1.1,0.7,2.2,1.7,2.6,3l-0.3,0.1c-1.7-1.8-4.1-2-6.5-2.5c-2.4-0.4-4.9-0.9-7.4-1.8c-1.2-0.5-2.4-1-3.5-1.7
		c-1.1-0.7-2.2-1.4-3.2-2.4c-0.5-0.4-0.9-1-1.4-1.5c-0.4-0.5-0.8-1.1-1.1-1.7c-0.6-1.2-1.1-2.5-1.4-3.7c-0.5-2.5-0.6-5.1-0.9-7.5
		c-0.1-1.2-0.3-2.5-0.6-3.7l-0.2-0.9l-0.2-0.8c-0.1-0.3-0.2-0.5-0.3-0.8c0-0.1-0.1-0.3-0.2-0.5c-0.1-0.2-0.1-0.4-0.2-0.5
		c-0.4-1.4-0.3-2.8,0-4.1c0.2-1.3,0.6-2.5,1.1-3.7c0.9-2.4,2.1-4.6,3.7-6.6L399.5,455.8z"/>
	<path class="st4" d="M443.4,468.9c-0.4,2.2-0.6,4.4-0.7,6.5c0,1.1,0,2.1,0.1,3.2c0.1,1,0.3,2,0.6,3l0.2,0.5l-0.3,0.4
		c-0.7,0.8-1.3,1.7-1.9,2.5c-0.6,0.8-1.2,1.7-1.8,2.6c-0.6,0.9-1.1,1.8-1.6,2.7c-0.5,0.9-0.9,1.9-1.1,3c-0.3-1.1-0.1-2.2,0.2-3.3
		c0.3-1.1,0.7-2.1,1.2-3.1c0.5-1,1-2,1.6-2.9c0.6-0.9,1.2-1.8,1.9-2.7l-0.2,1c-0.3-1.2-0.6-2.3-0.6-3.5c0-1.2,0-2.3,0.2-3.4
		c0.2-1.1,0.5-2.2,0.8-3.3C442.3,470.9,442.8,469.8,443.4,468.9z"/>
	<path class="st4" d="M447.9,504.3c1.2,1.7,2.1,3.6,2.8,5.6c0.7,2,1.3,4,1.3,6.3c0,0.6-0.1,1.2-0.3,1.8c-0.1,0.3-0.3,0.7-0.6,0.9
		c-0.2,0.3-0.5,0.5-0.8,0.7c-1.1,0.7-2.3,0.9-3.4,0.9c-1.1,0-2.2-0.1-3.2-0.5c-0.5-0.2-1-0.4-1.5-0.7c-0.2-0.2-0.5-0.4-0.6-0.6
		c-0.1-0.3,0-0.7,0.2-0.8c-0.4,0.5,0.2,0.8,0.6,0.9c0.5,0.1,0.9,0.2,1.4,0.3c1,0.1,2,0,2.9-0.1c0.9-0.2,1.8-0.4,2.4-0.9
		c0.1-0.1,0.3-0.2,0.4-0.4c0.1-0.1,0.1-0.2,0.2-0.4c0.1-0.3,0.2-0.7,0.2-1.2c0-1.8-0.4-3.8-0.8-5.8
		C448.8,508.3,448.3,506.3,447.9,504.3z"/>
	<path class="st4" d="M382.5,485.1c0.6,1.3,1,2.6,1.4,3.9c0.2,0.6,0.4,1.3,0.6,1.9c0.2,0.6,0.3,1.3,0.5,2c0.3,1.3,0.4,2.7,0.8,4
		c0.4,1.3,1.2,2.5,2,3.5c0.9,1,1.9,1.9,2.8,2.8c1,0.9,2,1.7,3,2.6c1,0.9,2,1.8,3,2.9c0.9,1,1.8,2.2,2.3,3.6l-0.2,0.1
		c-2-1.9-4.3-3.2-6.5-4.9c-1.1-0.9-2.1-1.9-3-2.9c-0.9-1.1-1.8-2.2-2.4-3.5c-0.6-1.3-1.1-2.6-1.7-3.8c-0.6-1.3-1.3-2.5-1.8-3.8
		c-0.5-1.3-0.8-2.7-1-4c-0.2-1.4-0.3-2.8-0.1-4.2L382.5,485.1z"/>
	<path class="st30" d="M676.3,424.3c-5.4,2.9,14.5-7,26.2-0.4s21.5,13.9,28.5,15.7c7,1.9,15.8,6.3,16.5,11.3
		c0.6,5.1,11.7,11.4,17.7,10.4c6-1,8.2-0.7,9.5-3.2c1.3-2.5-12,3.5-10.1-3.5s5-10.1,8.2-10.1c3.2,0-11.1-4.7-14.6-5.7
		c-3.5-0.9-13-7.2-15.5-8.5c-2.5-1.3-18-3.4-19.6-5c-1.6-1.6-8.5-3.5-12.3-5.3c-3.8-1.9-14.2-4.7-22.1-3.1
		C680.7,418.6,676.3,424.3,676.3,424.3z"/>
	
		<linearGradient id="SVGID_3_" gradientUnits="userSpaceOnUse" x1="757.5197" y1="531.6022" x2="781.4549" y2="507.667" gradientTransform="matrix(0.9479 -0.3187 0.3187 0.9479 -163.623 183.817)">
		<stop  offset="0" style="stop-color:#7B442D"/>
		<stop  offset="1" style="stop-color:#352621"/>
	</linearGradient>
	<path class="st31" d="M687.7,412.6c0,0,3.5,4.1,12.3-1c8.8-5.1,1.9,2.5-1.9,3.8s0,3.2,2.9,2.2c2.8-1,7-1.3,8.5-2.9
		c1.6-1.6,4.1,2.8-1.9,3.8c-6,1,7,1.9,10.4-0.3s-5.4,2.9-9.5,3.2c-4.1,0.3,3.2,3.2,5.4,3.5c2.2,0.3,10.7-8.9,10.7-12
		c0-3.2,5.7,1.3-8.2,13.3c0,0,3.8,1.9,7,1.9c3.2,0,6.3-3.2,7.9-4.8c1.6-1.6,1.9-3.8,3.5-5.4c1.6-1.6-2.8,10.4-6.9,10.8
		c0,0,8.5-2.9,8.8-5.1c0,0-2.5,5.1-4.4,5.7c0,0,2.8-1,7.9-4.8c0,0-0.9,3.5-3.8,4.4c0,0,6-1,8.5-2.9s-4.4,2.5-2.2,6s7.6-5.7,9.8-8.6
		s-2.2,9.2-6,10.5l7.6,0.6l4.1,2.8c0,0,0.6,5.1,2.2,3.5c1.6-1.6,1.3-5.7,1.3-5.7l1.9,2.5l-1.3,2.5l4.7,1.6l-0.9,3.5l6.6-5.4L770,444
		l-3.8,4.4l-2.5,1.9c0,0,3.2,3.2,4.4,3.8s6,2.2,6,2.2l9.2-1l-8.5,2.9l-6.3,0c0,0-1.9,0.6-4.1,0.3c-2.2-0.3-35.5-17.6-35.5-17.6
		l-20.3-10.1l-11.4-5.7l-6.7-4.1l-3.2-3.2l-14.9,2.9l14.2-4.8L687.7,412.6z"/>
	<path class="st4" d="M681.2,471.7c-0.3,0,0,0,0.1,0l0.4,0l0.8,0.1l1.7,0.1l3.3,0.2c2.2,0.2,4.4,0.3,6.7,0.4
		c4.4,0.3,8.9,0.6,13.3,0.5c1.1,0,2.2-0.1,3.3-0.2c0.5-0.1,1.1-0.1,1.7-0.2c0.6,0,1.1,0,1.7,0c2.3,0.1,4.5,0.3,6.7,0.8
		c4.4,0.9,8.7,2.1,12.8,3.9c-2.1-0.7-4.3-1.3-6.4-1.8c-2.2-0.5-4.3-1-6.5-1.4c-2.2-0.3-4.4-0.6-6.6-0.7c-0.5,0-1.1,0-1.6,0.1
		c-0.5,0.1-1,0.1-1.6,0.2c-1.1,0.2-2.3,0.2-3.4,0.3c-4.5,0-8.9-0.3-13.4-0.7c-2.2-0.2-4.4-0.5-6.6-0.7l-3.3-0.4l-1.7-0.2
		L681.2,471.7z"/>
	<path class="st4" d="M670.5,501.2c-0.3,0.1-0.6,0.4-0.4,0.6c0.2,0.2,0.4,0.4,0.7,0.6c0.5,0.4,1.1,0.6,1.7,0.9
		c1.2,0.6,2.4,1.1,3.6,1.7c2.4,1.1,4.9,2.2,7.2,3.5c1.1,0.7,2.3,1.4,3.2,2.5c0.2,0.3,0.4,0.6,0.6,0.8c0.2,0.3,0.4,0.5,0.6,0.8
		c0.4,0.5,0.9,1,1.3,1.5c1.9,1.8,4.1,3.4,6.5,4.5c1.2,0.6,2.4,1.1,3.7,1.4c0.6,0.2,1.2,0.2,1.9,0.3l2,0.3c2.6,0.3,5.3,0.5,7.7-0.2
		c1.2-0.3,2.4-0.9,3.3-1.7c1-0.8,2-1.7,2.9-2.7c0.9-0.9,1.9-1.9,2.9-2.8c1-0.9,2.3-1.6,3.7-1.5l0,0.1c-1.3,0.1-2.4,0.9-3.4,1.8
		c-0.9,0.9-1.8,2-2.7,2.9c-0.9,1-1.8,2-2.8,2.9c-1,0.9-2.3,1.6-3.7,2c-2.7,0.8-5.5,0.5-8.1,0.1c-1.3-0.2-2.6-0.4-4-0.7
		c-1.3-0.4-2.5-1-3.7-1.7c-2.3-1.4-4.5-3-6.4-4.8c-1-0.9-1.9-1.9-2.7-3c-0.9-0.9-2.1-1.5-3.2-2.1c-2.3-1.2-4.7-2.4-7.1-3.6
		c-1.2-0.6-2.4-1.2-3.5-1.9c-0.6-0.3-1.1-0.7-1.7-1.1c-0.3-0.2-0.5-0.4-0.7-0.8c-0.1-0.2-0.1-0.4,0.1-0.6
		C670.2,501.2,670.3,501.2,670.5,501.2L670.5,501.2z"/>
	<path class="st32" d="M712.6,499.2l6.3-6.3l6-4.1l5.4-2.9l0.3,4.1l-0.6,4.4l-1.6,4.7l-1.9,0.6l-3.2,0l-3.5-0.9c0,0-4.7,0-5.1-0.1
		C714.5,498.5,712.6,499.2,712.6,499.2z"/>
	<path class="st33" d="M576.4,485.5c0,0-36,0.3-26.6-0.6c6-0.5,70.7,23.4,66.5,22c-1.9-0.6-1.6-14.2-5.1-15.2
		C608.4,491,576.4,485.5,576.4,485.5z"/>
	
		<linearGradient id="SVGID_4_" gradientUnits="userSpaceOnUse" x1="672.0197" y1="556.6022" x2="737.0197" y2="556.6022" gradientTransform="matrix(0.9479 -0.3187 0.3187 0.9479 -163.623 183.817)">
		<stop  offset="0" style="stop-color:#7B442D"/>
		<stop  offset="1" style="stop-color:#4E3F3A"/>
	</linearGradient>
	<polygon class="st34" points="715,484.6 716.8,498.8 713.9,498.6 711.6,499.5 708.1,498.5 705.9,498.2 702.1,496.3 693.6,492.9 
		686.6,491 678.4,488.5 670.5,486.9 664.1,483.8 661.3,481.6 656.5,480 650.8,478.8 647.4,477.8 643.9,476.9 646.4,475 652.7,475 
		662.5,475.9 673.6,477.4 680.2,478.4 688.8,481.8 704,483.1 	"/>
	<path class="st35" d="M729,485.2c1.3,0.6,1,9.2-8.5,12.4c-7.1,2.4-14.6,0.6-16.1-4.1c-1.6-4.7-0.8-9.6,6.6-8.6
		C717.6,485.9,728.1,484.8,729,485.2z"/>
	<path class="st4" d="M644.3,476.4c-0.1,0.1-0.2,0.2-0.2,0.1c0,0,0.1,0.1,0.3,0.2c0.2,0.1,0.5,0.2,0.8,0.3c0.6,0.2,1.1,0.3,1.7,0.5
		c1.1,0.3,2.3,0.6,3.5,0.8c2.3,0.5,4.6,1,6.9,1.6c2.3,0.7,4.6,1.3,6.8,2.6c0.3,0.2,0.5,0.3,0.8,0.5c0.3,0.2,0.5,0.5,0.7,0.6
		c0.4,0.3,0.9,0.6,1.4,0.8c1,0.5,2.1,0.8,3.2,1.1c9,2.5,18.5,3.9,27.5,7.3c2.2,0.9,4.5,1.8,6.5,3.4c0.5,0.4,0.9,0.8,1.3,1.1
		c0.4,0.3,0.9,0.5,1.4,0.7c1,0.4,2.2,0.4,3.3,0.4c1.2,0,2.3-0.2,3.5-0.3c1.2-0.1,2.4-0.1,3.6-0.1c2.4,0.1,4.9,0.6,7.1,1.4
		c1,0.3,2,0,2.7-0.7c0.7-0.7,1.2-1.8,1.5-2.8c0.7-2.1,0.9-4.5,0.8-6.7c0-0.6-0.1-1.1-0.2-1.6c0-0.2-0.1-0.5-0.2-0.6c0,0,0,0,0,0.1
		c0,0.1,0.5,0.3,0.2,0.2c-0.2-0.1-0.5-0.3-0.6-0.5c-0.3-0.3-0.3-0.3-0.4-0.4c-0.1,0-0.2-0.1-0.5-0.1c-0.4-0.1-1-0.1-1.5-0.1
		c-2.2,0.1-4.6,0.5-6.9,0.8l-0.1,0l-0.1,0c-3.3,0-6.6-0.3-9.8-0.9c-1.6-0.3-3.2-0.7-4.7-1.2l-1.1-0.3c-0.3-0.1-0.8-0.2-0.9-0.2
		c0,0-0.1,0,0.1,0c0.1,0,0.1,0,0.2,0c-0.1,0-0.2,0-0.3,0.1c-0.2,0-0.3,0-0.4,0c-0.3,0-0.5,0-0.8,0c-0.4,0-0.9-0.1-1.3-0.1
		c-3.3-0.3-6.4-0.8-9.6-1.4c-1.6-0.3-3.1-0.6-4.8-1.2c-0.2-0.1-0.4-0.2-0.7-0.3l-0.2-0.1l-0.1,0l-0.2-0.1c-0.3-0.1-0.7-0.2-1-0.3
		c-0.7-0.2-1.5-0.4-2.2-0.6c-3.1-0.7-6.2-1.3-9.3-1.9l-4.7-0.9l-2.4-0.5c-0.9-0.2-1.6-0.4-2.4-0.7c-3-0.9-6.1-1.6-9.3-1.8
		C650.4,474.7,647.1,475.1,644.3,476.4z M644.1,476.1c2.9-1.4,6.2-1.8,9.4-1.9c3.2,0,6.4,0.4,9.6,1c0.8,0.1,1.6,0.3,2.3,0.4l2.4,0.2
		l4.8,0.5c3.2,0.4,6.3,0.8,9.5,1.4c0.8,0.2,1.6,0.3,2.4,0.5c0.4,0.1,0.8,0.2,1.3,0.4l0.6,0.3c0.1,0,0.3,0.1,0.4,0.2
		c1.3,0.4,2.9,0.7,4.4,1c3.1,0.5,6.2,1,9.3,1.3c0.4,0,0.8,0.1,1.1,0.1c0.2,0,0.4,0,0.4,0c0,0,0.1,0-0.1,0c0,0-0.1,0-0.1,0
		c0.1,0,0.2-0.1,0.3-0.1c0.4-0.1,0.6,0,0.7,0c0.6,0.1,1,0.2,1.4,0.3l1.2,0.4c1.5,0.5,3,0.9,4.5,1.2c3,0.7,6.1,1.1,9.2,1.1l-0.2,0
		c2.4-0.3,4.8-0.6,7.3-0.6c0.6,0,1.3,0,2,0.2c0.4,0.1,0.8,0.2,1.2,0.4c0.4,0.2,0.8,0.7,0.9,0.8c0.1,0.1,0.1,0.1,0.1,0.1
		c0,0-0.1,0,0.2,0.1c0.2,0.1,0.2,0.2,0.3,0.3c0.1,0.2,0.2,0.3,0.3,0.5c0.2,0.5,0.2,0.8,0.3,1.2c0.1,0.7,0.1,1.3,0.1,1.9
		c-0.1,2.5-0.6,4.9-1.5,7.3c-0.5,1.2-1.1,2.3-2.1,3.2c-0.5,0.5-1.2,0.8-1.9,1c-0.7,0.1-1.4,0-2-0.2c-1.2-0.4-2.2-0.8-3.3-1.1
		c-1.1-0.3-2.3-0.4-3.4-0.5c-2.3-0.1-4.6,0.3-7,0.5c-1.2,0.1-2.5,0.1-3.7-0.3c-0.6-0.2-1.2-0.4-1.8-0.7c-0.5-0.3-1.1-0.7-1.5-1
		c-1.8-1.2-4.1-2-6.3-2.7c-4.5-1.3-9.1-2.3-13.7-3.4c-4.6-1.1-9.3-2.2-13.8-3.9c-1.1-0.4-2.3-0.9-3.4-1.6c-0.5-0.3-1.1-0.7-1.6-1.1
		c-0.3-0.3-0.4-0.4-0.6-0.6c-0.2-0.2-0.4-0.4-0.6-0.5c-1.8-1.3-4-2.2-6.2-3c-2.2-0.8-4.5-1.4-6.8-2l-3.4-0.9
		c-0.6-0.2-1.1-0.3-1.7-0.5c-0.3-0.1-0.6-0.2-0.8-0.4c-0.1-0.1-0.3-0.1-0.4-0.4c0-0.2,0-0.3,0.1-0.4
		C644,476.2,644.1,476.1,644.1,476.1z"/>
	<path class="st4" d="M824.5,439.4c0.8,1.3,1.2,2.8,1,4.5c-0.1,0.8-0.4,1.7-0.7,2.3c-0.3,0.7-0.6,1.3-1,2c-0.7,1.2-1.4,2.4-1.9,3.6
		c-0.6,1.2-1.1,2.3-1.2,3.1c-0.1,1.5-0.5,3-0.9,4.4c-0.4,1.4-0.9,2.8-1.7,4.2c-0.2,0.3-0.4,0.7-0.7,1l-0.3,0.4
		c-0.1,0.1-0.2,0.3-0.3,0.4c-0.4,0.5-0.7,1.1-1,1.8c-0.6,1.3-1,2.6-1.8,4c-0.1,0.2-0.2,0.4-0.4,0.5c-0.1,0.2-0.1,0.2-0.1,0.3
		c-0.1,0.3-0.2,0.5-0.3,0.8c-0.2,0.6-0.4,1.3-0.5,1.9l-1,4c-0.3,1.4-0.7,2.7-1.1,4.1c-0.2,0.7-0.4,1.4-0.8,2.2
		c-0.2,0.4-0.3,0.9-0.5,1.5c-0.3,1.2-0.5,2.6-0.9,4.1c-0.2,0.8-0.4,1.5-1,2.5c-0.2,0.3-0.3,0.5-0.6,0.7c-0.1,0.1-0.3,0.2-0.4,0.4
		c-0.2,0.1-0.4,0.2-0.6,0.3c-0.3,0.1-0.1,0.1-0.1,0c0,0,0.1-0.1,0-0.1c0,0-0.1,0-0.1,0.1c-0.3,0.3-0.7,0.8-1,1.4l-1,1.8
		c-0.4,0.6-0.7,1.3-1.2,1.9c-0.5,0.6-1,1.3-1.9,1.5l-0.1-0.4c0.5-0.4,0.6-1,0.8-1.7c0.2-0.6,0.3-1.3,0.5-2c0.1-0.7,0.3-1.4,0.5-2.1
		c0.2-0.7,0.4-1.5,1-2.3c0.1-0.2,0.4-0.5,0.6-0.7c0.1-0.1,0.3-0.2,0.5-0.3c0.1-0.1,0.5-0.2,0.3-0.2c0,0-0.1,0-0.1,0c0,0,0,0-0.1,0
		c0,0,0-0.1,0-0.1c0.1-0.3,0.2-0.9,0.3-1.5c0.2-1.3,0.3-2.7,0.5-4.2c0.2-0.8,0.4-1.6,0.8-2.5c0.2-0.4,0.5-1.1,0.7-1.7l1.5-3.9
		c0.5-1.3,1-2.7,1.6-4c0.3-0.7,0.7-1.3,1.1-2c0.2-0.3,0.4-0.7,0.7-1c0.2-0.2,0.4-0.4,0.5-0.5c0.1-0.1,0.2-0.2,0.3-0.3
		c0.9-0.8,1.6-2.1,2.3-3.3c0.4-0.6,0.7-1.2,1.2-1.9l0.4-0.5c0.1-0.1,0.3-0.3,0.4-0.4c0.2-0.2,0.3-0.5,0.5-0.8
		c0.5-1.2,0.7-2.6,0.7-3.9c0-1.4-0.1-2.7-0.3-4c-0.1-2,0.7-3.5,1.4-4.8c0.7-1.3,1.6-2.5,2.5-3.6c0.9-1.1,1.8-2.1,2.2-3.1
		c0.5-1.1,0.7-2.4,0.7-3.8L824.5,439.4z"/>
	<path class="st35" d="M783.1,501.8c0,0,4.4,3.8,5.7,7.6"/>
	<path class="st35" d="M785,501.2c0,0,5.7,4.4,6,8.5c0.3,4.1,1.6,1.6,1.9,2.5"/>
	<path class="st35" d="M787.8,500.2c0,0,3.5,4.1,4.1,6c0.6,1.9,0.6,1.9,2.2,3.5"/>
	<path class="st35" d="M791.9,499.9c0,0,0,0,1,2.8c1,2.8,3.5,4.1,3.2,6.3"/>
	<path class="st35" d="M793.2,500.5c0,0,4.8,4.7,4.4,6.9"/>
	<path class="st35" d="M796.4,500.5c0,0,1.3,3.8,2.9,5.4c1.6,1.6,1.6,1.6,1,2.8"/>
	
		<linearGradient id="SVGID_5_" gradientUnits="userSpaceOnUse" x1="744.6511" y1="575.7646" x2="772.5305" y2="575.7646" gradientTransform="matrix(0.9479 -0.3187 0.3187 0.9479 -163.623 183.817)">
		<stop  offset="0" style="stop-color:#7B442D"/>
		<stop  offset="1" style="stop-color:#352621"/>
	</linearGradient>
	<path class="st36" d="M728.2,499.3c0,0,8.5-2.9,12.3-4.1c3.8-1.3,5.4-2.9,7.9-4.8c2.5-1.9,2.5-5.1,2.8-7.3s-1.3-7-2.2-6.6
		c-0.9,0.3-4.1,6.7-6,7.3c-1.9,0.6-5.7,5.1-9.2,7.3C730.4,493.3,726.6,497.8,728.2,499.3z"/>
</g>
<g id="圖層_12">
	<path class="st0" d="M450.1,482.1c-0.3-0.1-0.4-0.3-0.5-0.4c-7.5-5.6-15.1-9.9-22.6-13.1c-0.1,0-0.3-0.1-0.3-0.1
		c-12.5-4.1-22.2-3.4-29,2.2c-0.1,0.1-0.3,0.3-0.4,0.4c-3.5,3.7-6.3,6.3-8.4,7.9c-2.2,1.5-5.2,0.4-5.9-2c-0.7-2.6-1-6.3-1-11.2v-30
		c0-6.9,2.7-11.3,8.2-12.9c3.7-1.2,6.1-4.5,6-8.3V414c-0.1-3.5-2.6-6.7-6-7.8c-5.4-1.6-8.2-6.3-8.2-13.6v-14.4c0-6.7,0.3-11.3,1-14
		c0.3-1.2,1.2-2.2,2.3-2.7c3.1-1.1,6.1-2.7,9.3-4.8c0.5-0.3,1-0.8,1.2-1.4c4.6-9.1,0.1-14.3-13.6-15.9c-0.1,0-0.1,0-0.3,0
		c-13.8-2.7-27.7-4.6-41.4-5.7c-10.4-0.4-15.5,6.1-15.5,19.6v39.4c0,8.3-3.7,12.9-11.2,13.8c-1.6,0.1-3,1.4-3.3,3l-1.9,9.5
		c-0.4,2.2,1.1,4.4,3.3,4.5c8.7,0.8,13.1,5.2,13.1,13.2v30.8c0,0.3,0,0.5,0.1,0.8c3.3,14.6-5.6,16.6-26.6,6
		c-5.4-2.7-10.8-4.6-16.1-5.9c-12-3.1-17.8,1.8-17.8,14.4v178.5c0,0.3,0,0.5-0.1,0.8c-3.7,16.6,1.8,25.7,16.2,27.2
		c25.7,1.9,38.7-8.3,38.7-30.5c0-4.4,0.7-7.2,2.2-8.9c1.5-1.8,4.4-1.6,5.7,0.3c1.6,2.2,2.5,6.4,2.5,12.7v45.8
		c0,6.9-2.7,11.3-8.2,12.9c-3.8,1.2-6.1,4.9-6,8.9v0.3c0.1,3.8,2.7,7.1,6.3,8.3c5.2,1.8,7.8,6.3,7.8,13.5V855c0,0.1,0,0.4,0,0.5
		c-3,17,2.6,28.1,16.5,33.1c0.1,0.1,0.3,0.1,0.4,0.1c19.2,4.8,32.6-1.4,39.8-18.4c0.3-0.4,0.3-1,0.3-1.5V752
		c0-9.3,4.8-13.8,14.4-13.8h32.6c0.1,0,0.4,0,0.7,0c12.1,2,19.8,0.1,22.8-5.7c0.4-0.8,0.5-1.9,0.3-2.7c-0.7-2.5-2.7-6.8-6.1-12.9
		c-1.9-3.8-4.4-7.5-7.4-11.3c-0.1-0.1-0.3-0.3-0.3-0.4c-7.4-7.4-12.7-12-15.7-13.9c-1.4-0.8-3-0.8-4.2,0.1c-3,2.2-8.2,7.8-15.7,16.8
		c0,0.1-0.1,0.1-0.1,0.3c-6.4,6.7-11.2,11-14.4,13.4c-2.2,1.5-5.2,0.4-5.9-2.2c-0.7-2.5-1-6.3-1-11.2v-45.5c0-4.4,0.4-7.8,1.1-10.2
		c1.1-3.5,6.1-3.7,7.2-0.1c0.7,2.2,1,5.2,1,9.1c-0.8,20.7,8.6,29.2,28.2,25.3c21.8-3,30.7-15,26.6-36c0-0.3-0.1-0.4-0.1-0.7v-126
		c-2.3-9.1,0.7-15.1,8.9-18.3c0.3-0.1,0.5-0.3,0.8-0.4C470.6,498.2,467.3,490.5,450.1,482.1z M395.6,545.5c0,6.7-2.6,10.9-7.6,12.8
		c-4,1.5-6.4,5.3-5.9,9.4c0.4,3.4,2.6,6.3,5.9,7.4c5,1.8,7.6,6.7,7.6,14.7v29.4c0,9.3-4.8,13.9-14.4,13.9h-48.4
		c-9.3,0-13.9-4.8-13.9-14.4v-30.5c0-6.9,2.7-11.3,8.2-12.9c3.7-1.2,6.1-4.5,6-8.3v-0.5c-0.1-3.5-2.6-6.7-6-7.8
		c-5.4-1.8-8.2-6.3-8.2-13.6v-32.8c0-9.1,5.7-14.6,17-16.1c0.1,0,0.4,0,0.5,0h40.7c12.3-0.8,18.5,4.1,18.5,14.4v35H395.6z"/>
	<path class="st0" d="M460.6,377.1c-13.4-12.5-25.5-12.7-36.2-0.4c-5,5.6-9.9,9.7-15,12.4c-1.5,5.2,6.3,16.1,10.9,18.8
		c6.8,3.8,31.2,0,31.2,0c9,0,15-0.4,18-1.1c1.1-0.3,1.9-1,2.5-2c3-6.4-0.7-15.5-11-27.2C460.8,377.4,460.8,377.2,460.6,377.1z"/>
</g>
</svg>
